<svg id="eyil7nf7hqe1" xmlns="http://www.w3.org/2000/svg" xmlns:xlink="http://www.w3.org/1999/xlink" viewBox="270 0 1000 800" shape-rendering="geometricPrecision" text-rendering="geometricPrecision"><g id="eyil7nf7hqe2"><g id="eyil7nf7hqe3" transform="matrix(1 0 0 1 151.64119432999976 -91.56376028500028)"><path id="eyil7nf7hqe4" d="M677.350000,279C650.900000,278.730000,633.180000,323.050000,628.030000,350.720000C625.910000,362.140000,617.850000,405.440000,640.690000,432.720000C660.210000,456,694.190000,457.910000,714,435.280000C736.580000,409.480000,728.480000,365.830000,726,352.460000C721.170000,326.460000,704.520000,279.320000,677.360000,279.030000" transform="matrix(1 0 0 1 -967.91898700000013 2.94499999999846)" fill="rgb(231,58,90)" stroke="none" stroke-width="1"/><path id="eyil7nf7hqe5" d="M676.070000,278.910000C676.070000,278.910000,599.440000,400.150000,676.740000,451.380000C676.740000,451.380000,637.740000,451.380000,626.740000,401.860000C624.960000,395.360000,621.420000,355.990000,636.740000,319.860000C647.670000,294.100000,660.070000,280.580000,676.060000,278.860000" transform="matrix(1 0 0 1 -967.91898700000013 2.94499999999846)" opacity="0.49" fill="rgb(197,214,198)" stroke="none" stroke-width="1"/><path id="eyil7nf7hqe6" d="M677.680000,501.450000C677.058029,501.366827,676.614958,500.804128,676.680000,500.180000L675.350000,320.460000C675.272982,319.826454,675.717896,319.248067,676.350000,319.160000C676.890000,319.160000,677.350000,319.720000,677.350000,320.430000L678.680000,500.160000C678.745771,500.788373,678.304931,501.357056,677.680000,501.450000Z" transform="matrix(1 0 0 1 -967.91898700000013 2.94499999999846)" fill="rgb(97,140,119)" stroke="none" stroke-width="1"/><path id="eyil7nf7hqe7" d="M664.130000,343.470000C659.810000,343.470000,655.430000,342.560000,652.780000,339.470000C650.780000,337.140000,649.930000,333.860000,650.370000,329.720000C650.440000,329.020000,650.940000,328.520000,651.490000,328.620000C652.097938,328.815512,652.466147,329.432048,652.350000,330.060000C652,333.350000,652.580000,335.810000,654.110000,337.570000C659.830000,344.110000,676.270000,338.930000,676.440000,338.880000C676.970000,338.710000,677.520000,339.120000,677.650000,339.810000C677.816179,340.435461,677.508030,341.089748,676.920000,341.360000C672.774916,342.652089,668.470460,343.362206,664.130000,343.470000Z" transform="matrix(1 0 0 1 -967.91898700000013 2.94499999999846)" fill="rgb(97,140,119)" stroke="none" stroke-width="1"/><path id="eyil7nf7hqe8" d="M658.570000,404.840000C651.430000,404.840000,644.160000,403.620000,640.850000,399.290000C639.141973,396.915651,638.503898,393.935549,639.090000,391.070000C639.200000,390.370000,639.730000,389.930000,640.260000,390.070000C640.862527,390.306475,641.199303,390.950184,641.050000,391.580000C640.603996,393.644860,641.050687,395.802049,642.280000,397.520000C648.980000,406.290000,676.280000,400.360000,676.510000,400.300000C677.050000,400.170000,677.570000,400.650000,677.660000,401.300000C677.799331,401.926652,677.452929,402.559585,676.850000,402.780000C670.837593,404.056020,664.715601,404.745916,658.570000,404.840000Z" transform="matrix(1 0 0 1 -967.91898700000013 2.94499999999846)" fill="rgb(97,140,119)" stroke="none" stroke-width="1"/><path id="eyil7nf7hqe9" d="M696,368.310000C689.859290,368.241730,683.740048,367.571862,677.730000,366.310000C677.126125,366.089845,676.776452,365.458727,676.910000,364.830000C677.010000,364.140000,677.520000,363.660000,678.070000,363.830000C678.340000,363.890000,705.600000,369.830000,712.290000,361.050000C713.524019,359.334113,713.971143,357.174835,713.520000,355.110000C713.379626,354.481332,713.713507,353.843154,714.310000,353.600000C714.850000,353.470000,715.380000,353.920000,715.490000,354.600000C716.073241,357.466947,715.431512,360.447179,713.720000,362.820000C710.430000,367.090000,703.160000,368.310000,696,368.310000Z" transform="matrix(1 0 0 1 -967.91898700000013 2.94499999999846)" fill="rgb(97,140,119)" stroke="none" stroke-width="1"/><g id="eyil7nf7hqe10"><path id="eyil7nf7hqe11" d="M601.900000,312.180000C580.900000,311.900000,566.900000,357,562.770000,385.180000C561.080000,396.790000,554.690000,440.850000,572.770000,468.580000C588.260000,492.270000,615.230000,494.210000,630.950000,471.180000C648.870000,444.930000,642.440000,400.520000,640.470000,386.910000C636.630000,360.420000,623.470000,312.490000,601.860000,312.200000" transform="matrix(1 0 0 1 -967.91898700000013 2.94499999999846)" fill="rgb(97,140,119)" stroke="none" stroke-width="1"/><path id="eyil7nf7hqe12" d="M600.840000,312.180000C600.840000,312.180000,540.030000,435.550000,601.370000,487.670000C601.370000,487.670000,570.370000,487.670000,561.710000,437.280000C560.290000,430.670000,557.490000,390.610000,569.640000,353.880000C578.310000,327.680000,588.150000,313.880000,600.840000,312.180000" transform="matrix(1 0 0 1 -967.91898700000013 2.94499999999846)" opacity="0.49" fill="rgb(197,214,198)" stroke="none" stroke-width="1"/><path id="eyil7nf7hqe13" d="M602.170000,538.490000C601.730000,538.490000,601.380000,537.920000,601.370000,537.200000L600.370000,354.330000C600.370000,353.610000,600.710000,353.020000,601.150000,353.010000C601.590000,353,601.950000,353.580000,601.950000,354.300000L603,537.180000C603,537.900000,602.650000,538.490000,602.210000,538.490000Z" transform="matrix(1 0 0 1 -967.91898700000013 2.94499999999846)" fill="rgb(232,58,90)" stroke="none" stroke-width="1"/><path id="eyil7nf7hqe14" d="M591.410000,377.750000C587.990000,377.750000,584.510000,376.820000,582.410000,373.750000C580.790000,371.380000,580.140000,368.040000,580.490000,363.830000C580.550000,363.110000,580.950000,362.610000,581.380000,362.710000C581.810000,362.810000,582.120000,363.460000,582.060000,364.170000C581.790000,367.520000,582.250000,370.020000,583.470000,371.810000C588,378.470000,601.050000,373.200000,601.180000,373.140000C601.610000,372.970000,602.040000,373.390000,602.180000,374.090000C602.333243,374.683782,602.107036,375.310812,601.610000,375.670000C598.356607,376.950469,594.904999,377.654326,591.410000,377.750000Z" transform="matrix(1 0 0 1 -967.91898700000013 2.94499999999846)" fill="rgb(232,58,90)" stroke="none" stroke-width="1"/><path id="eyil7nf7hqe15" d="M587,440.190000C581.330000,440.190000,575.570000,438.950000,572.940000,434.550000C571.559716,431.991882,571.067319,429.048052,571.540000,426.180000C571.630000,425.470000,572.050000,425.010000,572.470000,425.180000C572.890000,425.350000,573.190000,426,573.100000,426.700000C572.744540,428.771743,573.096785,430.902831,574.100000,432.750000C579.410000,441.670000,601.040000,435.640000,601.260000,435.580000C601.690000,435.450000,602.100000,435.930000,602.170000,436.640000C602.240000,437.350000,601.960000,438.020000,601.530000,438.150000C596.788162,439.420880,591.908473,440.105984,587,440.190000Z" transform="matrix(1 0 0 1 -967.91898700000013 2.94499999999846)" fill="rgb(232,58,90)" stroke="none" stroke-width="1"/><path id="eyil7nf7hqe16" d="M616.720000,403C611.819881,402.927412,606.947035,402.255758,602.210000,401C601.780000,400.870000,601.490000,400.200000,601.570000,399.490000C601.650000,398.780000,602.050000,398.300000,602.480000,398.430000C602.700000,398.490000,624.330000,404.520000,629.640000,395.600000C630.643215,393.752831,630.995460,391.621743,630.640000,389.550000C630.550000,388.850000,630.840000,388.160000,631.270000,388.030000C631.700000,387.900000,632.110000,388.350000,632.200000,389.030000C632.672681,391.898052,632.180284,394.841882,630.800000,397.400000C628.150000,401.780000,622.390000,403,616.720000,403Z" transform="matrix(1 0 0 1 -967.91898700000013 2.94499999999846)" fill="rgb(232,58,90)" stroke="none" stroke-width="1"/></g></g><g id="eyil7nf7hqe17" transform="matrix(1 0 0 1 -290.22000000000003 -124.30000000000000)"><path id="eyil7nf7hqe18" d="M601.900000,312.180000C580.900000,311.900000,566.900000,357,562.770000,385.180000C561.080000,396.790000,554.690000,440.850000,572.770000,468.580000C588.260000,492.270000,615.230000,494.210000,630.950000,471.180000C648.870000,444.930000,642.440000,400.520000,640.470000,386.910000C636.630000,360.420000,623.470000,312.490000,601.860000,312.200000" transform="matrix(1 0 0 1 -967.91898700000013 2.94499999999846)" fill="rgb(97,140,119)" stroke="none" stroke-width="1"/><path id="eyil7nf7hqe19" d="M600.840000,312.180000C600.840000,312.180000,540.030000,435.550000,601.370000,487.670000C601.370000,487.670000,570.370000,487.670000,561.710000,437.280000C560.290000,430.670000,557.490000,390.610000,569.640000,353.880000C578.310000,327.680000,588.150000,313.880000,600.840000,312.180000" transform="matrix(1 0 0 1 -967.91898700000013 2.94499999999846)" opacity="0.49" fill="rgb(197,214,198)" stroke="none" stroke-width="1"/><path id="eyil7nf7hqe20" d="M602.170000,538.490000C601.730000,538.490000,601.380000,537.920000,601.370000,537.200000L600.370000,354.330000C600.370000,353.610000,600.710000,353.020000,601.150000,353.010000C601.590000,353,601.950000,353.580000,601.950000,354.300000L603,537.180000C603,537.900000,602.650000,538.490000,602.210000,538.490000Z" transform="matrix(1 0 0 1 -967.91898700000013 2.94499999999846)" fill="rgb(232,58,90)" stroke="none" stroke-width="1"/><path id="eyil7nf7hqe21" d="M591.410000,377.750000C587.990000,377.750000,584.510000,376.820000,582.410000,373.750000C580.790000,371.380000,580.140000,368.040000,580.490000,363.830000C580.550000,363.110000,580.950000,362.610000,581.380000,362.710000C581.810000,362.810000,582.120000,363.460000,582.060000,364.170000C581.790000,367.520000,582.250000,370.020000,583.470000,371.810000C588,378.470000,601.050000,373.200000,601.180000,373.140000C601.610000,372.970000,602.040000,373.390000,602.180000,374.090000C602.333243,374.683782,602.107036,375.310812,601.610000,375.670000C598.356607,376.950469,594.904999,377.654326,591.410000,377.750000Z" transform="matrix(1 0 0 1 -967.91898700000013 2.94499999999846)" fill="rgb(232,58,90)" stroke="none" stroke-width="1"/><path id="eyil7nf7hqe22" d="M587,440.190000C581.330000,440.190000,575.570000,438.950000,572.940000,434.550000C571.559716,431.991882,571.067319,429.048052,571.540000,426.180000C571.630000,425.470000,572.050000,425.010000,572.470000,425.180000C572.890000,425.350000,573.190000,426,573.100000,426.700000C572.744540,428.771743,573.096785,430.902831,574.100000,432.750000C579.410000,441.670000,601.040000,435.640000,601.260000,435.580000C601.690000,435.450000,602.100000,435.930000,602.170000,436.640000C602.240000,437.350000,601.960000,438.020000,601.530000,438.150000C596.788162,439.420880,591.908473,440.105984,587,440.190000Z" transform="matrix(1 0 0 1 -967.91898700000013 2.94499999999846)" fill="rgb(232,58,90)" stroke="none" stroke-width="1"/><path id="eyil7nf7hqe23" d="M616.720000,403C611.819881,402.927412,606.947035,402.255758,602.210000,401C601.780000,400.870000,601.490000,400.200000,601.570000,399.490000C601.650000,398.780000,602.050000,398.300000,602.480000,398.430000C602.700000,398.490000,624.330000,404.520000,629.640000,395.600000C630.643215,393.752831,630.995460,391.621743,630.640000,389.550000C630.550000,388.850000,630.840000,388.160000,631.270000,388.030000C631.700000,387.900000,632.110000,388.350000,632.200000,389.030000C632.672681,391.898052,632.180284,394.841882,630.800000,397.400000C628.150000,401.780000,622.390000,403,616.720000,403Z" transform="matrix(1 0 0 1 -967.91898700000013 2.94499999999846)" fill="rgb(232,58,90)" stroke="none" stroke-width="1"/></g><path id="eyil7nf7hqe24" d="M253,180.830000C267,136.830000,223,147.830000,223,147.830000C215,56.830000,115,142.830000,115,142.830000C87,111.830000,39,167.830000,39,167.830000C6,163.830000,0,180.830000,0,180.830000Z" transform="matrix(1 0 0 1 -388.12524029000014 -21.21863971000005)" fill="rgb(94,148,153)" stroke="none" stroke-width="1"/><path id="eyil7nf7hqe25" d="M707.910000,48.130000C708.910000,25.130000,683.910000,34.130000,683.910000,34.130000C676.910000,-40.870000,620.910000,31.130000,620.910000,31.130000C614.910000,-22.870000,569.910000,46.130000,569.910000,46.130000L707.910000,48.130000" transform="matrix(1 0 0 1 -837.94000000000005 149.61496178000002)" fill="rgb(94,148,153)" stroke="none" stroke-width="1"/><path id="eyil7nf7hqe26" d="M839.590000,238.210000C831.590000,219.210000,804.590000,214.210000,804.590000,214.210000C785.590000,209.210000,758.590000,229.210000,758.590000,229.210000C758.590000,214.210000,747.590000,209.210000,747.590000,209.210000C736.590000,201.210000,712.590000,218.210000,712.590000,218.210000C709.590000,166.210000,679.590000,169.210000,679.590000,169.210000C648.590000,170.210000,619.590000,220.210000,619.590000,220.210000C617.059953,215.886302,613.653722,212.139448,609.590000,209.210000C605.526278,206.280552,599.590000,200.210000,576.590000,223.210000C553.590000,246.210000,542.590000,242.210000,542.590000,242.210000Z" transform="matrix(1 0 0 1 -887.49018900000021 36.38361082000003)" fill="rgb(94,148,153)" stroke="none" stroke-width="1"/><g id="eyil7nf7hqe27"><rect id="eyil7nf7hqe28" width="644" height="40" rx="0" ry="0" transform="matrix(1 0 0 1 471.75481499000023 420.96500000000032)" fill="rgb(16,94,92)" stroke="none" stroke-width="1"/><path id="eyil7nf7hqe29" d="M1049.830000,582.560000C1049.830000,564.980000,1035.280000,550.720000,1017.330000,550.720000C999.380000,550.720000,984.830000,564.980000,984.830000,582.560000C984.833920,585.204885,985.169880,587.838814,985.830000,590.400000L877.160000,590.400000C875.778417,590.402658,874.457312,589.833536,873.510185,588.827688C872.563059,587.821840,872.074339,586.468928,872.160000,585.090000L881.520000,437.090000C881.683970,434.450327,883.875244,432.394912,886.520000,432.400000L1560.830000,432.400000C1563.591424,432.400000,1565.830000,434.638576,1565.830000,437.400000L1565.830000,585.400000C1565.830000,588.161424,1563.591424,590.400000,1560.830000,590.400000L1409.830000,590.400000C1410.494966,587.839746,1410.831006,585.205199,1410.830000,582.560000C1410.830000,564.980000,1396.280000,550.720000,1378.330000,550.720000C1360.380000,550.720000,1345.830000,564.980000,1345.830000,582.560000C1345.833920,585.204885,1346.169880,587.838814,1346.830000,590.400000L1048.830000,590.400000C1049.494966,587.839746,1049.831006,585.205199,1049.830000,582.560000Z" transform="matrix(1 0 0 1 -436.07518500999981 -126.43499999999966)" fill="rgb(232,232,232)" stroke="none" stroke-width="1"/><path id="eyil7nf7hqe30" d="M1229.830000,432.400000L964.830000,432.400000L969.770000,427.110000C975.660000,420.800000,982.770000,417.400000,989.960000,417.400000L1204.480000,417.400000C1211.860000,417.400000,1219.060000,420.860000,1225.060000,427.300000Z" transform="matrix(1 0 0 1 -436.07518500999981 -126.43499999999966)" fill="rgb(64,59,59)" stroke="none" stroke-width="1"/><path id="eyil7nf7hqe31" d="M882.260000,448.690000L883.930000,449.030000C885.023840,449.243334,885.817413,450.195622,885.830000,451.310000L886.760000,534.070000C886.764992,536.544264,884.979938,538.659257,882.540000,539.070000L877,540C876.467367,540.085762,875.924579,539.925329,875.524157,539.563783C875.123735,539.202237,874.908893,538.678596,874.940000,538.140000L880.700000,449.840000C880.734874,449.471680,880.925027,449.135665,881.222824,448.916135C881.520621,448.696606,881.897847,448.614359,882.260000,448.690000Z" transform="matrix(1 0 0 1 -436.07518500999981 -126.43499999999966)" fill="rgb(61,137,131)" stroke="none" stroke-width="1"/><path id="eyil7nf7hqe32" d="M880.050000,467.570000L880.890000,467.740000C881.431913,467.852524,881.822797,468.326575,881.830000,468.880000L882.290000,510.080000C882.306648,511.320727,881.414191,512.387425,880.190000,512.590000L877.440000,513.050000C877.178430,513.082952,876.915712,512.998241,876.722658,512.818701C876.529604,512.639161,876.426084,512.383270,876.440000,512.120000L879.310000,468.120000C879.334702,467.948701,879.426699,467.794327,879.565605,467.691086C879.704510,467.587846,879.878854,467.544264,880.050000,467.570000Z" transform="matrix(1 0 0 1 -436.07518500999981 -126.43499999999966)" fill="rgb(64,59,59)" stroke="none" stroke-width="1"/><rect id="eyil7nf7hqe33" width="558.960000" height="63" rx="0" ry="0" transform="matrix(-1 0 -0 -1 1098.21481499000129 393.98500000000024)" fill="rgb(64,59,59)" stroke="none" stroke-width="1"/><g id="eyil7nf7hqe34"><polygon id="eyil7nf7hqe35" style="isolation:isolate" points="1004.170000,457.990000 1036.980000,518.960000 1048.830000,518.960000 1016.760000,457.990000 1004.170000,457.990000" transform="matrix(1 0 0 1 -436.07518500999981 -126.43499999999966)" opacity="0.2" fill="rgb(255,255,255)" stroke="none" stroke-width="1"/><polygon id="eyil7nf7hqe36" style="isolation:isolate" points="991.320000,458.850000 1024.200000,519.810000 1031.070000,519.810000 999,458.850000 991.320000,458.850000" transform="matrix(1 0 0 1 -436.07518500999981 -126.43499999999966)" opacity="0.2" fill="rgb(255,255,255)" stroke="none" stroke-width="1"/><polygon id="eyil7nf7hqe37" style="isolation:isolate" points="1476.650000,456.570000 1509.460000,517.540000 1521.310000,517.540000 1489.240000,456.570000 1476.650000,456.570000" transform="matrix(1 0 0 1 -436.07518500999981 -126.43499999999966)" opacity="0.2" fill="rgb(255,255,255)" stroke="none" stroke-width="1"/><polygon id="eyil7nf7hqe38" style="isolation:isolate" points="1463.800000,457.420000 1496.680000,518.390000 1503.550000,518.390000 1471.480000,457.420000 1463.800000,457.420000" transform="matrix(1 0 0 1 -436.07518500999981 -126.43499999999966)" opacity="0.2" fill="rgb(255,255,255)" stroke="none" stroke-width="1"/><polygon id="eyil7nf7hqe39" style="isolation:isolate" points="1384.240000,457.420000 1417.130000,518.390000 1423.990000,518.390000 1391.920000,457.420000 1384.240000,457.420000" transform="matrix(1 0 0 1 -436.07518500999981 -126.43499999999966)" opacity="0.2" fill="rgb(255,255,255)" stroke="none" stroke-width="1"/><polygon id="eyil7nf7hqe40" style="isolation:isolate" points="1149.950000,458.420000 1182.760000,519.390000 1194.600000,519.390000 1162.540000,458.420000 1149.950000,458.420000" transform="matrix(1 0 0 1 -436.07518500999981 -126.43499999999966)" opacity="0.2" fill="rgb(255,255,255)" stroke="none" stroke-width="1"/></g><g id="eyil7nf7hqe41" transform="matrix(1 0 0 1 -650 0)"><polygon id="eyil7nf7hqe42" style="isolation:isolate" points="1004.170000,457.990000 1036.980000,518.960000 1048.830000,518.960000 1016.760000,457.990000 1004.170000,457.990000" transform="matrix(1 0 0 1 -436.07518500999981 -126.43499999999966)" opacity="0" fill="rgb(255,255,255)" stroke="none" stroke-width="1"/><polygon id="eyil7nf7hqe43" style="isolation:isolate" points="991.320000,458.850000 1024.200000,519.810000 1031.070000,519.810000 999,458.850000 991.320000,458.850000" transform="matrix(1 0 0 1 -436.07518500999981 -126.43499999999966)" opacity="0" fill="rgb(255,255,255)" stroke="none" stroke-width="1"/><polygon id="eyil7nf7hqe44" style="isolation:isolate" points="1476.650000,456.570000 1509.460000,517.540000 1521.310000,517.540000 1489.240000,456.570000 1476.650000,456.570000" transform="matrix(1 0 0 1 -436.07518500999981 -126.43499999999966)" opacity="0" fill="rgb(255,255,255)" stroke="none" stroke-width="1"/><polygon id="eyil7nf7hqe45" style="isolation:isolate" points="1463.800000,457.420000 1496.680000,518.390000 1503.550000,518.390000 1471.480000,457.420000 1463.800000,457.420000" transform="matrix(1 0 0 1 -436.07518500999981 -126.43499999999966)" opacity="0" fill="rgb(255,255,255)" stroke="none" stroke-width="1"/><polygon id="eyil7nf7hqe46" style="isolation:isolate" points="1384.240000,457.420000 1417.130000,518.390000 1423.990000,518.390000 1391.920000,457.420000 1384.240000,457.420000" transform="matrix(1 0 0 1 -436.07518500999981 -126.43499999999966)" opacity="0" fill="rgb(255,255,255)" stroke="none" stroke-width="1"/><polygon id="eyil7nf7hqe47" style="isolation:isolate" points="1149.950000,458.420000 1182.760000,519.390000 1194.600000,519.390000 1162.540000,458.420000 1149.950000,458.420000" transform="matrix(1 0 0 1 -436.07518500999981 -126.43499999999966)" opacity="0" fill="rgb(255,255,255)" stroke="none" stroke-width="1"/></g><rect id="eyil7nf7hqe48" width="617.070000" height="7" rx="0" ry="0" transform="matrix(1 0 0 1 512.75481499000023 415.96500000000032)" fill="rgb(229,59,91)" stroke="none" stroke-width="1"/><path id="eyil7nf7hqe49" d="M963.830000,452.150000L963.830000,507C963.830000,517.244882,972.135118,525.550000,982.380000,525.550000L1523.280000,525.550000C1533.522596,525.544483,1541.824483,517.242596,1541.830000,507L1541.830000,452.150000ZM1457.830000,461.400000L1527.830000,461.400000L1527.830000,506.890000C1527.830000,512.140000,1524.190000,516.400000,1519.700000,516.400000L1466,516.400000C1461.510000,516.400000,1457.870000,512.140000,1457.870000,506.890000ZM1381.830000,461.400000L1451.830000,461.400000L1451.830000,506.890000C1451.830000,512.140000,1448.190000,516.400000,1443.700000,516.400000L1390,516.400000C1385.510000,516.400000,1381.870000,512.140000,1381.870000,506.890000ZM1305.830000,461.400000L1375.830000,461.400000L1375.830000,506.890000C1375.830000,512.140000,1372.190000,516.400000,1367.700000,516.400000L1314,516.400000C1309.510000,516.400000,1305.870000,512.140000,1305.870000,506.890000ZM1130.830000,461.400000L1200.830000,461.400000L1200.830000,506.890000C1200.830000,512.140000,1197.190000,516.400000,1192.700000,516.400000L1139,516.400000C1134.510000,516.400000,1130.870000,512.140000,1130.870000,506.890000ZM1054.830000,461.400000L1124.830000,461.400000L1124.830000,506.890000C1124.830000,512.140000,1121.190000,516.400000,1116.700000,516.400000L1063,516.400000C1058.510000,516.400000,1054.870000,512.140000,1054.870000,506.890000ZM978.830000,461.400000L1048.830000,461.400000L1048.830000,506.890000C1048.830000,512.140000,1045.190000,516.400000,1040.700000,516.400000L987,516.400000C982.510000,516.400000,978.870000,512.140000,978.870000,506.890000Z" transform="matrix(1 0 0 1 -436.07518500999981 -126.43499999999966)" fill="rgb(61,137,131)" stroke="none" stroke-width="1"/><rect id="eyil7nf7hqe50" width="50" height="127" rx="7.740000" ry="0" transform="matrix(1 0 0 1 462.75481499000023 325.96500000000032)" fill="rgb(64,59,59)" stroke="none" stroke-width="1"/><path id="eyil7nf7hqe51" d="M1292.060000,456.400000L1249.830000,456.400000L1249.830000,583.400000L1292.060000,583.400000C1294.119812,583.402654,1296.096168,582.586257,1297.553614,581.130687C1299.011060,579.675117,1299.830002,577.699814,1299.830000,575.640000L1299.830000,464.170000C1299.830000,462.109268,1299.011377,460.132938,1297.554220,458.675780C1296.097062,457.218623,1294.120732,456.400000,1292.060000,456.400000Z" transform="matrix(1 0 0 1 -436.07518500999981 -126.43499999999966)" fill="rgb(64,59,59)" stroke="none" stroke-width="1"/><path id="eyil7nf7hqe52" d="M1256.830000,456.400000L1214.590000,456.400000C1212.530186,456.399998,1210.554883,457.218940,1209.099313,458.676386C1207.643743,460.133832,1206.827346,462.110188,1206.830000,464.170000L1206.830000,575.640000C1206.827342,577.698894,1207.644057,579.674225,1209.099916,581.130084C1210.555775,582.585943,1212.531106,583.402658,1214.590000,583.400000L1256.830000,583.400000Z" transform="matrix(1 0 0 1 -436.07518500999981 -126.43499999999966)" fill="rgb(64,59,59)" stroke="none" stroke-width="1"/><circle id="eyil7nf7hqe53" r="6.500000" transform="matrix(1 0 0 1 539.25481499000023 407.46500000000032)" fill="rgb(61,137,131)" stroke="none" stroke-width="1"/><circle id="eyil7nf7hqe54" r="3.500000" transform="matrix(1 0 0 1 539.25481499000023 407.46500000000032)" fill="rgb(229,59,91)" stroke="none" stroke-width="1"/><circle id="eyil7nf7hqe55" r="6.500000" transform="matrix(1 0 0 1 879.25481499000011 407.46500000000032)" fill="rgb(61,137,131)" stroke="none" stroke-width="1"/><circle id="eyil7nf7hqe56" r="3.500000" transform="matrix(1 0 0 1 879.25481499000011 407.46500000000032)" fill="rgb(229,59,91)" stroke="none" stroke-width="1"/><rect id="eyil7nf7hqe57" width="9" height="128" rx="0" ry="0" transform="matrix(-1 0 -0 -1 820.75481499000125 456.97500000000008)" fill="rgb(61,137,131)" stroke="none" stroke-width="1"/></g><g id="eyil7nf7hqe58"><circle id="eyil7nf7hqe59" r="25.630000" transform="matrix(1 0 0 1 581.41481499000020 455.91500000000036)" fill="rgb(64,59,59)" stroke="none" stroke-width="1"/><circle id="eyil7nf7hqe60" style="isolation:isolate" r="14.870000" transform="matrix(1 0 0 1 581.41481499000020 455.91500000000036)" opacity="0.3" fill="rgb(255,255,255)" stroke="none" stroke-width="1"/><circle id="eyil7nf7hqe61" r="25.630000" transform="matrix(1 0 0 1 942.41481499000020 455.91500000000036)" fill="rgb(64,59,59)" stroke="none" stroke-width="1"/><circle id="eyil7nf7hqe62" style="isolation:isolate" r="14.870000" transform="matrix(1 0 0 1 942.41481499000020 455.91500000000036)" opacity="0.3" fill="rgb(255,255,255)" stroke="none" stroke-width="1"/></g><g id="eyil7nf7hqe63" transform="matrix(1 0 0 1 35.80000000000000 -85.14345825000032)"><path id="eyil7nf7hqe64" d="M792.600000,485.070000C752.910000,484.740000,726.330000,536.660000,718.600000,569.070000C715.420000,582.440000,703.330000,633.150000,737.600000,665.070000C766.890000,692.340000,817.870000,694.580000,847.600000,668.070000C881.490000,637.850000,869.330000,586.730000,865.600000,571.070000C858.350000,540.580000,833.360000,485.400000,792.600000,485.070000" transform="matrix(1 0 0 1 -967.91898700000013 2.94499999999846)" fill="rgb(97,140,119)" stroke="none" stroke-width="1"/><path id="eyil7nf7hqe65" d="M790.600000,485.070000C790.600000,485.070000,675.600000,627.070000,791.600000,687.070000C791.600000,687.070000,733.010000,687.070000,716.600000,629.070000C713.930000,621.460000,708.600000,575.350000,731.600000,533.070000C748,502.900000,766.600000,487.070000,790.600000,485.070000" transform="matrix(1 0 0 1 -967.91898700000013 2.94499999999846)" opacity="0.49" fill="rgb(197,214,198)" stroke="none" stroke-width="1"/><path id="eyil7nf7hqe66" d="M793.100000,745.570000C792.275462,745.570018,791.605497,744.904519,791.600000,744.080000L789.600000,533.580000C789.597339,533.182173,789.752828,532.799583,790.032259,532.516401C790.311690,532.233219,790.692172,532.072643,791.090000,532.070000C791.487692,532.061937,791.871889,532.214298,792.155966,532.492731C792.440042,532.771163,792.600082,533.152226,792.600000,533.550000L794.600000,744.050000C794.605340,744.447835,794.452403,744.831494,794.174842,745.116557C793.897280,745.401620,793.517836,745.564731,793.120000,745.570000Z" transform="matrix(1 0 0 1 -967.91898700000013 2.94499999999846)" fill="rgb(232,58,90)" stroke="none" stroke-width="1"/><path id="eyil7nf7hqe67" d="M772.770000,560.540000C766.290000,560.540000,759.770000,559.470000,755.770000,555.920000C752.710000,553.180000,751.490000,549.340000,752.150000,544.490000C752.260457,543.661573,753.021573,543.079543,753.850000,543.190000C754.678427,543.300457,755.260457,544.061573,755.150000,544.890000C754.630000,548.740000,755.500000,551.620000,757.800000,553.680000C766.370000,561.350000,791.050000,555.280000,791.300000,555.220000C792.103574,555.018416,792.918416,555.506426,793.120000,556.310000C793.321584,557.113574,792.833574,557.928416,792.030000,558.130000C785.717062,559.633100,779.258663,560.441238,772.770000,560.540000Z" transform="matrix(1 0 0 1 -967.91898700000013 2.94499999999846)" fill="rgb(232,58,90)" stroke="none" stroke-width="1"/><path id="eyil7nf7hqe68" d="M764.430000,632.420000C753.710000,632.420000,742.810000,630.990000,737.850000,625.920000C735.346229,623.388540,734.342046,619.735586,735.200000,616.280000C735.360163,615.465380,736.150380,614.934837,736.965000,615.095000C737.779620,615.255163,738.310163,616.045380,738.150000,616.860000C737.473593,619.354512,738.174376,622.020536,739.990000,623.860000C749.990000,634.130000,790.990000,627.180000,791.350000,627.110000C792.178427,626.969167,792.964167,627.526573,793.105000,628.355000C793.245833,629.183427,792.688427,629.969167,791.860000,630.110000C782.788920,631.578101,773.618850,632.350353,764.430000,632.420000Z" transform="matrix(1 0 0 1 -967.91898700000013 2.94499999999846)" fill="rgb(232,58,90)" stroke="none" stroke-width="1"/><path id="eyil7nf7hqe69" d="M820.620000,589.630000C811.429102,589.533900,802.259019,588.734902,793.190000,587.240000C792.361573,587.099167,791.804167,586.313427,791.945000,585.485000C792.085833,584.656573,792.871573,584.099167,793.700000,584.240000C794.120000,584.310000,835.010000,591.240000,845.060000,580.990000C846.870129,579.147409,847.570085,576.484533,846.900000,573.990000C846.742599,573.161573,847.286573,572.362401,848.115000,572.205000C848.943427,572.047599,849.742599,572.591573,849.900000,573.420000C850.758268,576.872506,849.753808,580.522676,847.250000,583.050000C842.240000,588.200000,831.340000,589.630000,820.620000,589.630000Z" transform="matrix(1 0 0 1 -967.91898700000013 2.94499999999846)" fill="rgb(232,58,90)" stroke="none" stroke-width="1"/></g><g id="eyil7nf7hqe70"><path id="eyil7nf7hqe71" d="M435.200000,306.260000C408.750000,306,391,350.310000,385.880000,378C383.760000,389.410000,375.700000,432.710000,398.540000,460C418.060000,483.290000,452.040000,485.200000,471.850000,462.560000C494.430000,436.760000,486.330000,393.110000,483.850000,379.740000C479.020000,353.740000,462.370000,306.600000,435.210000,306.320000" transform="matrix(1 0 0 1 -967.91898700000013 2.94499999999846)" fill="rgb(231,58,90)" stroke="none" stroke-width="1"/><path id="eyil7nf7hqe72" d="M433.920000,306.130000C433.920000,306.130000,357.280000,427.370000,434.590000,478.600000C434.590000,478.600000,395.590000,478.600000,384.590000,429.080000C382.810000,422.590000,379.270000,383.220000,394.590000,347.080000C405.520000,321.320000,417.920000,307.800000,433.910000,306.080000" transform="matrix(1 0 0 1 -967.91898700000013 2.94499999999846)" opacity="0.49" fill="rgb(197,214,198)" stroke="none" stroke-width="1"/><path id="eyil7nf7hqe73" d="M435.530000,528.670000C434.908029,528.586827,434.464958,528.024128,434.530000,527.400000L433.200000,347.680000C433.123263,347.048552,433.569357,346.473091,434.200000,346.390000C434.740000,346.390000,435.200000,346.950000,435.200000,347.650000L436.530000,527.380000C436.601168,528.009898,436.157754,528.581902,435.530000,528.670000Z" transform="matrix(1 0 0 1 -967.91898700000013 2.94499999999846)" fill="rgb(97,140,119)" stroke="none" stroke-width="1"/><path id="eyil7nf7hqe74" d="M422,370.690000C417.680000,370.690000,413.300000,369.780000,410.650000,366.750000C408.650000,364.410000,407.800000,361.130000,408.240000,356.990000C408.310000,356.290000,408.810000,355.790000,409.360000,355.900000C409.973949,356.087897,410.345702,356.710367,410.220000,357.340000C409.870000,360.620000,410.450000,363.080000,411.980000,364.840000C417.700000,371.380000,434.140000,366.200000,434.310000,366.150000C434.840000,365.980000,435.390000,366.390000,435.520000,367.080000C435.686179,367.705461,435.378030,368.359748,434.790000,368.630000C430.642516,369.905136,426.338111,370.598417,422,370.690000Z" transform="matrix(1 0 0 1 -967.91898700000013 2.94499999999846)" fill="rgb(97,140,119)" stroke="none" stroke-width="1"/><path id="eyil7nf7hqe75" d="M416.420000,432.060000C409.280000,432.060000,402.010000,430.840000,398.700000,426.520000C396.991469,424.142069,396.353477,421.158732,396.940000,418.290000C397.050000,417.590000,397.580000,417.150000,398.110000,417.290000C398.714164,417.518961,399.052977,418.162277,398.900000,418.790000C398.453996,420.854860,398.900687,423.012049,400.130000,424.730000C406.830000,433.500000,434.080000,427.570000,434.360000,427.510000C434.900000,427.390000,435.420000,427.860000,435.510000,428.510000C435.649331,429.136652,435.302929,429.769585,434.700000,429.990000C428.688820,431.274899,422.566285,431.968206,416.420000,432.060000Z" transform="matrix(1 0 0 1 -967.91898700000013 2.94499999999846)" fill="rgb(97,140,119)" stroke="none" stroke-width="1"/><path id="eyil7nf7hqe76" d="M453.860000,395.530000C447.719290,395.461730,441.600048,394.791862,435.590000,393.530000C434.986125,393.309845,434.636452,392.678727,434.770000,392.050000C434.870000,391.360000,435.380000,390.880000,435.930000,391.050000C436.200000,391.110000,463.460000,397.050000,470.150000,388.270000C471.384019,386.554113,471.831143,384.394835,471.380000,382.330000C471.236251,381.703448,471.572022,381.065909,472.170000,380.830000C472.710000,380.690000,473.240000,381.140000,473.340000,381.830000C473.931530,384.698753,473.293109,387.684098,471.580000,390.060000C468.280000,394.310000,461,395.530000,453.860000,395.530000Z" transform="matrix(1 0 0 1 -967.91898700000013 2.94499999999846)" fill="rgb(97,140,119)" stroke="none" stroke-width="1"/></g><g id="eyil7nf7hqe77" transform="matrix(1 0 0 1 -558.58966299999975 11.42290760499998)"><path id="eyil7nf7hqe78" d="M287.110000,364.880000C266.110000,364.600000,252.060000,409.700000,247.980000,437.880000C246.290000,449.490000,239.900000,493.550000,257.980000,521.280000C273.460000,544.970000,300.430000,546.910000,316.150000,523.880000C334.070000,497.630000,327.640000,453.220000,325.670000,439.620000C321.830000,413.130000,308.620000,365.190000,287.060000,364.900000" transform="matrix(1 0 0 1 -89.74408300000005 19.04506171999822)" fill="rgb(97,140,119)" stroke="none" stroke-width="1"/><path id="eyil7nf7hqe79" d="M286.060000,364.880000C286.060000,364.880000,225.240000,488.250000,286.580000,540.370000C286.580000,540.370000,255.580000,540.370000,246.920000,489.980000C245.510000,483.370000,242.700000,443.310000,254.850000,406.580000C263.520000,380.380000,273.360000,366.580000,286.060000,364.880000" transform="matrix(1 0 0 1 -89.74408300000005 19.04506171999822)" opacity="0.49" fill="rgb(197,214,198)" stroke="none" stroke-width="1"/><path id="eyil7nf7hqe80" d="M287.380000,591.190000C286.940000,591.190000,286.590000,590.620000,286.580000,589.900000L285.530000,407C285.530000,406.280000,285.870000,405.690000,286.310000,405.680000C286.750000,405.670000,287.110000,406.260000,287.110000,406.970000L288.170000,589.850000C288.170000,590.570000,287.820000,591.160000,287.390000,591.160000Z" transform="matrix(1 0 0 1 -89.74408300000005 19.04506171999822)" fill="rgb(232,58,90)" stroke="none" stroke-width="1"/><path id="eyil7nf7hqe81" d="M276.620000,430.450000C273.200000,430.450000,269.720000,429.520000,267.620000,426.450000C266,424.080000,265.360000,420.740000,265.700000,416.530000C265.760000,415.810000,266.160000,415.310000,266.590000,415.410000C267.020000,415.510000,267.330000,416.160000,267.270000,416.880000C267,420.220000,267.460000,422.720000,268.680000,424.510000C273.210000,431.170000,286.260000,425.900000,286.390000,425.840000C286.820000,425.670000,287.250000,426.090000,287.390000,426.790000C287.543243,427.383782,287.317036,428.010812,286.820000,428.370000C283.566607,429.650469,280.114999,430.354326,276.620000,430.450000Z" transform="matrix(1 0 0 1 -89.74408300000005 19.04506171999822)" fill="rgb(232,58,90)" stroke="none" stroke-width="1"/><path id="eyil7nf7hqe82" d="M272.220000,492.890000C266.540000,492.890000,260.780000,491.650000,258.150000,487.250000C256.769716,484.691882,256.277319,481.748052,256.750000,478.880000C256.840000,478.170000,257.260000,477.710000,257.690000,477.880000C258.120000,478.050000,258.400000,478.700000,258.310000,479.410000C257.956115,481.481748,258.308276,483.612320,259.310000,485.460000C264.620000,494.380000,286.250000,488.340000,286.470000,488.280000C286.900000,488.150000,287.310000,488.630000,287.390000,489.340000C287.470000,490.050000,287.170000,490.720000,286.740000,490.850000C282.001441,492.120269,277.125136,492.805370,272.220000,492.890000Z" transform="matrix(1 0 0 1 -89.74408300000005 19.04506171999822)" fill="rgb(232,58,90)" stroke="none" stroke-width="1"/><path id="eyil7nf7hqe83" d="M301.930000,455.720000C297.027076,455.623565,292.154303,454.928414,287.420000,453.650000C286.990000,453.530000,286.700000,452.850000,286.780000,452.140000C286.860000,451.430000,287.260000,450.950000,287.690000,451.080000C287.910000,451.140000,309.540000,457.170000,314.860000,448.260000C315.856562,446.410554,316.208429,444.281759,315.860000,442.210000C315.780000,441.500000,316.060000,440.810000,316.490000,440.680000C316.920000,440.550000,317.330000,441,317.420000,441.680000C317.892681,444.548052,317.400284,447.491882,316.020000,450.050000C313.360000,454.480000,307.600000,455.720000,301.930000,455.720000Z" transform="matrix(1 0 0 1 -89.74408300000005 19.04506171999822)" fill="rgb(232,58,90)" stroke="none" stroke-width="1"/></g><g id="eyil7nf7hqe84" transform="matrix(1 0 0 1 182.10455781499999 -12.78001952999978)"><path id="eyil7nf7hqe85" d="M546.280000,541.560000C513.790000,541.300000,492.020000,583.800000,485.700000,610.340000C483.090000,621.280000,473.190000,662.800000,501.250000,688.940000C525.250000,711.270000,566.970000,713.100000,591.310000,691.390000C619.060000,666.650000,609.100000,624.800000,606.050000,611.980000C600.110000,586.980000,579.650000,541.840000,546.280000,541.560000" transform="matrix(1 0 0 1 -967.91898700000013 2.94499999999846)" fill="rgb(231,58,90)" stroke="none" stroke-width="1"/><path id="eyil7nf7hqe86" d="M544.720000,541.450000C544.720000,541.450000,450.560000,657.710000,545.540000,706.830000C545.540000,706.830000,497.540000,706.830000,484.130000,659.340000C481.940000,653.110000,477.600000,615.340000,496.410000,580.750000C509.840000,556.050000,525.070000,543.080000,544.720000,541.450000" transform="matrix(1 0 0 1 -967.91898700000013 2.94499999999846)" opacity="0.49" fill="rgb(197,214,198)" stroke="none" stroke-width="1"/><path id="eyil7nf7hqe87" d="M546.690000,754.850000C546.016797,754.844658,545.470837,754.303136,545.460000,753.630000L543.830000,581.280000C543.788028,580.815925,544.011901,580.367976,544.408256,580.122965C544.804612,579.877955,545.305388,579.877955,545.701744,580.122965C546.098099,580.367976,546.321972,580.815925,546.280000,581.280000L547.920000,753.630000C547.920088,754.307098,547.377010,754.859079,546.700000,754.870000Z" transform="matrix(1 0 0 1 -967.91898700000013 2.94499999999846)" fill="rgb(97,140,119)" stroke="none" stroke-width="1"/><path id="eyil7nf7hqe88" d="M530,603.350000C524.700000,603.350000,519.320000,602.480000,516.060000,599.570000C513.560000,597.330000,512.560000,594.180000,513.060000,590.220000C513.153149,589.544629,513.774052,589.071135,514.450000,589.160000C515.119873,589.253102,515.588916,589.869559,515.500000,590.540000C515.070000,593.700000,515.780000,596.050000,517.670000,597.740000C524.670000,604.010000,544.890000,599.050000,545.100000,599C545.539080,598.852802,546.023623,598.964698,546.353699,599.289519C546.683775,599.614340,546.803432,600.097025,546.663298,600.538410C546.523164,600.979796,546.146993,601.305063,545.690000,601.380000C540.546762,602.602859,535.285904,603.263400,530,603.350000Z" transform="matrix(1 0 0 1 -967.91898700000013 2.94499999999846)" fill="rgb(97,140,119)" stroke="none" stroke-width="1"/><path id="eyil7nf7hqe89" d="M523.220000,662.200000C514.440000,662.200000,505.510000,661.030000,501.450000,656.880000C499.402726,654.806943,498.580790,651.818427,499.280000,648.990000C499.406511,648.314908,500.054014,647.868353,500.730000,647.990000C501.054805,648.045926,501.343577,648.229865,501.531571,648.500576C501.719564,648.771287,501.791050,649.106119,501.730000,649.430000C501.196816,651.466436,501.769851,653.633342,503.240000,655.140000C511.470000,663.540000,544.950000,657.860000,545.240000,657.800000C545.684059,657.697146,546.148588,657.848297,546.447094,658.192769C546.745600,658.537242,546.829132,659.018548,546.664156,659.443460C546.499179,659.868372,546.112748,660.167210,545.660000,660.220000C538.240580,661.444515,530.739207,662.106401,523.220000,662.200000Z" transform="matrix(1 0 0 1 -967.91898700000013 2.94499999999846)" fill="rgb(97,140,119)" stroke="none" stroke-width="1"/><path id="eyil7nf7hqe90" d="M569.220000,627.170000C561.694644,627.091988,554.186199,626.440097,546.760000,625.220000C546.092346,625.103058,545.645132,624.468014,545.760000,623.800000C545.813669,623.478066,545.994095,623.191059,546.260942,623.003138C546.527790,622.815217,546.858808,622.742053,547.180000,622.800000C547.520000,622.860000,581,628.540000,589.230000,620.140000C590.700149,618.633342,591.273184,616.466436,590.740000,614.430000C590.678950,614.106119,590.750436,613.771287,590.938429,613.500576C591.126423,613.229865,591.415195,613.045926,591.740000,612.990000C592.413746,612.868686,593.058335,613.316317,593.180000,613.990000C593.881771,616.816680,593.063695,619.804930,591.020000,621.880000C586.920000,626,578,627.170000,569.220000,627.170000Z" transform="matrix(1 0 0 1 -967.91898700000013 2.94499999999846)" fill="rgb(97,140,119)" stroke="none" stroke-width="1"/></g></g><script><![CDATA[!function(t,n){"object"==typeof exports&&"undefined"!=typeof module?module.exports=n():"function"==typeof define&&define.amd?define(n):(t=t||self).__SVGATOR_PLAYER__=n()}(this,(function(){"use strict";function t(n){return(t="function"==typeof Symbol&&"symbol"==typeof Symbol.iterator?function(t){return typeof t}:function(t){return t&&"function"==typeof Symbol&&t.constructor===Symbol&&t!==Symbol.prototype?"symbol":typeof t})(n)}function n(t,n){if(!(t instanceof n))throw new TypeError("Cannot call a class as a function")}function r(t,n){for(var r=0;r<n.length;r++){var e=n[r];e.enumerable=e.enumerable||!1,e.configurable=!0,"value"in e&&(e.writable=!0),Object.defineProperty(t,e.key,e)}}function e(t,n,e){return n&&r(t.prototype,n),e&&r(t,e),t}var i=1e-5,u=Math.abs;function o(t){return t}function a(t,n,r){var e=1-r;return 3*r*e*(t*e+n*r)+r*r*r}function l(){var t=arguments.length>0&&void 0!==arguments[0]?arguments[0]:0,n=arguments.length>1&&void 0!==arguments[1]?arguments[1]:0,r=arguments.length>2&&void 0!==arguments[2]?arguments[2]:1,e=arguments.length>3&&void 0!==arguments[3]?arguments[3]:1;return t<0||t>1||r<0||r>1?null:u(t-n)<=i&&u(r-e)<=i?o:function(o){if(o<=0)return t>0?o*n/t:0===n&&r>0?o*e/r:0;if(o>=1)return r<1?1+(o-1)*(e-1)/(r-1):1===r&&t<1?1+(o-1)*(n-1)/(t-1):1;for(var l,f=0,s=1;f<s;){var c=a(t,r,l=(f+s)/2);if(u(o-c)<i)break;c<o?f=l:s=l}return a(n,e,l)}}function f(){return 1}function s(t){return 1===t?1:0}function c(){var t=arguments.length>0&&void 0!==arguments[0]?arguments[0]:1,n=arguments.length>1&&void 0!==arguments[1]?arguments[1]:0;if(1===t){if(0===n)return s;if(1===n)return f}var r=1/t;return function(t){return t>=1?1:(t+=n*r)-t%r}}function v(t){var n=arguments.length>1&&void 0!==arguments[1]?arguments[1]:2;if(Number.isInteger(t))return t;var r=Math.pow(10,n);return Math.round(t*r)/r}var h=Math.PI/180;function y(t,n,r){return t>=.5?r:n}function d(t,n,r){return 0===t||n===r?n:t*(r-n)+n}function g(t,n,r){var e=d(t,n,r);return e<=0?0:e}function m(t,n,r){return 0===t?n:1===t?r:{x:d(t,n.x,r.x),y:d(t,n.y,r.y)}}function p(t,n,r){return 0===t?n:1===t?r:{x:g(t,n.x,r.x),y:g(t,n.y,r.y)}}function b(t,n,r){var e=function(t,n,r){return Math.round(d(t,n,r))}(t,n,r);return e<=0?0:e>=255?255:e}function w(t,n,r){return 0===t?n:1===t?r:{r:b(t,n.r,r.r),g:b(t,n.g,r.g),b:b(t,n.b,r.b),a:d(t,null==n.a?1:n.a,null==r.a?1:r.a)}}function A(t,n,r){if(0===t)return n;if(1===t)return r;var e=n.length;if(e!==r.length)return y(t,n,r);for(var i=[],u=0;u<e;u++)i.push(w(t,n[u],r[u]));return i}function x(t,n,r){var e=n.length;if(e!==r.length)return y(t,n,r);for(var i=new Array(e),u=0;u<e;u++)i[u]=d(t,n[u],r[u]);return i}function k(t,n){for(var r=[],e=0;e<t;e++)r.push(n);return r}function S(t,n){if(--n<=0)return t;var r=(t=Object.assign([],t)).length;do{for(var e=0;e<r;e++)t.push(t[e])}while(--n>0);return t}var _=6,M=/\.0+$/g;function I(t){return Number.isInteger(t)?t+"":t.toFixed(_).replace(M,"")}function E(t){var n=arguments.length>1&&void 0!==arguments[1]?arguments[1]:" ";return t&&t.length?t.map(I).join(n):""}function F(t){return I(t.x)+","+I(t.y)}function B(t){return t?null==t.a||t.a>=1?"rgb("+t.r+","+t.g+","+t.b+")":"rgba("+t.r+","+t.g+","+t.b+","+t.a+")":"transparent"}var j={f:null,i:p,u:function(t,n){return function(r){var e=n(r);t.setAttribute("rx",I(e.x)),t.setAttribute("ry",I(e.y))}}},q={f:null,i:function(t,n,r){return 0===t?n:1===t?r:{width:g(t,n.width,r.width),height:g(t,n.height,r.height)}},u:function(t,n){return function(r){var e=n(r);t.setAttribute("width",I(e.width)),t.setAttribute("height",I(e.height))}}},P=Math.sin,O=Math.cos,z=Math.acos,L=Math.asin,C=Math.tan,R=Math.atan2,T=Math.PI/180,V=180/Math.PI,D=Math.sqrt,N=function(){function t(){var r=arguments.length>0&&void 0!==arguments[0]?arguments[0]:1,e=arguments.length>1&&void 0!==arguments[1]?arguments[1]:0,i=arguments.length>2&&void 0!==arguments[2]?arguments[2]:0,u=arguments.length>3&&void 0!==arguments[3]?arguments[3]:1,o=arguments.length>4&&void 0!==arguments[4]?arguments[4]:0,a=arguments.length>5&&void 0!==arguments[5]?arguments[5]:0;n(this,t),this.m=[r,e,i,u,o,a],this.i=null,this.w=null,this.s=null}return e(t,[{key:"point",value:function(t,n){var r=this.m;return{x:r[0]*t+r[2]*n+r[4],y:r[1]*t+r[3]*n+r[5]}}},{key:"translateSelf",value:function(){var t=arguments.length>0&&void 0!==arguments[0]?arguments[0]:0,n=arguments.length>1&&void 0!==arguments[1]?arguments[1]:0;if(!t&&!n)return this;var r=this.m;return r[4]+=r[0]*t+r[2]*n,r[5]+=r[1]*t+r[3]*n,this.w=this.s=this.i=null,this}},{key:"rotateSelf",value:function(){var t=arguments.length>0&&void 0!==arguments[0]?arguments[0]:0;if(t%=360){var n=P(t*=T),r=O(t),e=this.m,i=e[0],u=e[1];e[0]=i*r+e[2]*n,e[1]=u*r+e[3]*n,e[2]=e[2]*r-i*n,e[3]=e[3]*r-u*n,this.w=this.s=this.i=null}return this}},{key:"scaleSelf",value:function(){var t=arguments.length>0&&void 0!==arguments[0]?arguments[0]:1,n=arguments.length>1&&void 0!==arguments[1]?arguments[1]:1;if(1!==t||1!==n){var r=this.m;r[0]*=t,r[1]*=t,r[2]*=n,r[3]*=n,this.w=this.s=this.i=null}return this}},{key:"skewSelf",value:function(t,n){if(n%=360,(t%=360)||n){var r=this.m,e=r[0],i=r[1],u=r[2],o=r[3];t&&(t=C(t*T),r[2]+=e*t,r[3]+=i*t),n&&(n=C(n*T),r[0]+=u*n,r[1]+=o*n),this.w=this.s=this.i=null}return this}},{key:"resetSelf",value:function(){var t=arguments.length>0&&void 0!==arguments[0]?arguments[0]:1,n=arguments.length>1&&void 0!==arguments[1]?arguments[1]:0,r=arguments.length>2&&void 0!==arguments[2]?arguments[2]:0,e=arguments.length>3&&void 0!==arguments[3]?arguments[3]:1,i=arguments.length>4&&void 0!==arguments[4]?arguments[4]:0,u=arguments.length>5&&void 0!==arguments[5]?arguments[5]:0,o=this.m;return o[0]=t,o[1]=n,o[2]=r,o[3]=e,o[4]=i,o[5]=u,this.w=this.s=this.i=null,this}},{key:"recomposeSelf",value:function(){var t=arguments.length>0&&void 0!==arguments[0]?arguments[0]:null,n=arguments.length>1&&void 0!==arguments[1]?arguments[1]:null,r=arguments.length>2&&void 0!==arguments[2]?arguments[2]:null,e=arguments.length>3&&void 0!==arguments[3]?arguments[3]:null,i=arguments.length>4&&void 0!==arguments[4]?arguments[4]:null;return this.isIdentity||this.resetSelf(),t&&(t.x||t.y)&&this.translateSelf(t.x,t.y),n&&this.rotateSelf(n),r&&(r.x&&this.skewSelf(r.x,0),r.y&&this.skewSelf(0,r.y)),!e||1===e.x&&1===e.y||this.scaleSelf(e.x,e.y),i&&(i.x||i.y)&&this.translateSelf(i.x,i.y),this}},{key:"decompose",value:function(){var t=arguments.length>0&&void 0!==arguments[0]?arguments[0]:0,n=arguments.length>1&&void 0!==arguments[1]?arguments[1]:0,r=this.m,e=r[0]*r[0]+r[1]*r[1],i=[[r[0],r[1]],[r[2],r[3]]],u=D(e);if(0===u)return{origin:{x:r[4],y:r[5]},translate:{x:t,y:n},scale:{x:0,y:0},skew:{x:0,y:0},rotate:0};i[0][0]/=u,i[0][1]/=u;var o=r[0]*r[3]-r[1]*r[2]<0;o&&(u=-u);var a=i[0][0]*i[1][0]+i[0][1]*i[1][1];i[1][0]-=i[0][0]*a,i[1][1]-=i[0][1]*a;var l=D(i[1][0]*i[1][0]+i[1][1]*i[1][1]);if(0===l)return{origin:{x:r[4],y:r[5]},translate:{x:t,y:n},scale:{x:u,y:0},skew:{x:0,y:0},rotate:0};i[1][0]/=l,i[1][1]/=l,a/=l;var f=0;return i[1][1]<0?(f=z(i[1][1])*V,i[0][1]<0&&(f=360-f)):f=L(i[0][1])*V,o&&(f=-f),a=R(a,D(i[0][0]*i[0][0]+i[0][1]*i[0][1]))*V,{origin:{x:r[4],y:r[5]},translate:{x:t,y:n},scale:{x:u,y:l},skew:{x:a,y:0},rotate:f}}},{key:"toString",value:function(){return null===this.s&&(this.s="matrix("+this.m.map($).join(" ")+")"),this.s}},{key:"determinant",get:function(){var t=this.m;return t[0]*t[3]-t[1]*t[2]}},{key:"isIdentity",get:function(){if(null===this.i){var t=this.m;this.i=1===t[0]&&0===t[1]&&0===t[2]&&1===t[3]&&0===t[4]&&0===t[5]}return this.i}}]),t}(),G=/\.0+$/;function $(t){return Number.isInteger(t)?t:t.toFixed(14).replace(G,"")}Object.freeze({M:2,L:2,Z:0,H:1,V:1,C:6,Q:4,T:2,S:4,A:7});function H(t,n,r){return t+(n-t)*r}function Q(t,n,r){var e=arguments.length>3&&void 0!==arguments[3]&&arguments[3],i={x:H(t.x,n.x,r),y:H(t.y,n.y,r)};return e&&(i.a=function(t,n){return Math.atan2(n.y-t.y,n.x-t.x)}(t,n)),i}function U(t,n,r,e){var i=1-e;return i*i*t+2*i*e*n+e*e*r}function Y(t,n,r,e){return 2*(1-e)*(n-t)+2*e*(r-n)}function Z(t,n,r,e){var i=arguments.length>4&&void 0!==arguments[4]&&arguments[4],u={x:U(t.x,n.x,r.x,e),y:U(t.y,n.y,r.y,e)};return i&&(u.a=function(t,n,r,e){return Math.atan2(Y(t.y,n.y,r.y,e),Y(t.x,n.x,r.x,e))}(t,n,r,e)),u}function J(t,n,r,e,i){var u=i*i;return i*u*(e-t+3*(n-r))+3*u*(t+r-2*n)+3*i*(n-t)+t}function K(t,n,r,e,i){var u=1-i;return 3*(u*u*(n-t)+2*u*i*(r-n)+i*i*(e-r))}function W(t,n,r,e,i){var u=arguments.length>5&&void 0!==arguments[5]&&arguments[5],o={x:J(t.x,n.x,r.x,e.x,i),y:J(t.y,n.y,r.y,e.y,i)};return u&&(o.a=function(t,n,r,e,i){return Math.atan2(K(t.y,n.y,r.y,e.y,i),K(t.x,n.x,r.x,e.x,i))}(t,n,r,e,i)),o}function X(t,n,r){var e,i=arguments.length>3&&void 0!==arguments[3]&&arguments[3];if(nt(n)){if(null!=(e=r).start&&!nt(e))return Z(n,r.start,r,t,i)}else if(nt(r)){if(n.end)return Z(n,n.end,r,t,i)}else{if(n.end)return r.start?W(n,n.end,r.start,r,t,i):Z(n,n.end,r,t,i);if(r.start)return Z(n,r.start,r,t,i)}return Q(n,r,t,i)}function tt(t,n,r){var e=X(t,n,r,!0);return e.a=function(t){return arguments.length>1&&void 0!==arguments[1]&&arguments[1]?t+Math.PI:t}(e.a)/h,e}function nt(t){return!t.type||"corner"===t.type}var rt=new N;var et={f:function(t){return t?t.join(" "):""},i:function(n,r,e){if(0===n)return r;if(1===n)return e;var i=r.length;if(i!==e.length)return y(n,r,e);for(var u,o=new Array(i),a=0;a<i;a++){if((u=t(r[a]))!==t(e[a]))return y(n,r,e);if("number"===u)o[a]=d(n,r[a],e[a]);else{if(r[a]!==e[a])return y(n,r,e);o[a]=r[a]}}return o}},it={f:null,i:x,u:function(t,n){return function(r){var e=n(r);t.setAttribute("x1",I(e[0])),t.setAttribute("y1",I(e[1])),t.setAttribute("x2",I(e[2])),t.setAttribute("y2",I(e[3]))}}},ut={f:I,i:d},ot={f:I,i:function(t,n,r){var e=d(t,n,r);return e<=0?0:e>=1?1:e}},at={f:E,i:function(t,n,r){var e,i,u,o=n.length,a=r.length;if(o!==a)if(0===o)n=k(o=a,0);else if(0===a)a=o,r=k(o,0);else{var l=(u=(e=o)*(i=a)/function(t,n){for(var r;n;)r=n,n=t%n,t=r;return t||1}(e,i))<0?-u:u;n=S(n,Math.floor(l/o)),r=S(r,Math.floor(l/a)),o=a=l}for(var f=[],s=0;s<o;s++)f.push(v(g(t,n[s],r[s]),6));return f}};function lt(t,n,r,e,i,u,o,a){return n=function(t,n,r){for(var e,i,u,o=t.length-1,a={},l=0;l<=o;l++)(e=t[l]).e&&(e.e=n(e.e)),e.v&&"g"===(i=e.v).t&&i.r&&(u=r.getElementById(i.r))&&(a[i.r]=u.querySelectorAll("stop"));return a}(t,e,a),function(e){var i,u=r(e,t,ft);return u?"c"===u.t?B(u.v):"g"===u.t?(n[u.r]&&function(t,n){for(var r=0,e=t.length;r<e;r++)t[r].setAttribute("stop-color",B(n[r]))}(n[u.r],u.v),(i=u.r)?"url(#"+i+")":"none"):"none":"none"}}function ft(t,n,r){if(0===t)return n;if(1===t)return r;if(n&&r){var e=n.t;if(e===r.t)switch(n.t){case"c":return{t:e,v:w(t,n.v,r.v)};case"g":if(n.r===r.r)return{t:e,v:A(t,n.v,r.v),r:n.r}}}return y(t,n,r)}var st={blur:p,brightness:g,contrast:g,"drop-shadow":function(t,n,r){return 0===t?n:1===t?r:{blur:p(t,n.blur,r.blur),offset:m(t,n.offset,r.offset),color:w(t,n.color,r.color)}},grayscale:g,"hue-rotate":d,invert:g,opacity:g,saturate:g,sepia:g};function ct(t,n,r){if(0===t)return n;if(1===t)return r;var e=n.length;if(e!==r.length)return y(t,n,r);for(var i,u=[],o=0;o<e;o++){if(n[o].type!==r[o].type)return n;if(!(i=st[n[o].type]))return y(t,n,r);u.push({type:n.type,value:i(t,n[o].value,r[o].value)})}return u}var vt={blur:function(t){return t?function(n){t.setAttribute("stdDeviation",F(n))}:null},brightness:function(t,n,r){return(t=yt(r,n))?function(n){n=I(n),t.map((function(t){return t.setAttribute("slope",n)}))}:null},contrast:function(t,n,r){return(t=yt(r,n))?function(n){var r=I((1-n)/2);n=I(n),t.map((function(t){t.setAttribute("slope",n),t.setAttribute("intercept",r)}))}:null},"drop-shadow":function(t,n,r){var e=r.getElementById(n+"-blur");if(!e)return null;var i=r.getElementById(n+"-offset");if(!i)return null;var u=r.getElementById(n+"-flood");return u?function(t){e.setAttribute("stdDeviation",F(t.blur)),i.setAttribute("dx",I(t.offset.x)),i.setAttribute("dy",I(t.offset.y)),u.setAttribute("flood-color",B(t.color))}:null},grayscale:function(t){return t?function(n){t.setAttribute("values",E(function(t){return[.2126+.7874*(t=1-t),.7152-.7152*t,.0722-.0722*t,0,0,.2126-.2126*t,.7152+.2848*t,.0722-.0722*t,0,0,.2126-.2126*t,.7152-.7152*t,.0722+.9278*t,0,0,0,0,0,1,0]}(n)))}:null},"hue-rotate":function(t){return t?function(n){return t.setAttribute("values",I(n))}:null},invert:function(t,n,r){return(t=yt(r,n))?function(n){n=I(n)+" "+I(1-n),t.map((function(t){return t.setAttribute("tableValues",n)}))}:null},opacity:function(t,n,r){return(t=r.getElementById(n+"-A"))?function(n){return t.setAttribute("tableValues","0 "+I(n))}:null},saturate:function(t){return t?function(n){return t.setAttribute("values",I(n))}:null},sepia:function(t){return t?function(n){return t.setAttribute("values",E(function(t){return[.393+.607*(t=1-t),.769-.769*t,.189-.189*t,0,0,.349-.349*t,.686+.314*t,.168-.168*t,0,0,.272-.272*t,.534-.534*t,.131+.869*t,0,0,0,0,0,1,0]}(n)))}:null}};var ht=["R","G","B"];function yt(t,n){var r=ht.map((function(r){return t.getElementById(n+"-"+r)||null}));return-1!==r.indexOf(null)?null:r}var dt={fill:lt,"fill-opacity":ot,stroke:lt,"stroke-opacity":ot,"stroke-width":ut,"stroke-dashoffset":{f:I,i:d},"stroke-dasharray":at,opacity:ot,transform:function(n,r,e,i){if(!(n=function(n,r){if(!n||"object"!==t(n))return null;var e=!1;for(var i in n)n.hasOwnProperty(i)&&(n[i]&&n[i].length?(n[i].forEach((function(t){t.e&&(t.e=r(t.e))})),e=!0):delete n[i]);return e?n:null}(n,i)))return null;var u=function(t,i,u){var o=arguments.length>3&&void 0!==arguments[3]?arguments[3]:null;return n[t]?e(i,n[t],u):r&&r[t]?r[t]:o};return r&&r.a&&n.o?function(t){var r=e(t,n.o,tt);return rt.recomposeSelf(r,u("r",t,d,0)+r.a,u("k",t,m),u("s",t,m),u("t",t,m)).toString()}:function(t){return rt.recomposeSelf(u("o",t,X,null),u("r",t,d,0),u("k",t,m),u("s",t,m),u("t",t,m)).toString()}},"#filter":function(t,n,r,e,i,u,o,a){if(!n.items||!t||!t.length)return null;var l=function(t,n){var r=(t=t.map((function(t){return t&&vt[t[0]]?(n.getElementById(t[1]),vt[t[0]](n.getElementById(t[1]),t[1],n)):null}))).length;return function(n){for(var e=0;e<r;e++)t[e]&&t[e](n[e].value)}}(n.items,a);return l?(t=function(t,n){return t.map((function(t){return t.e=n(t.e),t}))}(t,e),function(n){l(r(n,t,ct))}):null},"#line":it,points:{f:E,i:x},d:et,r:ut,"#size":q,"#radius":j,_:function(t,n){if(Array.isArray(t))for(var r=0;r<t.length;r++)this[t[r]]=n;else this[t]=n}},gt=function(){function t(r){n(this,t),this.list=r,this.length=r.length}return e(t,[{key:"setAttribute",value:function(t,n){for(var r=this.list,e=0;e<this.length;e++)r[e].setAttribute(t,n)}},{key:"removeAttribute",value:function(t){for(var n=this.list,r=0;r<this.length;r++)n[r].removeAttribute(t)}},{key:"style",value:function(t,n){for(var r=this.list,e=0;e<this.length;e++)r[e].style[t]=n}}]),t}(),mt=/-./g,pt=function(t,n){return n.toUpperCase()};function bt(t){return"function"==typeof t?t:y}function wt(t){return t?"function"==typeof t?t:Array.isArray(t)?function(t){var n=arguments.length>1&&void 0!==arguments[1]?arguments[1]:o;if(!Array.isArray(t))return n;switch(t.length){case 1:return c(t[0])||n;case 2:return c(t[0],t[1])||n;case 4:return l(t[0],t[1],t[2],t[3])||n}return n}(t,null):function(t,n){var r=arguments.length>2&&void 0!==arguments[2]?arguments[2]:o;switch(t){case"linear":return o;case"steps":return c(n.steps||1,n.jump||0)||r;case"bezier":case"cubic-bezier":return l(n.x1||0,n.y1||0,n.x2||0,n.y2||0)||r}return r}(t.type,t.value,null):null}function At(t,n,r){var e=arguments.length>3&&void 0!==arguments[3]&&arguments[3],i=n.length-1;if(t<=n[0].t)return e?[0,0,n[0].v]:n[0].v;if(t>=n[i].t)return e?[i,1,n[i].v]:n[i].v;var u,o=n[0],a=null;for(u=1;u<=i;u++){if(!(t>n[u].t)){a=n[u];break}o=n[u]}return null==a?e?[i,1,n[i].v]:n[i].v:o.t===a.t?e?[u,1,a.v]:a.v:(t=(t-o.t)/(a.t-o.t),o.e&&(t=o.e(t)),e?[u,t,r(t,o.v,a.v)]:r(t,o.v,a.v))}function xt(t,n){var r=arguments.length>2&&void 0!==arguments[2]?arguments[2]:null;return t&&t.length?"function"!=typeof n?null:("function"!=typeof r&&(r=null),function(e){var i=At(e,t,n);return null!=i&&r&&(i=r(i)),i}):null}function kt(t,n){return t.t-n.t}function St(n,r,e,i,u){var o,a="@"===e[0],l="#"===e[0],f=dt[e],s=y;switch(a?(o=e.substr(1),e=o.replace(mt,pt)):l&&(e=e.substr(1)),t(f)){case"function":if(s=f(i,u,At,wt,e,a,r,n),l)return s;break;case"string":s=xt(i,bt(f));break;case"object":if((s=xt(i,bt(f.i),f.f))&&"function"==typeof f.u)return f.u(r,s,e,a,n)}return s?function(t,n,r){if(arguments.length>3&&void 0!==arguments[3]&&arguments[3])return t instanceof gt?function(e){return t.style(n,r(e))}:function(e){return t.style[n]=r(e)};if(Array.isArray(n)){var e=n.length;return function(i){var u=r(i);if(null==u)for(var o=0;o<e;o++)t[o].removeAttribute(n);else for(var a=0;a<e;a++)t[a].setAttribute(n,u)}}return function(e){var i=r(e);null==i?t.removeAttribute(n):t.setAttribute(n,i)}}(r,e,s,a):null}function _t(n,r,e,i){if(!i||"object"!==t(i))return null;var u=null,o=null;return Array.isArray(i)?o=function(t){if(!t||!t.length)return null;for(var n=0;n<t.length;n++)t[n].e&&(t[n].e=wt(t[n].e));return t.sort(kt)}(i):(o=i.keys,u=i.data||null),o?St(n,r,e,o,u):null}function Mt(t,n,r){if(!r)return null;var e=[];for(var i in r)if(r.hasOwnProperty(i)){var u=_t(t,n,i,r[i]);u&&e.push(u)}return e.length?e:null}function It(t,n){if(!n.duration||n.duration<0)return null;var r=function(t,n){if(!n)return null;var r=[];if(Array.isArray(n))for(var e=n.length,i=0;i<e;i++){var u=n[i];if(2===u.length){var o=null;if("string"==typeof u[0])o=t.getElementById(u[0]);else if(Array.isArray(u[0])){o=[];for(var a=0;a<u[0].length;a++)if("string"==typeof u[0][a]){var l=t.getElementById(u[0][a]);l&&o.push(l)}o=o.length?1===o.length?o[0]:new gt(o):null}if(o){var f=Mt(t,o,u[1]);f&&(r=r.concat(f))}}}else for(var s in n)if(n.hasOwnProperty(s)){var c=t.getElementById(s);if(c){var v=Mt(t,c,n[s]);v&&(r=r.concat(v))}}return r.length?r:null}(t,n.elements);return r?function(t,n){var r=arguments.length>2&&void 0!==arguments[2]?arguments[2]:1/0,e=arguments.length>3&&void 0!==arguments[3]?arguments[3]:1,i=arguments.length>4&&void 0!==arguments[4]&&arguments[4],u=arguments.length>5&&void 0!==arguments[5]?arguments[5]:1,o=t.length,a=e>0?n:0;i&&r%2==0&&(a=n-a);var l=null;return function(f,s){var c=f%n,v=1+(f-c)/n;s*=e,i&&v%2==0&&(s=-s);var h=!1;if(v>r)c=a,h=!0,-1===u&&(c=e>0?0:n);else if(s<0&&(c=n-c),c===l)return!1;l=c;for(var y=0;y<o;y++)t[y](c);return h}}(r,n.duration,n.iterations||1/0,n.direction||1,!!n.alternate,n.fill||1):null}var Et=function(){function t(r){var e=arguments.length>1&&void 0!==arguments[1]?arguments[1]:{};n(this,t),this._id=0,this._running=!1,this._animations=r,this.direction=e.direction||1,this.speed=e.speed||1,this.fps=e.fps||100,this.offset=e.offset||0}return e(t,[{key:"_start",value:function(){var t=this,n=arguments.length>0&&void 0!==arguments[0]?arguments[0]:0,r=-1/0,e=null,i={},u=function u(o){t._running=!0,null==e&&(e=o);var a=Math.round((o-e+n)*t.speed),l=t.fps?1e3/t.fps:0;if(a>r+l){t.offset=a,r=a;for(var f=t._animations,s=f.length,c=0,v=0;v<s;v++)i[v]?c++:(i[v]=f[v](a,t.direction),i[v]&&c++);if(c===s)return void t._stop()}t._id=window.requestAnimationFrame(u)};this._id=window.requestAnimationFrame(u)}},{key:"_stop",value:function(){this._id&&window.cancelAnimationFrame(this._id),this._running=!1}},{key:"play",value:function(){this._running||this._start(this.offset)}},{key:"stop",value:function(){this._stop(),this.offset=0;var t=this.direction,n=this._animations;requestAnimationFrame((function(){for(var r=0;r<n.length;r++)n[r](0,t)}))}},{key:"restart",value:function(){this._stop(),this.offset=0,this._start()}},{key:"pause",value:function(){this._stop()}},{key:"reverse",value:function(){this.direction=-this.direction}}],[{key:"build",value:function(n){if(!(n=function(t){if(!t||!t.root||!Array.isArray(t.animations))return null;var n=window.document.getElementById(t.root);if(!n)return null;var r=t.animations.map((function(t){return It(n,t)})).filter((function(t){return!!t}));return r.length?{element:n,animations:r,options:t.options||void 0}:null}(n)))return null;var r=n.element,e=n.options||{},i=new t(n.animations,n.options);return function(t,n,r){var e=arguments.length>3&&void 0!==arguments[3]?arguments[3]:null;if("click"===r){return void n.addEventListener("click",(function r(){n.removeEventListener("click",r),t.play()}))}if("hover"===r)return n.addEventListener("mouseenter",(function(){return t.play()})),void n.addEventListener("mouseleave","freeze"===e?function(){return t.pause()}:function(){return t.stop()});t.play()}(i,r,e.start,e.hover),i}}]),t}();return function(){for(var t=0,n=["ms","moz","webkit","o"],r=0;r<n.length&&!window.requestAnimationFrame;++r)window.requestAnimationFrame=window[n[r]+"RequestAnimationFrame"],window.cancelAnimationFrame=window[n[r]+"CancelAnimationFrame"]||window[n[r]+"CancelRequestAnimationFrame"];window.requestAnimationFrame||(window.requestAnimationFrame=function(n){var r=Date.now(),e=Math.max(0,16-(r-t)),i=window.setTimeout((function(){n(r+e)}),e);return t=r+e,i},window.cancelAnimationFrame=window.clearTimeout)}(),Et}));
__SVGATOR_PLAYER__.build({"root":"eyil7nf7hqe1","animations":[{"duration":7200,"direction":1,"iterations":0,"fill":1,"alternate":false,"elements":{"eyil7nf7hqe3":{"transform":{"keys":{"o":[{"t":0,"v":{"x":151.64119432999976,"y":-91.56376028500028,"type":"corner"}},{"t":4500,"v":{"x":1986.68,"y":-97.83237045500067,"type":"corner"}}]}}},"eyil7nf7hqe17":{"transform":{"keys":{"o":[{"t":0,"v":{"x":-290.22,"y":-124.3,"type":"corner"}},{"t":6000,"v":{"x":2004.08,"y":-117.96999756000139,"type":"corner"}}]}}},"eyil7nf7hqe24":{"transform":{"data":{"t":{"x":-127.87524029000014,"y":-143.43863971000005}},"keys":{"o":[{"t":2500,"v":{"x":-260.25,"y":122.22,"type":"corner"}},{"t":7200,"v":{"x":1650.25,"y":122.22,"type":"corner"}}]}}},"eyil7nf7hqe25":{"transform":{"keys":{"o":[{"t":0,"v":{"x":-837.94,"y":149.61496178000002,"type":"corner"}},{"t":5500,"v":{"x":1000,"y":145.11254163500004,"type":"corner"},"e":[0.42,0,0.58,1]}]}}},"eyil7nf7hqe26":{"transform":{"keys":{"o":[{"t":900,"v":{"x":-887.4901890000002,"y":36.38361082000003,"type":"corner"}},{"t":6200,"v":{"x":1050,"y":39.32861082000005,"type":"corner"}}]}}},"eyil7nf7hqe27":{"transform":{"keys":{"o":[{"t":0,"v":{"x":0,"y":0,"type":"corner"}},{"t":700,"v":{"x":0,"y":4,"type":"corner"}},{"t":1000,"v":{"x":0,"y":-4,"type":"corner"}},{"t":1400,"v":{"x":0,"y":2,"type":"corner"}},{"t":1900,"v":{"x":0,"y":4,"type":"corner"}},{"t":2300,"v":{"x":0,"y":-4,"type":"corner"}},{"t":2700,"v":{"x":0,"y":2,"type":"corner"}},{"t":3000,"v":{"x":0,"y":4,"type":"corner"}},{"t":3300,"v":{"x":0,"y":-4,"type":"corner"}},{"t":3700,"v":{"x":0,"y":2,"type":"corner"}},{"t":4000,"v":{"x":0,"y":4,"type":"corner"}},{"t":4300,"v":{"x":0,"y":-4,"type":"corner"}},{"t":4700,"v":{"x":0,"y":2,"type":"corner"}},{"t":5000,"v":{"x":0,"y":4,"type":"corner"}},{"t":5300,"v":{"x":0,"y":-4,"type":"corner"}},{"t":5700,"v":{"x":0,"y":2,"type":"corner"}},{"t":6000,"v":{"x":0,"y":4,"type":"corner"}},{"t":6300,"v":{"x":0,"y":-4,"type":"corner"}},{"t":6600,"v":{"x":0,"y":2,"type":"corner"}},{"t":6800,"v":{"x":0,"y":4,"type":"corner"}},{"t":7000,"v":{"x":0,"y":-4,"type":"corner"}},{"t":7200,"v":{"x":0,"y":0,"type":"corner"}}]}}},"eyil7nf7hqe28":{"transform":{"data":{"t":{"x":907.83,"y":547.4}},"keys":{"o":[{"t":0,"v":{"x":-436.0751850099998,"y":-126.43499999999966,"type":"corner"}},{"t":500,"v":{"x":-436.07518501000015,"y":-131.43500000000006,"type":"corner"}},{"t":900,"v":{"x":-436.0751850100004,"y":-125.85760416999995,"type":"corner"}},{"t":1400,"v":{"x":-436.07518501000084,"y":-133.4349999950001,"type":"corner"}},{"t":1800,"v":{"x":-436.07518501000015,"y":-127.3973729,"type":"corner"}},{"t":2200,"v":{"x":-436.0751850050003,"y":-132.14999999500003,"type":"corner"}},{"t":2600,"v":{"x":-436.07518501000015,"y":-131.43500000000006,"type":"corner"}},{"t":3100,"v":{"x":-436.0751850100004,"y":-125.85760416999995,"type":"corner"}},{"t":3600,"v":{"x":-436.07518501000084,"y":-133.4349999950001,"type":"corner"}},{"t":4000,"v":{"x":-436.07518501000015,"y":-127.3973729,"type":"corner"}},{"t":4400,"v":{"x":-436.0751850050008,"y":-137.115,"type":"corner"}},{"t":5000,"v":{"x":-436.07518501000015,"y":-127.79737290000003,"type":"corner"}}]}}},"eyil7nf7hqe34":{"transform":{"keys":{"o":[{"t":0,"v":{"x":0,"y":0,"type":"corner"}},{"t":3840,"v":{"x":600,"y":0,"type":"corner"}}]}}},"eyil7nf7hqe35":{"opacity":[{"t":300,"v":0.2},{"t":800,"v":0.5},{"t":900,"v":0.7},{"t":1000,"v":1},{"t":1100,"v":0.5},{"t":1200,"v":0.2},{"t":1300,"v":0},{"t":2100,"v":0.2},{"t":2300,"v":0.5},{"t":2400,"v":0.7},{"t":2500,"v":1},{"t":2600,"v":0.5},{"t":2700,"v":0.2},{"t":2800,"v":0.1},{"t":3200,"v":0.2},{"t":3300,"v":0}]},"eyil7nf7hqe36":{"opacity":[{"t":300,"v":0.2},{"t":900,"v":0.5},{"t":1000,"v":0.7},{"t":1100,"v":1},{"t":1200,"v":0.5},{"t":1300,"v":0.2},{"t":1400,"v":0},{"t":2100,"v":0.2},{"t":2400,"v":0.5},{"t":2500,"v":0.7},{"t":2600,"v":1},{"t":2700,"v":0.5},{"t":2800,"v":0.2},{"t":2900,"v":0.1},{"t":3200,"v":0.2},{"t":3300,"v":0}]},"eyil7nf7hqe37":{"opacity":[{"t":0,"v":0.2},{"t":400,"v":0}]},"eyil7nf7hqe38":{"opacity":[{"t":0,"v":0.2},{"t":200,"v":0.3},{"t":390,"v":0},{"t":500,"v":0}]},"eyil7nf7hqe39":{"opacity":[{"t":0,"v":0.2},{"t":800,"v":0}]},"eyil7nf7hqe40":{"opacity":[{"t":100,"v":0.2},{"t":500,"v":0.5},{"t":600,"v":0.7},{"t":700,"v":1},{"t":800,"v":0.5},{"t":900,"v":0.2},{"t":1000,"v":0},{"t":1700,"v":0.3},{"t":1800,"v":0.7},{"t":2000,"v":1},{"t":2100,"v":0.5},{"t":2300,"v":0.2},{"t":2400,"v":0.1},{"t":2600,"v":0}]},"eyil7nf7hqe41":{"transform":{"keys":{"o":[{"t":2900,"v":{"x":-650,"y":0,"type":"corner"}},{"t":7200,"v":{"x":0,"y":0,"type":"corner"}}]}}},"eyil7nf7hqe42":{"opacity":[{"t":6100,"v":0},{"t":6600,"v":0.2},{"t":6900,"v":0.5},{"t":7000,"v":0.8},{"t":7100,"v":0.3},{"t":7200,"v":0.2}]},"eyil7nf7hqe43":{"opacity":[{"t":6100,"v":0},{"t":6600,"v":0.2},{"t":7000,"v":0.5},{"t":7100,"v":0.8},{"t":7200,"v":0.2}]},"eyil7nf7hqe44":{"opacity":[{"t":3100,"v":0},{"t":3900,"v":0.2},{"t":4400,"v":0.5},{"t":4500,"v":0.7},{"t":4600,"v":1},{"t":4700,"v":0.5},{"t":4800,"v":0.2},{"t":4900,"v":0},{"t":5700,"v":0.2},{"t":6400,"v":0.5},{"t":6500,"v":0.7},{"t":6600,"v":1},{"t":6700,"v":0.5},{"t":6800,"v":0.2},{"t":6900,"v":0.1},{"t":7200,"v":0.2}]},"eyil7nf7hqe45":{"opacity":[{"t":3300,"v":0},{"t":3900,"v":0.2},{"t":4500,"v":0.5},{"t":4600,"v":0.7},{"t":4700,"v":1},{"t":4800,"v":0.5},{"t":4900,"v":0.2},{"t":5000,"v":0},{"t":5700,"v":0.2},{"t":6400,"v":0.5},{"t":6500,"v":0.7},{"t":6600,"v":1},{"t":6700,"v":0.5},{"t":6800,"v":0.2},{"t":6900,"v":0.1},{"t":7200,"v":0.2}]},"eyil7nf7hqe46":{"opacity":[{"t":3500,"v":0},{"t":4300,"v":0.2},{"t":4700,"v":0.5},{"t":4800,"v":0.7},{"t":4900,"v":1},{"t":5000,"v":0.5},{"t":5100,"v":0.2},{"t":5200,"v":0},{"t":6000,"v":0.2},{"t":6500,"v":0.5},{"t":6600,"v":0.7},{"t":6700,"v":1},{"t":6800,"v":0.5},{"t":6900,"v":0.2}]},"eyil7nf7hqe47":{"opacity":[{"t":5700,"v":0},{"t":6600,"v":0.2},{"t":6700,"v":0.5},{"t":6800,"v":0.7},{"t":6900,"v":1},{"t":7000,"v":0.5},{"t":7100,"v":0.2},{"t":7200,"v":0.2}]},"eyil7nf7hqe63":{"transform":{"keys":{"o":[{"t":0,"v":{"x":35.8,"y":-85.14345825000032,"type":"corner"}},{"t":3700,"v":{"x":1827.67,"y":-76.8292364500004,"type":"corner"}}]}}},"eyil7nf7hqe70":{"transform":{"keys":{"o":[{"t":2100,"v":{"x":0,"y":0,"type":"corner"}},{"t":6500,"v":{"x":2174.51,"y":57.54926367999974,"type":"corner"}}]}}},"eyil7nf7hqe77":{"transform":{"keys":{"o":[{"t":0,"v":{"x":-558.5896629999997,"y":11.422907604999978,"type":"corner"}},{"t":5400,"v":{"x":1513.18,"y":23.37456623500009,"type":"corner"}}]}}},"eyil7nf7hqe84":{"transform":{"keys":{"o":[{"t":0,"v":{"x":182.104557815,"y":-12.780019529999777,"type":"corner"}},{"t":3100,"v":{"x":2256.05,"y":-12.780019529999777,"type":"corner"}}]}}}}}],"options":{"start":"hover","hover":"restart"}})]]></script></svg>