<svg id="erqlesk3yzf1" xmlns="http://www.w3.org/2000/svg" xmlns:xlink="http://www.w3.org/1999/xlink" viewBox="0 0 1000 1700" shape-rendering="geometricPrecision" text-rendering="geometricPrecision">
    <g id="erqlesk3yzf2">
        <g id="erqlesk3yzf3">
            <path id="erqlesk3yzf4" d="M253,180.830000C267,136.830000,223,147.830000,223,147.830000C215,56.830000,115,142.830000,115,142.830000C87,111.830000,39,167.830000,39,167.830000C6,163.830000,0,180.830000,0,180.830000Z" transform="matrix(1 0 0 1 -1173.22103900000047 -29.61528799999996)" fill="rgb(94,148,153)" stroke="none" stroke-width="1"/>
            <path id="erqlesk3yzf5" d="M253,180.830000C267,136.830000,223,147.830000,223,147.830000C215,56.830000,115,142.830000,115,142.830000C87,111.830000,39,167.830000,39,167.830000C6,163.830000,0,180.830000,0,180.830000Z" transform="matrix(1 0 0 1 -1173.22103900000047 -29.61528799999996)" fill="rgb(94,148,153)" stroke="none" stroke-width="1"/>
            <path id="erqlesk3yzf6" d="M707.910000,48.130000C708.910000,25.130000,683.910000,34.130000,683.910000,34.130000C676.910000,-40.870000,620.910000,31.130000,620.910000,31.130000C614.910000,-22.870000,569.910000,46.130000,569.910000,46.130000L707.910000,48.130000" transform="matrix(1 0 0 1 -1153.65000000158466 29.60929255000003)" fill="rgb(94,148,153)" stroke="none" stroke-width="1"/>
            <path id="erqlesk3yzf7" d="M839.590000,238.210000C831.590000,219.210000,804.590000,214.210000,804.590000,214.210000C785.590000,209.210000,758.590000,229.210000,758.590000,229.210000C758.590000,214.210000,747.590000,209.210000,747.590000,209.210000C736.590000,201.210000,712.590000,218.210000,712.590000,218.210000C709.590000,166.210000,679.590000,169.210000,679.590000,169.210000C648.590000,170.210000,619.590000,220.210000,619.590000,220.210000C617.059953,215.886302,613.653722,212.139448,609.590000,209.210000C605.526278,206.280552,599.590000,200.210000,576.590000,223.210000C553.590000,246.210000,542.590000,242.210000,542.590000,242.210000Z" transform="matrix(1 0 0 1 -1173.22103900000047 -29.61528799999996)" fill="rgb(94,148,153)" stroke="none" stroke-width="1"/>
            <g id="erqlesk3yzf8" transform="matrix(1 0 0 1 0 -180.02647057999999)">
                <path id="erqlesk3yzf9" d="M1132.615445,316.621139C1127.988836,317.541843,1121.053835,319.510246,1115.503870,324.240763C1102.508110,335.352716,1112.016723,348.798179,1105.032607,370.887154C1098.048491,392.976128,1083.422122,395.444569,1084.581230,409.644057C1085.563525,421.906891,1097.508229,432.526743,1114.629627,441.622670C1119.403580,443.535513,1120.523396,445.345174,1120.700209,446.599237C1121.102950,449.194672,1117.753325,450.567792,1115.788735,455.195126C1114.986507,457.246901,1114.624389,459.394410,1114.718034,461.544814C1115.258296,467.378589,1128.136180,473.156804,1145.768372,475.530000C1160.905534,475.299824,1173.960232,469.315244,1178.518080,460.155820C1182.967875,451.210698,1180.011168,437.789046,1173.351209,435.804769C1172.496613,435.550781,1172.241216,435.677775,1171.917059,435.392039C1168.420089,432.312441,1196.778940,415.200034,1204.529246,389.293310C1206.817992,381.657811,1209.902398,371.347506,1203.163856,363.997743C1193.979400,353.965237,1175.875707,359.687893,1167.349388,349.560141C1160.070584,340.916630,1169.117519,331.828640,1161.809246,323.780411C1155.532382,316.835441,1142.055298,316.232220,1132.615445,316.621139Z" transform="matrix(1 0 0 1 -2055.30101199999990 -28.60024772999986)" fill="rgb(231,58,90)" stroke="none" stroke-width="1"/>
                <path id="erqlesk3yzf10" d="M1147.393564,563.462063C1146.080075,563.458079,1145.009016,562.610236,1144.977119,561.549220L1139.869186,349.334734C1139.856039,348.817614,1140.098398,348.317569,1140.542660,347.945193C1140.986922,347.572816,1141.596479,347.358792,1142.236516,347.350456L1142.285631,347.350456C1143.600722,347.358716,1144.670298,348.208899,1144.702076,349.271237L1149.810009,561.485723C1149.823156,562.002842,1149.580797,562.502887,1149.136535,562.875264C1148.692273,563.247641,1148.082716,563.461665,1147.442679,563.470000Z" transform="matrix(1 0 0 1 -2055.30101199999990 -28.60024772999986)" fill="rgb(97,139,119)" stroke="none" stroke-width="1"/>
                <path id="erqlesk3yzf11" d="M1145.190043,400.840031C1144.404067,400.836834,1143.669977,400.522461,1143.225454,399.998697C1142.468264,399.108437,1142.745003,397.891006,1143.844299,397.276269L1196.829280,367.869280C1197.539228,367.449409,1198.475495,367.374497,1199.273567,367.673708C1200.071638,367.972920,1200.605385,368.598966,1200.667005,369.308111C1200.728625,370.017256,1200.308380,370.697425,1199.569882,371.083809L1146.584902,400.498735C1146.174221,400.725313,1145.687295,400.844455,1145.190043,400.840031Z" transform="matrix(1 0 0 1 -2055.30101199999990 -28.60024772999986)" fill="rgb(97,139,119)" stroke="none" stroke-width="1"/>
                <path id="erqlesk3yzf12" d="M1131.280977,315.985768C1131.280977,315.985768,1106.478034,318.581203,1106.782545,339.797096C1106.920067,349.591488,1106.684316,356.917440,1105.328749,363.933844C1103.776723,372.005884,1100.623557,379.633446,1092.942012,389.650078C1089.484334,394.158356,1085.908781,397.484005,1084.287995,401.555742C1079.209531,414.429732,1085.623916,426.803686,1113.452327,441.058734C1113.452327,441.058734,1117.381506,442.598533,1118.756719,444.527250C1119.739014,445.884496,1119.572023,447.352861,1117.322568,450.083227C1114.139933,453.393001,1111.939593,458.115581,1113.825599,462.417494C1115.583907,466.433671,1120.937413,470.060930,1131.890000,472.450000C1131.890000,472.450000,1113.295160,463.131834,1123.344035,447.384609C1133.392911,431.637385,1094.258287,423.874892,1096.389867,409.977014C1098.521446,396.079136,1124.414737,377.982527,1120.760600,364.322763C1117.106464,350.662998,1107.990768,327.224715,1131.280977,315.985768Z" transform="matrix(1 0 0 1 -2055.30101199999990 -28.60024772999986)" fill="rgb(240,137,156)" stroke="none" stroke-width="1"/>
                <path id="erqlesk3yzf13" d="M1143.663735,372.000004C1143.083183,371.998601,1142.522336,371.829716,1142.082240,371.523778L1110.442525,349.355432C1109.433463,348.649681,1109.323516,347.416594,1110.196952,346.601255C1111.070387,345.785916,1112.596453,345.697077,1113.605515,346.402827L1145.255052,368.571173C1146.019398,369.105742,1146.291149,369.968256,1145.936200,370.733070C1145.581250,371.497885,1144.674624,372.003343,1143.663735,372.000004Z" transform="matrix(1 0 0 1 -2055.30101199999990 -28.60024772999986)" fill="rgb(97,139,119)" stroke="none" stroke-width="1"/>
                <path id="erqlesk3yzf14" d="M1144.133463,446.878252C1143.587706,446.880983,1143.057273,446.732513,1142.630552,446.457585L1092.808560,414.709148C1091.758811,414.040658,1091.578497,412.811124,1092.405820,411.962909C1093.233142,411.114693,1094.754810,410.968997,1095.804560,411.637487L1145.626551,443.425609C1146.432995,443.940606,1146.747970,444.811466,1146.411657,445.596313C1146.075345,446.381160,1145.161360,446.908195,1144.133463,446.910000Z" transform="matrix(1 0 0 1 -2055.30101199999990 -28.60024772999986)" fill="rgb(97,139,119)" stroke="none" stroke-width="1"/>
                <path id="erqlesk3yzf15" d="M1190.322675,269.609634C1184.821824,270.704955,1176.570548,273.054339,1169.949881,278.681749C1154.478739,291.865287,1165.804597,307.914122,1157.484561,334.241513C1149.164524,360.568904,1131.738614,363.473886,1133.133473,380.379928C1134.341696,394.976272,1148.535855,407.620087,1168.908649,418.478052C1174.596136,420.748065,1175.922234,422.914896,1176.148161,424.399135C1176.619663,427.486671,1172.611900,429.113778,1170.332976,434.630069C1169.378116,437.077002,1168.949521,439.638103,1169.065816,442.202071C1169.714131,449.147041,1185.037929,456.020578,1206.029569,458.870000C1224.054678,458.592201,1239.604404,451.464677,1245.016848,440.567026C1250.321240,429.907489,1246.794802,413.938025,1238.867683,411.572767C1237.885388,411.271157,1237.551408,411.421962,1237.168313,411.088603C1233.003383,407.413722,1266.755032,387.047100,1275.988603,356.195557C1278.709559,347.107567,1282.383342,334.836796,1274.367816,326.090102C1263.425053,314.144753,1241.883328,320.954792,1231.726400,308.898324C1223.062560,298.580082,1233.828511,287.785613,1225.135202,278.205523C1217.610824,269.863621,1201.569950,269.149281,1190.322675,269.609634Z" transform="matrix(1 0 0 1 -2055.30101199999990 -28.60024772999986)" fill="rgb(97,139,119)" stroke="none" stroke-width="1"/>
                <path id="erqlesk3yzf16" d="M1207.921891,563.460000C1206.355083,563.460265,1205.075852,562.447792,1205.043768,561.182050L1198.953540,308.535930C1198.935101,307.917754,1199.222109,307.319097,1199.751126,306.872280C1200.280143,306.425463,1201.007607,306.167280,1201.772726,306.154797L1201.831664,306.154797C1203.398473,306.154532,1204.677703,307.167005,1204.709787,308.432748L1210.800015,561.078867C1210.818454,561.697043,1210.531446,562.295700,1210.002429,562.742517C1209.473412,563.189334,1208.745948,563.447517,1207.980829,563.460000Z" transform="matrix(1 0 0 1 -2055.30101199999990 -28.60024772999986)" fill="rgb(231,58,90)" stroke="none" stroke-width="1"/>
                <path id="erqlesk3yzf17" d="M1205.288742,369.860000C1204.030618,369.857792,1202.920076,369.195542,1202.546602,368.224777C1202.173128,367.254012,1202.623288,366.199743,1203.658133,365.621584L1266.731281,330.603058C1268.041434,329.875390,1269.833571,330.143684,1270.734132,331.202310C1271.634693,332.260936,1271.302652,333.709014,1269.992499,334.436682L1206.919351,369.455207C1206.437090,369.717081,1205.869781,369.857913,1205.288742,369.860000Z" transform="matrix(1 0 0 1 -2055.30101199999990 -28.60024772999986)" fill="rgb(231,58,90)" stroke="none" stroke-width="1"/>
                <path id="erqlesk3yzf18" d="M1188.733456,268.829861C1188.733456,268.829861,1159.264613,271.917396,1159.578947,297.141529C1159.736114,308.801142,1159.461072,317.524025,1157.840285,325.873864C1155.983748,335.485703,1152.231382,344.573693,1143.105863,356.495231C1138.990048,361.860717,1134.736712,365.821334,1132.811414,370.694719C1126.760478,386.021277,1134.402732,400.752551,1167.535535,417.730027C1167.535535,417.730027,1172.221081,419.555563,1173.841867,421.849387C1174.981329,423.436809,1174.824162,425.214721,1172.142497,428.453062C1168.350839,432.421616,1165.728112,438.017278,1167.977567,443.136714C1170.069855,447.898979,1176.435125,452.240578,1189.480000,455.090000C1189.480000,455.090000,1167.348899,443.978047,1179.313249,425.238533C1191.277599,406.499018,1144.687358,397.260223,1147.221679,380.703414C1149.755999,364.146604,1180.619701,342.605290,1176.228843,326.358028C1171.837986,310.110765,1161.013097,282.211827,1188.733456,268.829861Z" transform="matrix(1 0 0 1 -2055.30101199999990 -28.60024772999986)" fill="rgb(160,185,173)" stroke="none" stroke-width="1"/>
                <path id="erqlesk3yzf19" d="M1203.481812,335.530000C1202.788638,335.528572,1202.119223,335.325735,1201.595806,334.958528L1163.924802,308.575577C1162.723150,307.733937,1162.593412,306.264538,1163.635025,305.293583C1164.676637,304.322628,1166.495162,304.217798,1167.696814,305.059438L1205.367818,331.450326C1206.272737,332.086806,1206.594114,333.110088,1206.174297,334.018205C1205.754481,334.926321,1204.681544,335.528761,1203.481812,335.530000Z" transform="matrix(1 0 0 1 -2055.30101199999990 -28.60024772999986)" fill="rgb(231,58,90)" stroke="none" stroke-width="1"/>
                <path id="erqlesk3yzf20" d="M1204.051936,424.660008C1203.407564,424.654887,1202.783031,424.479241,1202.273983,424.159971L1142.953201,386.315834C1142.135584,385.803937,1141.720788,384.976905,1141.866683,384.149500C1142.012577,383.322095,1142.696723,382.621576,1143.658738,382.314554C1144.620754,382.007533,1145.712677,382.141231,1146.518931,382.664764L1205.839713,420.508900C1206.438949,420.890218,1206.825540,421.448688,1206.914019,422.060844C1207.002498,422.673001,1206.785578,423.288422,1206.311214,423.771052C1205.770277,424.335226,1204.935170,424.663814,1204.051936,424.660008Z" transform="matrix(1 0 0 1 -2055.30101199999990 -28.60024772999986)" fill="rgb(231,58,90)" stroke="none" stroke-width="1"/>
            </g>
            <g id="erqlesk3yzf21" transform="matrix(1 0 0 1 0 -59.99974243000000)">
                <path id="erqlesk3yzf22" d="M985.810000,258.380000C989.488512,259.790885,992.577706,262.411058,994.570000,265.810000C1001.230000,276.610000,996.360000,289.750000,999.940000,311.300000C1003.520000,332.850000,1011.010000,335.250000,1010.410000,349.100000C1009.890000,361.050000,1003.790000,371.410000,995.020000,380.280000C992.570000,382.140000,992.020000,383.910000,991.910000,385.130000C991.710000,387.660000,993.430000,388.990000,994.410000,393.510000C994.823927,395.553073,995.008403,397.635980,994.960000,399.720000C994.680000,405.400000,988.080000,411.040000,979.050000,413.360000C971.300000,413.130000,964.610000,407.290000,962.280000,398.360000C960,389.640000,961.520000,376.550000,964.930000,374.610000C965.360000,374.370000,965.490000,374.490000,965.660000,374.210000C967.450000,371.210000,952.930000,354.520000,948.960000,329.210000C947.790000,321.770000,946.210000,311.720000,949.660000,304.550000C954.360000,294.770000,963.660000,300.340000,968,290.470000C971.730000,282.040000,967.090000,273.170000,970.830000,265.330000C974.070000,258.580000,981,258,985.810000,258.380000Z" transform="matrix(1 0 0 1 -1328.03056204500058 4.32880330000012)" fill="rgb(97,139,119)" stroke="none" stroke-width="1"/>
                <path id="erqlesk3yzf23" d="M979.470000,481.430000C980.140000,481.430000,980.680000,480.550000,980.670000,479.510000L979.860000,272.510000C979.860000,271.450000,979.300000,270.610000,978.610000,270.610000L978.610000,270.610000C977.930000,270.610000,977.400000,271.490000,977.400000,272.530000L978.220000,479.530000C978.220000,480.530000,978.780000,481.430000,979.460000,481.420000Z" transform="matrix(1 0 0 1 -1326.42739113500056 4.28864456000008)" fill="rgb(231,58,90)" stroke="none" stroke-width="1"/>
                <path id="erqlesk3yzf24" d="M979.590000,333.220000C979.921206,333.207253,980.224576,333.031223,980.400000,332.750000L996.610000,311.140000C997.134405,310.331297,997.180313,309.302185,996.730000,308.450000C996.589545,308.114281,996.277798,307.881366,995.916032,307.841863C995.554266,307.802360,995.199599,307.962505,994.990000,308.260000L978.780000,329.870000C978.261804,330.680680,978.216047,331.706399,978.660000,332.560000C978.828114,332.931764,979.183581,333.184030,979.590000,333.220000Z" transform="matrix(1 0 0 1 -1326.42739113500056 4.28864456000008)" fill="rgb(231,58,90)" stroke="none" stroke-width="1"/>
                <path id="erqlesk3yzf25" d="M979.360000,391.170000C979.665891,391.158390,979.949615,391.007316,980.130000,390.760000L1005.650000,359.760000C1006.196221,358.968500,1006.272690,357.943807,1005.850000,357.080000C1005.430000,356.260000,1004.650000,356.080000,1004.110000,356.770000L978.590000,387.770000C978.049657,388.559844,977.973356,389.578471,978.390000,390.440000C978.548094,390.848078,978.924105,391.131055,979.360000,391.170000Z" transform="matrix(1 0 0 1 -1326.42739113500056 4.28864456000008)" fill="rgb(231,58,90)" stroke="none" stroke-width="1"/>
                <path id="erqlesk3yzf26" d="M982,258.350000C982,258.350000,968.450000,257.630000,969.270000,274.670000L969.370000,285.280000C969.070000,285.820000,969.370000,290.330000,965.170000,294.550000C960.970000,298.770000,953.100000,296.200000,949.930000,304.040000C946.760000,311.880000,947.440000,313.780000,947.660000,318.850000C948.133467,324.753992,948.978475,330.622285,950.190000,336.420000C950.730000,338.490000,952,347,963.600000,367.990000C963.600000,367.990000,966.390000,372.870000,965.600000,374.210000C965.600000,374.210000,961.600000,374.210000,961.150000,387.780000C960.700000,401.350000,966.700000,407.200000,966.700000,407.200000C966.700000,407.200000,971.510000,413.200000,977.260000,413.200000C977.260000,413.200000,961.360000,393.320000,967.990000,381.570000C976.720000,366.090000,960.070000,340.930000,960.070000,340.930000C960.070000,340.930000,947.450000,312.090000,957.070000,308.330000C966.690000,304.570000,977.140000,299.330000,975.070000,288.900000C973,278.470000,978.780000,259,982,258.350000Z" transform="matrix(1 0 0 1 -1326.42739113500056 4.28864456000008)" fill="rgb(160,185,173)" stroke="none" stroke-width="1"/>
                <path id="erqlesk3yzf27" d="M979.310000,355.540000C979.777264,355.483393,980.168290,355.158841,980.310000,354.710000C980.701777,353.835486,980.578683,352.816119,979.990000,352.060000L952.860000,323.380000C952.290000,322.780000,951.520000,323,951.140000,323.870000C950.749920,324.743401,950.868868,325.760213,951.450000,326.520000L978.590000,355.200000C978.772587,355.408115,979.033282,355.531222,979.310000,355.540000Z" transform="matrix(1 0 0 1 -1326.42739113500056 4.28864456000008)" fill="rgb(231,58,90)" stroke="none" stroke-width="1"/>
            </g>
            <g id="erqlesk3yzf28">
                <path id="erqlesk3yzf29" d="M716.940000,465.300000C711.761384,466.455009,707.021454,469.067869,703.280000,472.830000C692.900000,483.780000,700.490000,497.100000,694.920000,518.940000C689.350000,540.780000,677.640000,543.210000,678.580000,557.250000C679.390000,569.370000,688.910000,579.860000,702.580000,588.860000C706.390000,590.740000,707.280000,592.540000,707.430000,593.770000C707.750000,596.340000,705.060000,597.680000,703.540000,602.260000C702.894018,604.291671,702.603091,606.419492,702.680000,608.550000C703.120000,614.310000,713.400000,620.030000,727.480000,622.380000C739.570000,622.150000,750,616.230000,753.640000,607.180000C757.190000,598.330000,754.830000,585.070000,749.510000,583.110000C748.830000,582.860000,748.620000,582.980000,748.370000,582.700000C745.570000,579.700000,768.220000,562.700000,774.370000,537.130000C776.200000,529.590000,778.660000,519.400000,773.280000,512.130000C765.940000,502.210000,751.490000,507.860000,744.680000,497.860000C738.870000,489.310000,746.090000,480.320000,740.260000,472.370000C735.250000,465.510000,724.490000,464.920000,716.940000,465.300000Z" transform="matrix(1 0 0 1 -1326.42739113500056 4.28864456000008)" fill="rgb(97,139,119)" stroke="none" stroke-width="1"/>
                <path id="erqlesk3yzf30" d="M729.560000,691.350000C728.509518,691.350226,727.651772,690.510256,727.630000,689.460000L723.550000,479.710000C723.531132,479.192984,723.720628,478.690040,724.075970,478.314016C724.431312,477.937993,724.922744,477.720378,725.440000,477.710000L725.440000,477.710000C726.490482,477.709774,727.348228,478.549744,727.370000,479.600000L731.450000,689.350000C731.468868,689.867016,731.279372,690.369960,730.924030,690.745984C730.568688,691.122007,730.077256,691.339622,729.560000,691.350000Z" transform="matrix(1 0 0 1 -1326.42739113500056 4.28864456000008)" fill="rgb(231,58,90)" stroke="none" stroke-width="1"/>
                <path id="erqlesk3yzf31" d="M727.080000,563.770000C726.233624,563.772644,725.484277,563.223533,725.231823,562.415680C724.979370,561.607827,725.282719,560.729748,725.980000,560.250000L768.300000,531.180000C769.178133,530.575248,770.380248,530.796867,770.985000,531.675000C771.589752,532.553133,771.368133,533.755248,770.490000,534.360000L728.170000,563.440000C727.846325,563.653308,727.467636,563.767957,727.080000,563.770000Z" transform="matrix(1 0 0 1 -1326.42739113500056 4.28864456000008)" fill="rgb(231,58,90)" stroke="none" stroke-width="1"/>
                <path id="erqlesk3yzf32" d="M716.940000,465.300000C716.940000,465.300000,697.140000,467.860000,697.380000,488.800000C697.490000,498.480000,697.300000,505.720000,696.220000,512.660000C694.980000,520.660000,692.460000,528.180000,686.320000,538.080000C683.560000,542.530000,680.710000,545.820000,679.420000,549.870000C675.360000,562.590000,680.480000,574.870000,702.710000,588.870000C702.710000,588.870000,705.850000,590.380000,706.940000,592.290000C707.710000,593.640000,707.600000,595.090000,705.800000,597.780000C703.260000,601.050000,701.500000,605.720000,703,609.970000C704.410000,613.970000,708.680000,617.520000,717.430000,619.890000C717.430000,619.890000,702.580000,610.670000,710.610000,595.110000C718.640000,579.550000,687.380000,571.880000,689.080000,558.110000C690.780000,544.340000,711.460000,526.490000,708.540000,512.990000C705.620000,499.490000,698.350000,476.410000,716.940000,465.300000Z" transform="matrix(1 0 0 1 -1326.42739113500056 4.28864456000008)" fill="rgb(160,185,173)" stroke="none" stroke-width="1"/>
                <path id="erqlesk3yzf33" d="M726.640000,541.150000C726.173795,541.151865,725.722672,540.984914,725.370000,540.680000L700.100000,518.770000C699.293664,518.071360,699.206360,516.851336,699.905000,516.045000C700.603640,515.238664,701.823664,515.151360,702.630000,515.850000L727.900000,537.760000C728.509525,538.286970,728.727539,539.137144,728.446823,539.892403C728.166107,540.647663,727.445740,541.149057,726.640000,541.150000Z" transform="matrix(1 0 0 1 -1326.42739113500056 4.28864456000008)" fill="rgb(231,58,90)" stroke="none" stroke-width="1"/>
                <path id="erqlesk3yzf34" d="M727,599.880000C726.565365,599.881616,726.142778,599.737232,725.800000,599.470000L686,568.050000C685.371904,567.655962,685.025074,566.936937,685.107676,566.200087C685.190277,565.463237,685.687703,564.838853,686.387456,564.593668C687.087209,564.348483,687.865560,564.525850,688.390000,565.050000L728.190000,596.470000C728.831666,596.980782,729.080441,597.841310,728.810309,598.615689C728.540177,599.390068,727.810142,599.909151,726.990000,599.910000Z" transform="matrix(1 0 0 1 -1326.42739113500056 4.28864456000008)" fill="rgb(231,58,90)" stroke="none" stroke-width="1"/>
                <path id="erqlesk3yzf35" d="M775.060000,511C770.038332,512.114353,765.442640,514.648231,761.820000,518.300000C751.760000,528.900000,759.120000,541.800000,753.720000,562.960000C748.320000,584.120000,737,586.490000,737.890000,600.090000C738.680000,611.840000,747.890000,622,761.140000,630.720000C764.840000,632.540000,765.690000,634.280000,765.840000,635.480000C766.150000,637.960000,763.550000,639.270000,762.070000,643.710000C761.446233,645.677403,761.165474,647.737428,761.240000,649.800000C761.660000,655.380000,771.620000,660.920000,785.240000,663.190000C796.950000,662.970000,807.050000,657.190000,810.580000,648.470000C814.020000,639.900000,811.730000,627.050000,806.580000,625.150000C805.920000,624.910000,805.720000,625.030000,805.470000,624.760000C802.760000,621.760000,824.700000,605.420000,830.700000,580.610000C832.470000,573.300000,834.860000,563.430000,829.650000,556.390000C822.540000,546.790000,808.540000,552.260000,801.940000,542.570000C796.300000,534.290000,803.300000,525.570000,797.650000,517.880000C792.790000,511.220000,782.370000,510.650000,775.060000,511Z" transform="matrix(1 0 0 1 -1326.42739113500056 4.28864456000008)" fill="rgb(231,58,90)" stroke="none" stroke-width="1"/>
                <path id="erqlesk3yzf36" d="M787.280000,730C786.261017,729.994810,785.431668,729.178765,785.410000,728.160000L781.460000,525C781.443257,523.971006,782.261102,523.121877,783.290000,523.100000L783.290000,523.100000C784.307351,523.099767,785.138239,523.912882,785.160000,524.930000L789.110000,728.140000C789.120723,728.635987,788.933918,729.115908,788.590702,729.474128C788.247486,729.832348,787.775992,730.039504,787.280000,730.050000Z" transform="matrix(1 0 0 1 -1326.42739113500056 4.28864456000008)" fill="rgb(97,139,119)" stroke="none" stroke-width="1"/>
                <path id="erqlesk3yzf37" d="M784.880000,606.420000C784.061348,606.419649,783.338096,605.886844,783.095087,605.105090C782.852079,604.323337,783.145816,603.474400,783.820000,603.010000L824.820000,574.840000C825.369810,574.443413,826.091198,574.375446,826.705406,574.662362C827.319614,574.949278,827.730440,575.546139,827.779133,576.222305C827.827826,576.898472,827.506760,577.548038,826.940000,577.920000L785.940000,606.090000C785.626872,606.301981,785.258120,606.416781,784.880000,606.420000Z" transform="matrix(1 0 0 1 -1326.42739113500056 4.28864456000008)" fill="rgb(97,139,119)" stroke="none" stroke-width="1"/>
                <path id="erqlesk3yzf38" d="M775.060000,511C775.060000,511,755.870000,513.480000,756.110000,533.770000C756.210000,543.140000,756.030000,550.160000,754.980000,556.880000C753.780000,564.610000,751.340000,571.880000,745.390000,581.510000C742.720000,585.820000,739.950000,589.010000,738.700000,592.930000C734.770000,605.260000,739.700000,617.110000,761.260000,630.760000C761.260000,630.760000,764.260000,632.230000,765.370000,634.080000C766.110000,635.380000,766,636.780000,764.260000,639.390000C761.800000,642.560000,760.090000,647.080000,761.550000,651.200000C762.920000,655.040000,767.050000,658.520000,775.550000,660.810000C775.550000,660.810000,761.160000,651.880000,768.940000,636.810000C776.720000,621.740000,746.440000,614.310000,748.090000,600.990000C749.740000,587.670000,769.770000,570.360000,766.940000,557.280000C764.110000,544.200000,757,521.780000,775.060000,511Z" transform="matrix(1 0 0 1 -1326.42739113500056 4.28864456000008)" fill="rgb(240,137,156)" stroke="none" stroke-width="1"/>
                <path id="erqlesk3yzf39" d="M784.450000,584.500000C783.997708,584.501315,783.560434,584.337782,783.220000,584.040000L758.740000,562.820000C757.958517,562.143451,757.873451,560.961483,758.550000,560.180000C759.226549,559.398517,760.408517,559.313451,761.190000,559.990000L785.670000,581.220000C786.048032,581.543159,786.280901,582.004252,786.316602,582.500301C786.352302,582.996351,786.187860,583.486038,785.860000,583.860000C785.503755,584.265971,784.990113,584.499114,784.450000,584.500000Z" transform="matrix(1 0 0 1 -1326.42739113500056 4.28864456000008)" fill="rgb(97,139,119)" stroke="none" stroke-width="1"/>
                <path id="erqlesk3yzf40" d="M784.800000,641.400000C784.379479,641.400154,783.971048,641.259316,783.640000,641L745.090000,610.560000C744.537086,610.155487,744.249632,609.481008,744.340770,608.802010C744.431907,608.123012,744.887044,607.548206,745.527057,607.303812C746.167069,607.059418,746.889489,607.184565,747.410000,607.630000L786,638.060000C786.627165,638.553133,786.872396,639.389857,786.610645,640.143518C786.348895,640.897178,785.637818,641.401771,784.840000,641.400000Z" transform="matrix(1 0 0 1 -1326.42739113500056 4.28864456000008)" fill="rgb(97,139,119)" stroke="none" stroke-width="1"/>
            </g>
            <g id="erqlesk3yzf41">
                <path id="erqlesk3yzf42" d="M1357.240000,435C1356.903308,434.340831,1356.230090,433.921512,1355.490000,433.910000L1336,433.910000C1315.450000,444.020000,1275.880000,465.370000,1275.880000,465.370000L1298.880000,465.370000C1300.057977,465.360624,1301.217965,465.080037,1302.270000,464.550000L1356.270000,437.620000C1357.250819,437.154666,1357.681326,435.991853,1357.240000,435Z" transform="matrix(1 0 0 1 -871.98249742999985 -115.85414760499947)" fill="rgb(64,59,59)" stroke="none" stroke-width="1"/>
                <path id="erqlesk3yzf43" d="M1515.830000,433.930000L1445.270000,433.930000C1440.851722,433.930000,1437.270000,437.511722,1437.270000,441.930000L1437.270000,457.520000C1437.270000,461.938278,1440.851722,465.520000,1445.270000,465.520000L1515.830000,465.520000C1519.830000,465.520000,1523.080000,462.900000,1523.080000,459.610000L1523.080000,439.840000C1523.120000,436.550000,1519.840000,433.930000,1515.830000,433.930000Z" transform="matrix(1 0 0 1 -871.98249742999985 -115.85414760499947)" fill="rgb(64,59,59)" stroke="none" stroke-width="1"/>
                <path id="erqlesk3yzf44" d="M1418.830000,434L1400,434C1385.690000,434,1374,440.250000,1360.760000,446L1335.350000,458.580000C1334.856887,458.822807,1334.418064,459.162980,1334.060000,459.580000C1331.960000,461.960000,1333.960000,465.490000,1337.830000,465.490000L1418.830000,465.490000C1420.043774,465.490003,1421.207689,465.007150,1422.065019,464.147944C1422.922348,463.288739,1423.402656,462.123771,1423.400000,460.910000L1423.400000,438.530000C1423.378045,436.021694,1421.338402,433.999904,1418.830000,434Z" transform="matrix(1 0 0 1 -871.98249742999985 -115.85414760499947)" fill="rgb(64,59,59)" stroke="none" stroke-width="1"/>
                <path id="erqlesk3yzf45" d="M1538.140000,435.640000C1536.255991,437.148351,1535.153606,439.426615,1535.140000,441.840000L1535.140000,457.430000C1535.140000,461.848278,1538.721722,465.430000,1543.140000,465.430000L1570.370000,465.430000C1559.310000,455.330000,1541.290000,438.600000,1538.140000,435.640000Z" transform="matrix(1 0 0 1 -871.98249742999985 -115.85414760499947)" fill="rgb(64,59,59)" stroke="none" stroke-width="1"/>
                <rect id="erqlesk3yzf46" width="388.760000" height="56.020000" rx="0" ry="0" transform="matrix(1 0 0 1 304.64750257000026 383.09585239999961)" fill="rgb(154,40,66)" stroke="none" stroke-width="1"/>
                <path id="erqlesk3yzf47" d="M1170.330000,489C1165.466092,494.591287,1163.001388,501.874022,1163.470000,509.270000L1163.610000,511.560000L1163.610000,511.560000C1163.850000,511.560000,1164.140000,511.610000,1164.380000,511.610000L1174,511.610000C1180.839727,511.417561,1186.284507,505.817433,1186.284507,498.975000C1186.284507,492.132567,1180.839727,486.532439,1174,486.340000L1172.850000,486.340000C1171.962962,487.180890,1171.121750,488.068837,1170.330000,489Z" transform="matrix(1 0 0 1 -871.98249742999985 -115.85414760499947)" fill="rgb(250,213,225)" stroke="none" stroke-width="1"/>
                <path id="erqlesk3yzf48" d="M1580.360000,476.650000L1571.110000,476.650000C1567.955487,476.660972,1565.400972,479.215487,1565.390000,482.370000L1565.390000,495.860000C1565.400972,499.014513,1567.955487,501.569028,1571.110000,501.580000L1580.110000,501.580000C1580.360000,499.870000,1582.270000,484.610000,1580.360000,476.650000Z" transform="matrix(1 0 0 1 -871.98249742999985 -115.85414760499947)" fill="rgb(155,40,67)" stroke="none" stroke-width="1"/>
                <path id="erqlesk3yzf49" d="M1521.810000,422.820000C1522,422.870000,1522.190000,422.870000,1522.430000,422.910000L1519.950000,418.190000C1518.776718,415.967226,1516.026055,415.112955,1513.800000,416.280000L1513.800000,416.280000L1502.880000,422C1513.370000,422.390000,1521.810000,422.820000,1521.810000,422.820000Z" transform="matrix(1 0 0 1 -871.98249742999985 -115.85414760499947)" fill="rgb(64,59,59)" stroke="none" stroke-width="1"/>
                <path id="erqlesk3yzf50" style="isolation:isolate" d="M1524.620000,465.250000C1524.085547,465.347080,1523.543184,465.393951,1523,465.390000L1505.120000,465.390000L1466.460000,433.930000L1486.190000,433.930000Z" transform="matrix(1 0 0 1 -1111.98000000000002 -115.85414760499947)" opacity="0" fill="rgb(255,255,255)" stroke="none" stroke-width="1"/>
                <path id="erqlesk3yzf51" style="isolation:isolate" d="M1524.620000,465.250000C1524.085547,465.347080,1523.543184,465.393951,1523,465.390000L1505.120000,465.390000L1466.460000,433.930000L1486.190000,433.930000Z" transform="matrix(1 0 0 1 -871.98249742999985 -115.85414760499947)" opacity="0.2" fill="rgb(255,255,255)" stroke="none" stroke-width="1"/>
                <path id="erqlesk3yzf52" style="isolation:isolate" d="M1490.750000,465.280000C1490.214781,465.371235,1489.672936,465.418061,1489.130000,465.420000L1479.870000,465.420000L1443.520000,434L1452.320000,434Z" transform="matrix(1 0 0 1 -871.98249742999985 -115.85414760499947)" opacity="0.2" fill="rgb(255,255,255)" stroke="none" stroke-width="1"/>
                <path id="erqlesk3yzf53" style="isolation:isolate" d="M1490.750000,465.280000C1490.214781,465.371235,1489.672936,465.418061,1489.130000,465.420000L1479.870000,465.420000L1443.520000,434L1452.320000,434Z" transform="matrix(1 0 0 1 -1111.98500000000013 -115.85414760499947)" opacity="0" fill="rgb(255,255,255)" stroke="none" stroke-width="1"/>
                <path id="erqlesk3yzf54" d="M1586.510000,517.890000L1586.230000,508.020000C1586.142061,504.652200,1583.446977,501.935205,1580.080000,501.820000C1576.713023,501.704795,1583.470000,476.930000,1578.270000,472.640000C1577.020000,471.640000,1574,468.900000,1570.150000,465.390000L1543.070000,465.390000C1538.651722,465.390000,1535.070000,461.808278,1535.070000,457.390000L1535.070000,441.840000C1535.087875,439.467981,1536.157479,437.226208,1537.990000,435.720000L1537.560000,435.310000C1539.990000,433.690000,1538.420000,431.830000,1536.420000,430.020000C1533.600000,427.450000,1533.420000,427.400000,1532.070000,426.020000C1529.500000,423.440000,1526.210000,423.580000,1521.730000,422.920000C1521.730000,422.820000,1496.170000,421.480000,1478.860000,421.480000L1384.650000,421.480000C1384.650000,421.480000,1358.760000,423.630000,1344.320000,429.970000C1341.640000,431.150000,1337.770000,432.970000,1333.230000,435.290000L1335.970000,433.930000L1355.420000,433.930000C1356.164100,433.927653,1356.843979,434.351120,1357.170000,435.020000C1357.629297,435.993334,1357.235982,437.155601,1356.280000,437.650000L1302.280000,464.580000C1301.231612,465.110242,1300.074815,465.390886,1298.900000,465.400000L1275.900000,465.400000L1275.810000,465.400000C1275.810000,465.400000,1222.510000,468.980000,1202.440000,473.460000C1190.810000,476.080000,1181.320000,476.410000,1170.260000,489.010000C1165.388295,494.593369,1162.919149,501.875014,1163.390000,509.270000L1163.530000,511.560000C1159.431383,517.343734,1157.217326,524.251313,1157.190000,531.340000C1157.190000,549.340000,1162.340000,558.790000,1174.550000,558.750000L1185.850000,558.750000C1185.850000,558.750000,1181.320000,508.500000,1227.510000,507.020000C1274.510000,505.550000,1271.370000,558.280000,1271.370000,558.280000L1467.430000,558.280000C1467.430000,558.280000,1459.370000,506.880000,1509.960000,506.790000C1560.550000,506.700000,1552.820000,558.610000,1552.820000,558.610000C1552.820000,558.610000,1571.410000,560.240000,1580.090000,544.610000C1588.770000,528.980000,1586.510000,517.890000,1586.510000,517.890000ZM1423.400000,460.820000C1423.400006,463.345564,1421.355558,465.394486,1418.830000,465.400000L1337.830000,465.400000C1333.960000,465.400000,1331.960000,461.860000,1334.060000,459.480000C1334.416698,459.061546,1334.855839,458.721127,1335.350000,458.480000L1360.760000,445.890000C1373.960000,440.120000,1385.690000,433.890000,1400,433.890000L1418.830000,433.890000C1421.353941,433.890000,1423.400000,435.936059,1423.400000,438.460000ZM1523.050000,459.530000C1523.050000,462.820000,1519.810000,465.440000,1515.800000,465.440000L1445.240000,465.440000C1440.821722,465.440000,1437.240000,461.858278,1437.240000,457.440000L1437.240000,441.890000C1437.240000,437.471722,1440.821722,433.890000,1445.240000,433.890000L1515.800000,433.890000C1519.800000,433.890000,1523.100000,436.510000,1523.050000,439.800000Z" transform="matrix(1 0 0 1 -871.98249742999826 -115.85414760499924)" fill="rgb(232,60,92)" stroke="none" stroke-width="1"/>
                <path id="erqlesk3yzf55" d="M1415.060000,492L1397.520000,492C1395.942744,491.994514,1394.665486,490.717256,1394.660000,489.140000L1394.660000,489.140000C1394.660000,487.560466,1395.940466,486.280000,1397.520000,486.280000L1415.060000,486.280000C1416.639534,486.280000,1417.920000,487.560466,1417.920000,489.140000L1417.920000,489.140000C1417.914514,490.717256,1416.637256,491.994514,1415.060000,492Z" transform="matrix(1 0 0 1 -871.98249742999985 -115.85414760499947)" fill="rgb(64,59,59)" stroke="none" stroke-width="1"/>
                <path id="erqlesk3yzf56" d="M1463.600000,492L1446.050000,492C1444.472744,491.994514,1443.195486,490.717256,1443.190000,489.140000L1443.190000,489.140000C1443.195486,487.562744,1444.472744,486.285486,1446.050000,486.280000L1463.600000,486.280000C1465.177256,486.285486,1466.454514,487.562744,1466.460000,489.140000L1466.460000,489.140000C1466.418049,490.701828,1465.161828,491.958049,1463.600000,492Z" transform="matrix(1 0 0 1 -871.98249742999985 -115.85414760499947)" fill="rgb(64,59,59)" stroke="none" stroke-width="1"/>
                <path id="erqlesk3yzf57" d="M1172.400000,486.770000C1167.950000,490.550000,1162.900000,499.420000,1163.400000,506.770000L1163.470000,509.410000L1165.790000,509.460000C1166.030000,509.460000,1166.310000,509.510000,1166.550000,509.510000L1176.180000,509.510000C1183.019727,509.317561,1188.464507,503.717433,1188.464507,496.875000C1188.464507,490.032567,1183.019727,484.432439,1176.180000,484.240000L1175,484.240000C1174.130000,485.110000,1173.500000,485.650000,1172.400000,486.770000Z" transform="matrix(1 0 0 1 -871.98249742999985 -115.85414760499947)" fill="rgb(250,213,225)" stroke="none" stroke-width="1"/>
                <path id="erqlesk3yzf58" d="M1579.760000,474.670000L1570.510000,474.670000C1567.355487,474.680972,1564.800972,477.235487,1564.790000,480.390000L1564.790000,493.880000C1564.800972,497.034513,1567.355487,499.589028,1570.510000,499.600000L1580.370000,499.600000C1580.600000,497.890000,1582.520000,482.920000,1579.760000,474.670000Z" transform="matrix(1 0 0 1 -871.98249742999985 -115.85414760499947)" fill="rgb(155,40,67)" stroke="none" stroke-width="1"/>
            </g>
            <g id="erqlesk3yzf59">
                <circle id="erqlesk3yzf60" r="35.900000" transform="matrix(1 0 0 1 356.61750257000006 431.68585239500038)" fill="rgb(64,59,59)" stroke="none" stroke-width="1"/>
                <circle id="erqlesk3yzf61" r="35.900000" transform="matrix(1 0 0 1 638.52750257000014 431.68585239500038)" fill="rgb(64,59,59)" stroke="none" stroke-width="1"/>
                <circle id="erqlesk3yzf62" style="isolation:isolate" r="20.840000" transform="matrix(1 0 0 1 356.61750257000006 431.68585239500038)" opacity="0.3" fill="rgb(255,255,255)" stroke="none" stroke-width="1"/>
                <circle id="erqlesk3yzf63" style="isolation:isolate" r="20.840000" transform="matrix(1 0 0 1 638.52750257000014 431.68585239500038)" opacity="0.3" fill="rgb(255,255,255)" stroke="none" stroke-width="1"/>
            </g>
            <g id="erqlesk3yzf64">
                <path id="erqlesk3yzf65" d="M897.290000,408.870000C901.820000,409.980000,908.620000,412.370000,914.060000,418.110000C926.800000,431.540000,917.480000,447.890000,924.320000,474.700000C931.160000,501.510000,945.520000,504.480000,944.320000,521.700000C943.320000,536.580000,931.650000,549.460000,914.870000,560.500000C910.180000,562.810000,909.100000,565.010000,908.870000,566.500000C908.480000,569.650000,911.780000,571.300000,913.650000,576.930000C914.421891,579.423881,914.760132,582.031719,914.650000,584.640000C914.120000,591.710000,901.500000,598.730000,884.220000,601.640000C869.380000,601.360000,856.580000,594.100000,852.110000,582.990000C847.750000,572.130000,850.650000,555.860000,857.180000,553.440000C858.010000,553.140000,858.270000,553.290000,858.580000,552.950000C862.010000,549.210000,834.220000,528.450000,826.580000,497.020000C824.340000,487.760000,821.310000,475.250000,827.910000,466.340000C836.910000,454.170000,854.660000,461.100000,863.020000,448.820000C870.150000,438.340000,861.290000,427.310000,868.450000,417.550000C874.820000,409.120000,888,408.390000,897.290000,408.870000Z" transform="matrix(1 0 0 1 -1326.42739113500056 4.28864456000008)" fill="rgb(97,139,119)" stroke="none" stroke-width="1"/>
                <path id="erqlesk3yzf66" d="M885.150000,686.330000C886.443235,686.297299,887.471330,685.233599,887.460000,683.940000L885.890000,426.460000C885.890051,425.831508,885.638349,425.229185,885.191128,424.787602C884.743908,424.346019,884.138440,424.101977,883.510000,424.110000L883.510000,424.110000C882.222288,424.142699,881.198669,425.201922,881.210000,426.490000L882.720000,684C882.722647,684.628565,882.974884,685.230333,883.421222,685.672920C883.867560,686.115507,884.471435,686.362658,885.100000,686.360000Z" transform="matrix(1 0 0 1 -1326.42739113500056 4.28864456000008)" fill="rgb(231,58,90)" stroke="none" stroke-width="1"/>
                <path id="erqlesk3yzf67" d="M885.390000,502C885.959903,502.001009,886.510754,501.794885,886.940000,501.420000L917.940000,474.530000C918.928590,473.671197,919.033803,472.173590,918.175000,471.185000C917.316197,470.196410,915.818590,470.091197,914.830000,470.950000L883.830000,497.840000C883.083382,498.487895,882.817320,499.531156,883.162466,500.457483C883.507612,501.383809,884.391464,501.998617,885.380000,502Z" transform="matrix(1 0 0 1 -1326.42739113500056 4.28864456000008)" fill="rgb(231,58,90)" stroke="none" stroke-width="1"/>
                <path id="erqlesk3yzf68" d="M885,574C885.529076,574.002438,886.043495,573.826268,886.460000,573.500000L935.250000,535C935.958185,534.491489,936.329997,533.635215,936.218057,532.770588C936.106117,531.905961,935.528501,531.172606,934.714165,530.861210C933.899829,530.549814,932.980277,530.710663,932.320000,531.280000L883.480000,569.840000C882.725861,570.479462,882.450294,571.521240,882.789628,572.449944C883.128961,573.378647,884.011248,573.997364,885,574Z" transform="matrix(1 0 0 1 -1326.42739113500056 4.28864456000008)" fill="rgb(231,58,90)" stroke="none" stroke-width="1"/>
                <path id="erqlesk3yzf69" d="M890,408.830000C890,408.830000,864.060000,407.930000,865.630000,429.130000L865.820000,442.330000C865.250000,443,865.720000,448.610000,857.820000,453.860000C849.920000,459.110000,834.720000,455.910000,828.640000,465.660000C822.560000,475.410000,823.890000,477.780000,824.290000,484.090000C824.690000,490.400000,828.190000,503.530000,829.150000,505.950000C830.110000,508.370000,832.610000,519.100000,854.810000,545.220000C854.810000,545.220000,860.150000,551.290000,858.730000,552.960000C858.730000,552.960000,851.090000,552.960000,850.210000,569.840000C849.330000,586.720000,860.820000,594,860.820000,594C860.820000,594,870.030000,601.480000,881.040000,601.480000C881.040000,601.480000,850.600000,576.740000,863.290000,562.130000C880.010000,542.870000,848.130000,511.580000,848.130000,511.580000C848.130000,511.580000,824,475.690000,842.350000,471C860.700000,466.310000,880.750000,459.760000,876.730000,446.830000C872.710000,433.900000,883.830000,409.690000,890,408.830000Z" transform="matrix(1 0 0 1 -1326.42739113500056 4.28864456000008)" fill="rgb(160,185,173)" stroke="none" stroke-width="1"/>
                <path id="erqlesk3yzf70" d="M884.850000,529.730000C885.891829,529.733347,886.813673,529.055934,887.121677,528.060669C887.429680,527.065404,887.051607,525.985707,886.190000,525.400000L834.260000,489.720000C833.561546,489.239478,832.659792,489.168078,831.894420,489.532696C831.129049,489.897314,830.616338,490.642556,830.549420,491.487696C830.482503,492.332836,830.871546,493.149478,831.570000,493.630000L883.510000,529.310000C883.903702,529.582726,884.371064,529.729213,884.850000,529.730000Z" transform="matrix(1 0 0 1 -1326.42739113500056 4.28864456000008)" fill="rgb(231,58,90)" stroke="none" stroke-width="1"/>
            </g>
            <g id="erqlesk3yzf71" transform="matrix(1 0 0 1 -0.00131348000002 69.99938965000001)">
                <path id="erqlesk3yzf72" d="M716.940000,465.300000C711.761384,466.455009,707.021454,469.067869,703.280000,472.830000C692.900000,483.780000,700.490000,497.100000,694.920000,518.940000C689.350000,540.780000,677.640000,543.210000,678.580000,557.250000C679.390000,569.370000,688.910000,579.860000,702.580000,588.860000C706.390000,590.740000,707.280000,592.540000,707.430000,593.770000C707.750000,596.340000,705.060000,597.680000,703.540000,602.260000C702.894018,604.291671,702.603091,606.419492,702.680000,608.550000C703.120000,614.310000,713.400000,620.030000,727.480000,622.380000C739.570000,622.150000,750,616.230000,753.640000,607.180000C757.190000,598.330000,754.830000,585.070000,749.510000,583.110000C748.830000,582.860000,748.620000,582.980000,748.370000,582.700000C745.570000,579.700000,768.220000,562.700000,774.370000,537.130000C776.200000,529.590000,778.660000,519.400000,773.280000,512.130000C765.940000,502.210000,751.490000,507.860000,744.680000,497.860000C738.870000,489.310000,746.090000,480.320000,740.260000,472.370000C735.250000,465.510000,724.490000,464.920000,716.940000,465.300000Z" transform="matrix(1 0 0 1 -1326.42739113500056 4.28864456000008)" fill="rgb(97,139,119)" stroke="none" stroke-width="1"/>
                <path id="erqlesk3yzf73" d="M729.560000,691.350000C728.509518,691.350226,727.651772,690.510256,727.630000,689.460000L723.550000,479.710000C723.531132,479.192984,723.720628,478.690040,724.075970,478.314016C724.431312,477.937993,724.922744,477.720378,725.440000,477.710000L725.440000,477.710000C726.490482,477.709774,727.348228,478.549744,727.370000,479.600000L731.450000,689.350000C731.468868,689.867016,731.279372,690.369960,730.924030,690.745984C730.568688,691.122007,730.077256,691.339622,729.560000,691.350000Z" transform="matrix(1 0 0 1 -1326.42739113500056 4.28864456000008)" fill="rgb(231,58,90)" stroke="none" stroke-width="1"/>
                <path id="erqlesk3yzf74" d="M727.080000,563.770000C726.233624,563.772644,725.484277,563.223533,725.231823,562.415680C724.979370,561.607827,725.282719,560.729748,725.980000,560.250000L768.300000,531.180000C769.178133,530.575248,770.380248,530.796867,770.985000,531.675000C771.589752,532.553133,771.368133,533.755248,770.490000,534.360000L728.170000,563.440000C727.846325,563.653308,727.467636,563.767957,727.080000,563.770000Z" transform="matrix(1 0 0 1 -1326.42739113500056 4.28864456000008)" fill="rgb(231,58,90)" stroke="none" stroke-width="1"/>
                <path id="erqlesk3yzf75" d="M716.940000,465.300000C716.940000,465.300000,697.140000,467.860000,697.380000,488.800000C697.490000,498.480000,697.300000,505.720000,696.220000,512.660000C694.980000,520.660000,692.460000,528.180000,686.320000,538.080000C683.560000,542.530000,680.710000,545.820000,679.420000,549.870000C675.360000,562.590000,680.480000,574.870000,702.710000,588.870000C702.710000,588.870000,705.850000,590.380000,706.940000,592.290000C707.710000,593.640000,707.600000,595.090000,705.800000,597.780000C703.260000,601.050000,701.500000,605.720000,703,609.970000C704.410000,613.970000,708.680000,617.520000,717.430000,619.890000C717.430000,619.890000,702.580000,610.670000,710.610000,595.110000C718.640000,579.550000,687.380000,571.880000,689.080000,558.110000C690.780000,544.340000,711.460000,526.490000,708.540000,512.990000C705.620000,499.490000,698.350000,476.410000,716.940000,465.300000Z" transform="matrix(1 0 0 1 -1326.42739113500056 4.28864456000008)" fill="rgb(160,185,173)" stroke="none" stroke-width="1"/>
                <path id="erqlesk3yzf76" d="M726.640000,541.150000C726.173795,541.151865,725.722672,540.984914,725.370000,540.680000L700.100000,518.770000C699.293664,518.071360,699.206360,516.851336,699.905000,516.045000C700.603640,515.238664,701.823664,515.151360,702.630000,515.850000L727.900000,537.760000C728.509525,538.286970,728.727539,539.137144,728.446823,539.892403C728.166107,540.647663,727.445740,541.149057,726.640000,541.150000Z" transform="matrix(1 0 0 1 -1326.42739113500056 4.28864456000008)" fill="rgb(231,58,90)" stroke="none" stroke-width="1"/>
                <path id="erqlesk3yzf77" d="M727,599.880000C726.565365,599.881616,726.142778,599.737232,725.800000,599.470000L686,568.050000C685.371904,567.655962,685.025074,566.936937,685.107676,566.200087C685.190277,565.463237,685.687703,564.838853,686.387456,564.593668C687.087209,564.348483,687.865560,564.525850,688.390000,565.050000L728.190000,596.470000C728.831666,596.980782,729.080441,597.841310,728.810309,598.615689C728.540177,599.390068,727.810142,599.909151,726.990000,599.910000Z" transform="matrix(1 0 0 1 -1326.42739113500056 4.28864456000008)" fill="rgb(231,58,90)" stroke="none" stroke-width="1"/>
                <path id="erqlesk3yzf78" d="M775.060000,511C770.038332,512.114353,765.442640,514.648231,761.820000,518.300000C751.760000,528.900000,759.120000,541.800000,753.720000,562.960000C748.320000,584.120000,737,586.490000,737.890000,600.090000C738.680000,611.840000,747.890000,622,761.140000,630.720000C764.840000,632.540000,765.690000,634.280000,765.840000,635.480000C766.150000,637.960000,763.550000,639.270000,762.070000,643.710000C761.446233,645.677403,761.165474,647.737428,761.240000,649.800000C761.660000,655.380000,771.620000,660.920000,785.240000,663.190000C796.950000,662.970000,807.050000,657.190000,810.580000,648.470000C814.020000,639.900000,811.730000,627.050000,806.580000,625.150000C805.920000,624.910000,805.720000,625.030000,805.470000,624.760000C802.760000,621.760000,824.700000,605.420000,830.700000,580.610000C832.470000,573.300000,834.860000,563.430000,829.650000,556.390000C822.540000,546.790000,808.540000,552.260000,801.940000,542.570000C796.300000,534.290000,803.300000,525.570000,797.650000,517.880000C792.790000,511.220000,782.370000,510.650000,775.060000,511Z" transform="matrix(1 0 0 1 -1326.42739113500056 4.28864456000008)" fill="rgb(231,58,90)" stroke="none" stroke-width="1"/>
                <path id="erqlesk3yzf79" d="M787.280000,730C786.261017,729.994810,785.431668,729.178765,785.410000,728.160000L781.460000,525C781.443257,523.971006,782.261102,523.121877,783.290000,523.100000L783.290000,523.100000C784.307351,523.099767,785.138239,523.912882,785.160000,524.930000L789.110000,728.140000C789.120723,728.635987,788.933918,729.115908,788.590702,729.474128C788.247486,729.832348,787.775992,730.039504,787.280000,730.050000Z" transform="matrix(1 0 0 1 -1326.42739113500056 4.28864456000008)" fill="rgb(97,139,119)" stroke="none" stroke-width="1"/>
                <path id="erqlesk3yzf80" d="M784.880000,606.420000C784.061348,606.419649,783.338096,605.886844,783.095087,605.105090C782.852079,604.323337,783.145816,603.474400,783.820000,603.010000L824.820000,574.840000C825.369810,574.443413,826.091198,574.375446,826.705406,574.662362C827.319614,574.949278,827.730440,575.546139,827.779133,576.222305C827.827826,576.898472,827.506760,577.548038,826.940000,577.920000L785.940000,606.090000C785.626872,606.301981,785.258120,606.416781,784.880000,606.420000Z" transform="matrix(1 0 0 1 -1326.42739113500056 4.28864456000008)" fill="rgb(97,139,119)" stroke="none" stroke-width="1"/>
                <path id="erqlesk3yzf81" d="M775.060000,511C775.060000,511,755.870000,513.480000,756.110000,533.770000C756.210000,543.140000,756.030000,550.160000,754.980000,556.880000C753.780000,564.610000,751.340000,571.880000,745.390000,581.510000C742.720000,585.820000,739.950000,589.010000,738.700000,592.930000C734.770000,605.260000,739.700000,617.110000,761.260000,630.760000C761.260000,630.760000,764.260000,632.230000,765.370000,634.080000C766.110000,635.380000,766,636.780000,764.260000,639.390000C761.800000,642.560000,760.090000,647.080000,761.550000,651.200000C762.920000,655.040000,767.050000,658.520000,775.550000,660.810000C775.550000,660.810000,761.160000,651.880000,768.940000,636.810000C776.720000,621.740000,746.440000,614.310000,748.090000,600.990000C749.740000,587.670000,769.770000,570.360000,766.940000,557.280000C764.110000,544.200000,757,521.780000,775.060000,511Z" transform="matrix(1 0 0 1 -1326.42739113500056 4.28864456000008)" fill="rgb(240,137,156)" stroke="none" stroke-width="1"/>
                <path id="erqlesk3yzf82" d="M784.450000,584.500000C783.997708,584.501315,783.560434,584.337782,783.220000,584.040000L758.740000,562.820000C757.958517,562.143451,757.873451,560.961483,758.550000,560.180000C759.226549,559.398517,760.408517,559.313451,761.190000,559.990000L785.670000,581.220000C786.048032,581.543159,786.280901,582.004252,786.316602,582.500301C786.352302,582.996351,786.187860,583.486038,785.860000,583.860000C785.503755,584.265971,784.990113,584.499114,784.450000,584.500000Z" transform="matrix(1 0 0 1 -1326.42739113500056 4.28864456000008)" fill="rgb(97,139,119)" stroke="none" stroke-width="1"/>
                <path id="erqlesk3yzf83" d="M784.800000,641.400000C784.379479,641.400154,783.971048,641.259316,783.640000,641L745.090000,610.560000C744.537086,610.155487,744.249632,609.481008,744.340770,608.802010C744.431907,608.123012,744.887044,607.548206,745.527057,607.303812C746.167069,607.059418,746.889489,607.184565,747.410000,607.630000L786,638.060000C786.627165,638.553133,786.872396,639.389857,786.610645,640.143518C786.348895,640.897178,785.637818,641.401771,784.840000,641.400000Z" transform="matrix(1 0 0 1 -1326.42739113500056 4.28864456000008)" fill="rgb(97,139,119)" stroke="none" stroke-width="1"/>
            </g>
            <g id="erqlesk3yzf84">
                <path id="erqlesk3yzf85" d="M897.290000,408.870000C901.820000,409.980000,908.620000,412.370000,914.060000,418.110000C926.800000,431.540000,917.480000,447.890000,924.320000,474.700000C931.160000,501.510000,945.520000,504.480000,944.320000,521.700000C943.320000,536.580000,931.650000,549.460000,914.870000,560.500000C910.180000,562.810000,909.100000,565.010000,908.870000,566.500000C908.480000,569.650000,911.780000,571.300000,913.650000,576.930000C914.421891,579.423881,914.760132,582.031719,914.650000,584.640000C914.120000,591.710000,901.500000,598.730000,884.220000,601.640000C869.380000,601.360000,856.580000,594.100000,852.110000,582.990000C847.750000,572.130000,850.650000,555.860000,857.180000,553.440000C858.010000,553.140000,858.270000,553.290000,858.580000,552.950000C862.010000,549.210000,834.220000,528.450000,826.580000,497.020000C824.340000,487.760000,821.310000,475.250000,827.910000,466.340000C836.910000,454.170000,854.660000,461.100000,863.020000,448.820000C870.150000,438.340000,861.290000,427.310000,868.450000,417.550000C874.820000,409.120000,888,408.390000,897.290000,408.870000Z" transform="matrix(1 0 0 1 -1326.42739113500056 4.28864456000008)" fill="rgb(97,139,119)" stroke="none" stroke-width="1"/>
                <path id="erqlesk3yzf86" d="M885.150000,686.330000C886.443235,686.297299,887.471330,685.233599,887.460000,683.940000L885.890000,426.460000C885.890051,425.831508,885.638349,425.229185,885.191128,424.787602C884.743908,424.346019,884.138440,424.101977,883.510000,424.110000L883.510000,424.110000C882.222288,424.142699,881.198669,425.201922,881.210000,426.490000L882.720000,684C882.722647,684.628565,882.974884,685.230333,883.421222,685.672920C883.867560,686.115507,884.471435,686.362658,885.100000,686.360000Z" transform="matrix(1 0 0 1 -1326.42739113500056 4.28864456000008)" fill="rgb(231,58,90)" stroke="none" stroke-width="1"/>
                <path id="erqlesk3yzf87" d="M885.390000,502C885.959903,502.001009,886.510754,501.794885,886.940000,501.420000L917.940000,474.530000C918.928590,473.671197,919.033803,472.173590,918.175000,471.185000C917.316197,470.196410,915.818590,470.091197,914.830000,470.950000L883.830000,497.840000C883.083382,498.487895,882.817320,499.531156,883.162466,500.457483C883.507612,501.383809,884.391464,501.998617,885.380000,502Z" transform="matrix(1 0 0 1 -1326.42739113500056 4.28864456000008)" fill="rgb(231,58,90)" stroke="none" stroke-width="1"/>
                <path id="erqlesk3yzf88" d="M885,574C885.529076,574.002438,886.043495,573.826268,886.460000,573.500000L935.250000,535C935.958185,534.491489,936.329997,533.635215,936.218057,532.770588C936.106117,531.905961,935.528501,531.172606,934.714165,530.861210C933.899829,530.549814,932.980277,530.710663,932.320000,531.280000L883.480000,569.840000C882.725861,570.479462,882.450294,571.521240,882.789628,572.449944C883.128961,573.378647,884.011248,573.997364,885,574Z" transform="matrix(1 0 0 1 -1326.42739113500056 4.28864456000008)" fill="rgb(231,58,90)" stroke="none" stroke-width="1"/>
                <path id="erqlesk3yzf89" d="M890,408.830000C890,408.830000,864.060000,407.930000,865.630000,429.130000L865.820000,442.330000C865.250000,443,865.720000,448.610000,857.820000,453.860000C849.920000,459.110000,834.720000,455.910000,828.640000,465.660000C822.560000,475.410000,823.890000,477.780000,824.290000,484.090000C824.690000,490.400000,828.190000,503.530000,829.150000,505.950000C830.110000,508.370000,832.610000,519.100000,854.810000,545.220000C854.810000,545.220000,860.150000,551.290000,858.730000,552.960000C858.730000,552.960000,851.090000,552.960000,850.210000,569.840000C849.330000,586.720000,860.820000,594,860.820000,594C860.820000,594,870.030000,601.480000,881.040000,601.480000C881.040000,601.480000,850.600000,576.740000,863.290000,562.130000C880.010000,542.870000,848.130000,511.580000,848.130000,511.580000C848.130000,511.580000,824,475.690000,842.350000,471C860.700000,466.310000,880.750000,459.760000,876.730000,446.830000C872.710000,433.900000,883.830000,409.690000,890,408.830000Z" transform="matrix(1 0 0 1 -1326.42739113500056 4.28864456000008)" fill="rgb(160,185,173)" stroke="none" stroke-width="1"/>
                <path id="erqlesk3yzf90" d="M884.850000,529.730000C885.891829,529.733347,886.813673,529.055934,887.121677,528.060669C887.429680,527.065404,887.051607,525.985707,886.190000,525.400000L834.260000,489.720000C833.561546,489.239478,832.659792,489.168078,831.894420,489.532696C831.129049,489.897314,830.616338,490.642556,830.549420,491.487696C830.482503,492.332836,830.871546,493.149478,831.570000,493.630000L883.510000,529.310000C883.903702,529.582726,884.371064,529.729213,884.850000,529.730000Z" transform="matrix(1 0 0 1 -1326.42739113500056 4.28864456000008)" fill="rgb(231,58,90)" stroke="none" stroke-width="1"/>
            </g>
        </g>
    </g>
    <script>
        <![CDATA[!function(t,n){"object"==typeof exports&&"undefined"!=typeof module?module.exports=n():"function"==typeof define&&define.amd?define(n):(t=t||self).__SVGATOR_PLAYER__=n()}(this,(function(){"use strict";function t(n){return(t="function"==typeof Symbol&&"symbol"==typeof Symbol.iterator?function(t){return typeof t}:function(t){return t&&"function"==typeof Symbol&&t.constructor===Symbol&&t!==Symbol.prototype?"symbol":typeof t})(n)}function n(t,n){if(!(t instanceof n))throw new TypeError("Cannot call a class as a function")}function r(t,n){for(var r=0;r<n.length;r++){var e=n[r];e.enumerable=e.enumerable||!1,e.configurable=!0,"value"in e&&(e.writable=!0),Object.defineProperty(t,e.key,e)}}function e(t,n,e){return n&&r(t.prototype,n),e&&r(t,e),t}var i=1e-5,u=Math.abs;function o(t){return t}function a(t,n,r){var e=1-r;return 3*r*e*(t*e+n*r)+r*r*r}function l(){var t=arguments.length>0&&void 0!==arguments[0]?arguments[0]:0,n=arguments.length>1&&void 0!==arguments[1]?arguments[1]:0,r=arguments.length>2&&void 0!==arguments[2]?arguments[2]:1,e=arguments.length>3&&void 0!==arguments[3]?arguments[3]:1;return t<0||t>1||r<0||r>1?null:u(t-n)<=i&&u(r-e)<=i?o:function(o){if(o<=0)return t>0?o*n/t:0===n&&r>0?o*e/r:0;if(o>=1)return r<1?1+(o-1)*(e-1)/(r-1):1===r&&t<1?1+(o-1)*(n-1)/(t-1):1;for(var l,f=0,s=1;f<s;){var c=a(t,r,l=(f+s)/2);if(u(o-c)<i)break;c<o?f=l:s=l}return a(n,e,l)}}function f(){return 1}function s(t){return 1===t?1:0}function c(){var t=arguments.length>0&&void 0!==arguments[0]?arguments[0]:1,n=arguments.length>1&&void 0!==arguments[1]?arguments[1]:0;if(1===t){if(0===n)return s;if(1===n)return f}var r=1/t;return function(t){return t>=1?1:(t+=n*r)-t%r}}function v(t){var n=arguments.length>1&&void 0!==arguments[1]?arguments[1]:2;if(Number.isInteger(t))return t;var r=Math.pow(10,n);return Math.round(t*r)/r}var h=Math.PI/180;function y(t,n,r){return t>=.5?r:n}function d(t,n,r){return 0===t||n===r?n:t*(r-n)+n}function g(t,n,r){var e=d(t,n,r);return e<=0?0:e}function m(t,n,r){return 0===t?n:1===t?r:{x:d(t,n.x,r.x),y:d(t,n.y,r.y)}}function p(t,n,r){return 0===t?n:1===t?r:{x:g(t,n.x,r.x),y:g(t,n.y,r.y)}}function b(t,n,r){var e=function(t,n,r){return Math.round(d(t,n,r))}(t,n,r);return e<=0?0:e>=255?255:e}function w(t,n,r){return 0===t?n:1===t?r:{r:b(t,n.r,r.r),g:b(t,n.g,r.g),b:b(t,n.b,r.b),a:d(t,null==n.a?1:n.a,null==r.a?1:r.a)}}function A(t,n,r){if(0===t)return n;if(1===t)return r;var e=n.length;if(e!==r.length)return y(t,n,r);for(var i=[],u=0;u<e;u++)i.push(w(t,n[u],r[u]));return i}function x(t,n,r){var e=n.length;if(e!==r.length)return y(t,n,r);for(var i=new Array(e),u=0;u<e;u++)i[u]=d(t,n[u],r[u]);return i}function k(t,n){for(var r=[],e=0;e<t;e++)r.push(n);return r}function S(t,n){if(--n<=0)return t;var r=(t=Object.assign([],t)).length;do{for(var e=0;e<r;e++)t.push(t[e])}while(--n>0);return t}var _=6,M=/\.0+$/g;function I(t){return Number.isInteger(t)?t+"":t.toFixed(_).replace(M,"")}function E(t){var n=arguments.length>1&&void 0!==arguments[1]?arguments[1]:" ";return t&&t.length?t.map(I).join(n):""}function F(t){return I(t.x)+","+I(t.y)}function B(t){return t?null==t.a||t.a>=1?"rgb("+t.r+","+t.g+","+t.b+")":"rgba("+t.r+","+t.g+","+t.b+","+t.a+")":"transparent"}var j={f:null,i:p,u:function(t,n){return function(r){var e=n(r);t.setAttribute("rx",I(e.x)),t.setAttribute("ry",I(e.y))}}},q={f:null,i:function(t,n,r){return 0===t?n:1===t?r:{width:g(t,n.width,r.width),height:g(t,n.height,r.height)}},u:function(t,n){return function(r){var e=n(r);t.setAttribute("width",I(e.width)),t.setAttribute("height",I(e.height))}}},P=Math.sin,O=Math.cos,z=Math.acos,L=Math.asin,C=Math.tan,R=Math.atan2,T=Math.PI/180,V=180/Math.PI,D=Math.sqrt,N=function(){function t(){var r=arguments.length>0&&void 0!==arguments[0]?arguments[0]:1,e=arguments.length>1&&void 0!==arguments[1]?arguments[1]:0,i=arguments.length>2&&void 0!==arguments[2]?arguments[2]:0,u=arguments.length>3&&void 0!==arguments[3]?arguments[3]:1,o=arguments.length>4&&void 0!==arguments[4]?arguments[4]:0,a=arguments.length>5&&void 0!==arguments[5]?arguments[5]:0;n(this,t),this.m=[r,e,i,u,o,a],this.i=null,this.w=null,this.s=null}return e(t,[{key:"point",value:function(t,n){var r=this.m;return{x:r[0]*t+r[2]*n+r[4],y:r[1]*t+r[3]*n+r[5]}}},{key:"translateSelf",value:function(){var t=arguments.length>0&&void 0!==arguments[0]?arguments[0]:0,n=arguments.length>1&&void 0!==arguments[1]?arguments[1]:0;if(!t&&!n)return this;var r=this.m;return r[4]+=r[0]*t+r[2]*n,r[5]+=r[1]*t+r[3]*n,this.w=this.s=this.i=null,this}},{key:"rotateSelf",value:function(){var t=arguments.length>0&&void 0!==arguments[0]?arguments[0]:0;if(t%=360){var n=P(t*=T),r=O(t),e=this.m,i=e[0],u=e[1];e[0]=i*r+e[2]*n,e[1]=u*r+e[3]*n,e[2]=e[2]*r-i*n,e[3]=e[3]*r-u*n,this.w=this.s=this.i=null}return this}},{key:"scaleSelf",value:function(){var t=arguments.length>0&&void 0!==arguments[0]?arguments[0]:1,n=arguments.length>1&&void 0!==arguments[1]?arguments[1]:1;if(1!==t||1!==n){var r=this.m;r[0]*=t,r[1]*=t,r[2]*=n,r[3]*=n,this.w=this.s=this.i=null}return this}},{key:"skewSelf",value:function(t,n){if(n%=360,(t%=360)||n){var r=this.m,e=r[0],i=r[1],u=r[2],o=r[3];t&&(t=C(t*T),r[2]+=e*t,r[3]+=i*t),n&&(n=C(n*T),r[0]+=u*n,r[1]+=o*n),this.w=this.s=this.i=null}return this}},{key:"resetSelf",value:function(){var t=arguments.length>0&&void 0!==arguments[0]?arguments[0]:1,n=arguments.length>1&&void 0!==arguments[1]?arguments[1]:0,r=arguments.length>2&&void 0!==arguments[2]?arguments[2]:0,e=arguments.length>3&&void 0!==arguments[3]?arguments[3]:1,i=arguments.length>4&&void 0!==arguments[4]?arguments[4]:0,u=arguments.length>5&&void 0!==arguments[5]?arguments[5]:0,o=this.m;return o[0]=t,o[1]=n,o[2]=r,o[3]=e,o[4]=i,o[5]=u,this.w=this.s=this.i=null,this}},{key:"recomposeSelf",value:function(){var t=arguments.length>0&&void 0!==arguments[0]?arguments[0]:null,n=arguments.length>1&&void 0!==arguments[1]?arguments[1]:null,r=arguments.length>2&&void 0!==arguments[2]?arguments[2]:null,e=arguments.length>3&&void 0!==arguments[3]?arguments[3]:null,i=arguments.length>4&&void 0!==arguments[4]?arguments[4]:null;return this.isIdentity||this.resetSelf(),t&&(t.x||t.y)&&this.translateSelf(t.x,t.y),n&&this.rotateSelf(n),r&&(r.x&&this.skewSelf(r.x,0),r.y&&this.skewSelf(0,r.y)),!e||1===e.x&&1===e.y||this.scaleSelf(e.x,e.y),i&&(i.x||i.y)&&this.translateSelf(i.x,i.y),this}},{key:"decompose",value:function(){var t=arguments.length>0&&void 0!==arguments[0]?arguments[0]:0,n=arguments.length>1&&void 0!==arguments[1]?arguments[1]:0,r=this.m,e=r[0]*r[0]+r[1]*r[1],i=[[r[0],r[1]],[r[2],r[3]]],u=D(e);if(0===u)return{origin:{x:r[4],y:r[5]},translate:{x:t,y:n},scale:{x:0,y:0},skew:{x:0,y:0},rotate:0};i[0][0]/=u,i[0][1]/=u;var o=r[0]*r[3]-r[1]*r[2]<0;o&&(u=-u);var a=i[0][0]*i[1][0]+i[0][1]*i[1][1];i[1][0]-=i[0][0]*a,i[1][1]-=i[0][1]*a;var l=D(i[1][0]*i[1][0]+i[1][1]*i[1][1]);if(0===l)return{origin:{x:r[4],y:r[5]},translate:{x:t,y:n},scale:{x:u,y:0},skew:{x:0,y:0},rotate:0};i[1][0]/=l,i[1][1]/=l,a/=l;var f=0;return i[1][1]<0?(f=z(i[1][1])*V,i[0][1]<0&&(f=360-f)):f=L(i[0][1])*V,o&&(f=-f),a=R(a,D(i[0][0]*i[0][0]+i[0][1]*i[0][1]))*V,{origin:{x:r[4],y:r[5]},translate:{x:t,y:n},scale:{x:u,y:l},skew:{x:a,y:0},rotate:f}}},{key:"toString",value:function(){return null===this.s&&(this.s="matrix("+this.m.map($).join(" ")+")"),this.s}},{key:"determinant",get:function(){var t=this.m;return t[0]*t[3]-t[1]*t[2]}},{key:"isIdentity",get:function(){if(null===this.i){var t=this.m;this.i=1===t[0]&&0===t[1]&&0===t[2]&&1===t[3]&&0===t[4]&&0===t[5]}return this.i}}]),t}(),G=/\.0+$/;function $(t){return Number.isInteger(t)?t:t.toFixed(14).replace(G,"")}Object.freeze({M:2,L:2,Z:0,H:1,V:1,C:6,Q:4,T:2,S:4,A:7});function H(t,n,r){return t+(n-t)*r}function Q(t,n,r){var e=arguments.length>3&&void 0!==arguments[3]&&arguments[3],i={x:H(t.x,n.x,r),y:H(t.y,n.y,r)};return e&&(i.a=function(t,n){return Math.atan2(n.y-t.y,n.x-t.x)}(t,n)),i}function U(t,n,r,e){var i=1-e;return i*i*t+2*i*e*n+e*e*r}function Y(t,n,r,e){return 2*(1-e)*(n-t)+2*e*(r-n)}function Z(t,n,r,e){var i=arguments.length>4&&void 0!==arguments[4]&&arguments[4],u={x:U(t.x,n.x,r.x,e),y:U(t.y,n.y,r.y,e)};return i&&(u.a=function(t,n,r,e){return Math.atan2(Y(t.y,n.y,r.y,e),Y(t.x,n.x,r.x,e))}(t,n,r,e)),u}function J(t,n,r,e,i){var u=i*i;return i*u*(e-t+3*(n-r))+3*u*(t+r-2*n)+3*i*(n-t)+t}function K(t,n,r,e,i){var u=1-i;return 3*(u*u*(n-t)+2*u*i*(r-n)+i*i*(e-r))}function W(t,n,r,e,i){var u=arguments.length>5&&void 0!==arguments[5]&&arguments[5],o={x:J(t.x,n.x,r.x,e.x,i),y:J(t.y,n.y,r.y,e.y,i)};return u&&(o.a=function(t,n,r,e,i){return Math.atan2(K(t.y,n.y,r.y,e.y,i),K(t.x,n.x,r.x,e.x,i))}(t,n,r,e,i)),o}function X(t,n,r){var e,i=arguments.length>3&&void 0!==arguments[3]&&arguments[3];if(nt(n)){if(null!=(e=r).start&&!nt(e))return Z(n,r.start,r,t,i)}else if(nt(r)){if(n.end)return Z(n,n.end,r,t,i)}else{if(n.end)return r.start?W(n,n.end,r.start,r,t,i):Z(n,n.end,r,t,i);if(r.start)return Z(n,r.start,r,t,i)}return Q(n,r,t,i)}function tt(t,n,r){var e=X(t,n,r,!0);return e.a=function(t){return arguments.length>1&&void 0!==arguments[1]&&arguments[1]?t+Math.PI:t}(e.a)/h,e}function nt(t){return!t.type||"corner"===t.type}var rt=new N;var et={f:function(t){return t?t.join(" "):""},i:function(n,r,e){if(0===n)return r;if(1===n)return e;var i=r.length;if(i!==e.length)return y(n,r,e);for(var u,o=new Array(i),a=0;a<i;a++){if((u=t(r[a]))!==t(e[a]))return y(n,r,e);if("number"===u)o[a]=d(n,r[a],e[a]);else{if(r[a]!==e[a])return y(n,r,e);o[a]=r[a]}}return o}},it={f:null,i:x,u:function(t,n){return function(r){var e=n(r);t.setAttribute("x1",I(e[0])),t.setAttribute("y1",I(e[1])),t.setAttribute("x2",I(e[2])),t.setAttribute("y2",I(e[3]))}}},ut={f:I,i:d},ot={f:I,i:function(t,n,r){var e=d(t,n,r);return e<=0?0:e>=1?1:e}},at={f:E,i:function(t,n,r){var e,i,u,o=n.length,a=r.length;if(o!==a)if(0===o)n=k(o=a,0);else if(0===a)a=o,r=k(o,0);else{var l=(u=(e=o)*(i=a)/function(t,n){for(var r;n;)r=n,n=t%n,t=r;return t||1}(e,i))<0?-u:u;n=S(n,Math.floor(l/o)),r=S(r,Math.floor(l/a)),o=a=l}for(var f=[],s=0;s<o;s++)f.push(v(g(t,n[s],r[s]),6));return f}};function lt(t,n,r,e,i,u,o,a){return n=function(t,n,r){for(var e,i,u,o=t.length-1,a={},l=0;l<=o;l++)(e=t[l]).e&&(e.e=n(e.e)),e.v&&"g"===(i=e.v).t&&i.r&&(u=r.getElementById(i.r))&&(a[i.r]=u.querySelectorAll("stop"));return a}(t,e,a),function(e){var i,u=r(e,t,ft);return u?"c"===u.t?B(u.v):"g"===u.t?(n[u.r]&&function(t,n){for(var r=0,e=t.length;r<e;r++)t[r].setAttribute("stop-color",B(n[r]))}(n[u.r],u.v),(i=u.r)?"url(#"+i+")":"none"):"none":"none"}}function ft(t,n,r){if(0===t)return n;if(1===t)return r;if(n&&r){var e=n.t;if(e===r.t)switch(n.t){case"c":return{t:e,v:w(t,n.v,r.v)};case"g":if(n.r===r.r)return{t:e,v:A(t,n.v,r.v),r:n.r}}}return y(t,n,r)}var st={blur:p,brightness:g,contrast:g,"drop-shadow":function(t,n,r){return 0===t?n:1===t?r:{blur:p(t,n.blur,r.blur),offset:m(t,n.offset,r.offset),color:w(t,n.color,r.color)}},grayscale:g,"hue-rotate":d,invert:g,opacity:g,saturate:g,sepia:g};function ct(t,n,r){if(0===t)return n;if(1===t)return r;var e=n.length;if(e!==r.length)return y(t,n,r);for(var i,u=[],o=0;o<e;o++){if(n[o].type!==r[o].type)return n;if(!(i=st[n[o].type]))return y(t,n,r);u.push({type:n.type,value:i(t,n[o].value,r[o].value)})}return u}var vt={blur:function(t){return t?function(n){t.setAttribute("stdDeviation",F(n))}:null},brightness:function(t,n,r){return(t=yt(r,n))?function(n){n=I(n),t.map((function(t){return t.setAttribute("slope",n)}))}:null},contrast:function(t,n,r){return(t=yt(r,n))?function(n){var r=I((1-n)/2);n=I(n),t.map((function(t){t.setAttribute("slope",n),t.setAttribute("intercept",r)}))}:null},"drop-shadow":function(t,n,r){var e=r.getElementById(n+"-blur");if(!e)return null;var i=r.getElementById(n+"-offset");if(!i)return null;var u=r.getElementById(n+"-flood");return u?function(t){e.setAttribute("stdDeviation",F(t.blur)),i.setAttribute("dx",I(t.offset.x)),i.setAttribute("dy",I(t.offset.y)),u.setAttribute("flood-color",B(t.color))}:null},grayscale:function(t){return t?function(n){t.setAttribute("values",E(function(t){return[.2126+.7874*(t=1-t),.7152-.7152*t,.0722-.0722*t,0,0,.2126-.2126*t,.7152+.2848*t,.0722-.0722*t,0,0,.2126-.2126*t,.7152-.7152*t,.0722+.9278*t,0,0,0,0,0,1,0]}(n)))}:null},"hue-rotate":function(t){return t?function(n){return t.setAttribute("values",I(n))}:null},invert:function(t,n,r){return(t=yt(r,n))?function(n){n=I(n)+" "+I(1-n),t.map((function(t){return t.setAttribute("tableValues",n)}))}:null},opacity:function(t,n,r){return(t=r.getElementById(n+"-A"))?function(n){return t.setAttribute("tableValues","0 "+I(n))}:null},saturate:function(t){return t?function(n){return t.setAttribute("values",I(n))}:null},sepia:function(t){return t?function(n){return t.setAttribute("values",E(function(t){return[.393+.607*(t=1-t),.769-.769*t,.189-.189*t,0,0,.349-.349*t,.686+.314*t,.168-.168*t,0,0,.272-.272*t,.534-.534*t,.131+.869*t,0,0,0,0,0,1,0]}(n)))}:null}};var ht=["R","G","B"];function yt(t,n){var r=ht.map((function(r){return t.getElementById(n+"-"+r)||null}));return-1!==r.indexOf(null)?null:r}var dt={fill:lt,"fill-opacity":ot,stroke:lt,"stroke-opacity":ot,"stroke-width":ut,"stroke-dashoffset":{f:I,i:d},"stroke-dasharray":at,opacity:ot,transform:function(n,r,e,i){if(!(n=function(n,r){if(!n||"object"!==t(n))return null;var e=!1;for(var i in n)n.hasOwnProperty(i)&&(n[i]&&n[i].length?(n[i].forEach((function(t){t.e&&(t.e=r(t.e))})),e=!0):delete n[i]);return e?n:null}(n,i)))return null;var u=function(t,i,u){var o=arguments.length>3&&void 0!==arguments[3]?arguments[3]:null;return n[t]?e(i,n[t],u):r&&r[t]?r[t]:o};return r&&r.a&&n.o?function(t){var r=e(t,n.o,tt);return rt.recomposeSelf(r,u("r",t,d,0)+r.a,u("k",t,m),u("s",t,m),u("t",t,m)).toString()}:function(t){return rt.recomposeSelf(u("o",t,X,null),u("r",t,d,0),u("k",t,m),u("s",t,m),u("t",t,m)).toString()}},"#filter":function(t,n,r,e,i,u,o,a){if(!n.items||!t||!t.length)return null;var l=function(t,n){var r=(t=t.map((function(t){return t&&vt[t[0]]?(n.getElementById(t[1]),vt[t[0]](n.getElementById(t[1]),t[1],n)):null}))).length;return function(n){for(var e=0;e<r;e++)t[e]&&t[e](n[e].value)}}(n.items,a);return l?(t=function(t,n){return t.map((function(t){return t.e=n(t.e),t}))}(t,e),function(n){l(r(n,t,ct))}):null},"#line":it,points:{f:E,i:x},d:et,r:ut,"#size":q,"#radius":j,_:function(t,n){if(Array.isArray(t))for(var r=0;r<t.length;r++)this[t[r]]=n;else this[t]=n}},gt=function(){function t(r){n(this,t),this.list=r,this.length=r.length}return e(t,[{key:"setAttribute",value:function(t,n){for(var r=this.list,e=0;e<this.length;e++)r[e].setAttribute(t,n)}},{key:"removeAttribute",value:function(t){for(var n=this.list,r=0;r<this.length;r++)n[r].removeAttribute(t)}},{key:"style",value:function(t,n){for(var r=this.list,e=0;e<this.length;e++)r[e].style[t]=n}}]),t}(),mt=/-./g,pt=function(t,n){return n.toUpperCase()};function bt(t){return"function"==typeof t?t:y}function wt(t){return t?"function"==typeof t?t:Array.isArray(t)?function(t){var n=arguments.length>1&&void 0!==arguments[1]?arguments[1]:o;if(!Array.isArray(t))return n;switch(t.length){case 1:return c(t[0])||n;case 2:return c(t[0],t[1])||n;case 4:return l(t[0],t[1],t[2],t[3])||n}return n}(t,null):function(t,n){var r=arguments.length>2&&void 0!==arguments[2]?arguments[2]:o;switch(t){case"linear":return o;case"steps":return c(n.steps||1,n.jump||0)||r;case"bezier":case"cubic-bezier":return l(n.x1||0,n.y1||0,n.x2||0,n.y2||0)||r}return r}(t.type,t.value,null):null}function At(t,n,r){var e=arguments.length>3&&void 0!==arguments[3]&&arguments[3],i=n.length-1;if(t<=n[0].t)return e?[0,0,n[0].v]:n[0].v;if(t>=n[i].t)return e?[i,1,n[i].v]:n[i].v;var u,o=n[0],a=null;for(u=1;u<=i;u++){if(!(t>n[u].t)){a=n[u];break}o=n[u]}return null==a?e?[i,1,n[i].v]:n[i].v:o.t===a.t?e?[u,1,a.v]:a.v:(t=(t-o.t)/(a.t-o.t),o.e&&(t=o.e(t)),e?[u,t,r(t,o.v,a.v)]:r(t,o.v,a.v))}function xt(t,n){var r=arguments.length>2&&void 0!==arguments[2]?arguments[2]:null;return t&&t.length?"function"!=typeof n?null:("function"!=typeof r&&(r=null),function(e){var i=At(e,t,n);return null!=i&&r&&(i=r(i)),i}):null}function kt(t,n){return t.t-n.t}function St(n,r,e,i,u){var o,a="@"===e[0],l="#"===e[0],f=dt[e],s=y;switch(a?(o=e.substr(1),e=o.replace(mt,pt)):l&&(e=e.substr(1)),t(f)){case"function":if(s=f(i,u,At,wt,e,a,r,n),l)return s;break;case"string":s=xt(i,bt(f));break;case"object":if((s=xt(i,bt(f.i),f.f))&&"function"==typeof f.u)return f.u(r,s,e,a,n)}return s?function(t,n,r){if(arguments.length>3&&void 0!==arguments[3]&&arguments[3])return t instanceof gt?function(e){return t.style(n,r(e))}:function(e){return t.style[n]=r(e)};if(Array.isArray(n)){var e=n.length;return function(i){var u=r(i);if(null==u)for(var o=0;o<e;o++)t[o].removeAttribute(n);else for(var a=0;a<e;a++)t[a].setAttribute(n,u)}}return function(e){var i=r(e);null==i?t.removeAttribute(n):t.setAttribute(n,i)}}(r,e,s,a):null}function _t(n,r,e,i){if(!i||"object"!==t(i))return null;var u=null,o=null;return Array.isArray(i)?o=function(t){if(!t||!t.length)return null;for(var n=0;n<t.length;n++)t[n].e&&(t[n].e=wt(t[n].e));return t.sort(kt)}(i):(o=i.keys,u=i.data||null),o?St(n,r,e,o,u):null}function Mt(t,n,r){if(!r)return null;var e=[];for(var i in r)if(r.hasOwnProperty(i)){var u=_t(t,n,i,r[i]);u&&e.push(u)}return e.length?e:null}function It(t,n){if(!n.duration||n.duration<0)return null;var r=function(t,n){if(!n)return null;var r=[];if(Array.isArray(n))for(var e=n.length,i=0;i<e;i++){var u=n[i];if(2===u.length){var o=null;if("string"==typeof u[0])o=t.getElementById(u[0]);else if(Array.isArray(u[0])){o=[];for(var a=0;a<u[0].length;a++)if("string"==typeof u[0][a]){var l=t.getElementById(u[0][a]);l&&o.push(l)}o=o.length?1===o.length?o[0]:new gt(o):null}if(o){var f=Mt(t,o,u[1]);f&&(r=r.concat(f))}}}else for(var s in n)if(n.hasOwnProperty(s)){var c=t.getElementById(s);if(c){var v=Mt(t,c,n[s]);v&&(r=r.concat(v))}}return r.length?r:null}(t,n.elements);return r?function(t,n){var r=arguments.length>2&&void 0!==arguments[2]?arguments[2]:1/0,e=arguments.length>3&&void 0!==arguments[3]?arguments[3]:1,i=arguments.length>4&&void 0!==arguments[4]&&arguments[4],u=arguments.length>5&&void 0!==arguments[5]?arguments[5]:1,o=t.length,a=e>0?n:0;i&&r%2==0&&(a=n-a);var l=null;return function(f,s){var c=f%n,v=1+(f-c)/n;s*=e,i&&v%2==0&&(s=-s);var h=!1;if(v>r)c=a,h=!0,-1===u&&(c=e>0?0:n);else if(s<0&&(c=n-c),c===l)return!1;l=c;for(var y=0;y<o;y++)t[y](c);return h}}(r,n.duration,n.iterations||1/0,n.direction||1,!!n.alternate,n.fill||1):null}var Et=function(){function t(r){var e=arguments.length>1&&void 0!==arguments[1]?arguments[1]:{};n(this,t),this._id=0,this._running=!1,this._animations=r,this.direction=e.direction||1,this.speed=e.speed||1,this.fps=e.fps||100,this.offset=e.offset||0}return e(t,[{key:"_start",value:function(){var t=this,n=arguments.length>0&&void 0!==arguments[0]?arguments[0]:0,r=-1/0,e=null,i={},u=function u(o){t._running=!0,null==e&&(e=o);var a=Math.round((o-e+n)*t.speed),l=t.fps?1e3/t.fps:0;if(a>r+l){t.offset=a,r=a;for(var f=t._animations,s=f.length,c=0,v=0;v<s;v++)i[v]?c++:(i[v]=f[v](a,t.direction),i[v]&&c++);if(c===s)return void t._stop()}t._id=window.requestAnimationFrame(u)};this._id=window.requestAnimationFrame(u)}},{key:"_stop",value:function(){this._id&&window.cancelAnimationFrame(this._id),this._running=!1}},{key:"play",value:function(){this._running||this._start(this.offset)}},{key:"stop",value:function(){this._stop(),this.offset=0;var t=this.direction,n=this._animations;requestAnimationFrame((function(){for(var r=0;r<n.length;r++)n[r](0,t)}))}},{key:"restart",value:function(){this._stop(),this.offset=0,this._start()}},{key:"pause",value:function(){this._stop()}},{key:"reverse",value:function(){this.direction=-this.direction}}],[{key:"build",value:function(n){if(!(n=function(t){if(!t||!t.root||!Array.isArray(t.animations))return null;var n=window.document.getElementById(t.root);if(!n)return null;var r=t.animations.map((function(t){return It(n,t)})).filter((function(t){return!!t}));return r.length?{element:n,animations:r,options:t.options||void 0}:null}(n)))return null;var r=n.element,e=n.options||{},i=new t(n.animations,n.options);return function(t,n,r){var e=arguments.length>3&&void 0!==arguments[3]?arguments[3]:null;if("click"===r){return void n.addEventListener("click",(function r(){n.removeEventListener("click",r),t.play()}))}if("hover"===r)return n.addEventListener("mouseenter",(function(){return t.play()})),void n.addEventListener("mouseleave","freeze"===e?function(){return t.pause()}:function(){return t.stop()});t.play()}(i,r,e.start,e.hover),i}}]),t}();return function(){for(var t=0,n=["ms","moz","webkit","o"],r=0;r<n.length&&!window.requestAnimationFrame;++r)window.requestAnimationFrame=window[n[r]+"RequestAnimationFrame"],window.cancelAnimationFrame=window[n[r]+"CancelAnimationFrame"]||window[n[r]+"CancelRequestAnimationFrame"];window.requestAnimationFrame||(window.requestAnimationFrame=function(n){var r=Date.now(),e=Math.max(0,16-(r-t)),i=window.setTimeout((function(){n(r+e)}),e);return t=r+e,i},window.cancelAnimationFrame=window.clearTimeout)}(),Et}));
__SVGATOR_PLAYER__.build({"root":"erqlesk3yzf1","animations":[{"duration":8000,"direction":1,"iterations":0,"fill":1,"alternate":false,"elements":{"erqlesk3yzf4":{"transform":{"keys":{"o":[{"t":3600,"v":{"x":-1173.2210390000005,"y":-29.615287999999964,"type":"corner"}},{"t":8000,"v":{"x":1313.22,"y":-29.615287999999964,"type":"corner"}}]}}},"erqlesk3yzf5":{"transform":{"keys":{"o":[{"t":100,"v":{"x":-1173.2210390000005,"y":-29.615287999999964,"type":"corner"}},{"t":5000,"v":{"x":1313.22,"y":-29.615287999999964,"type":"corner"}}]}}},"erqlesk3yzf6":{"transform":{"keys":{"o":[{"t":3000,"v":{"x":-1153.6500000015847,"y":29.609292550000035,"type":"corner"}},{"t":7300,"v":{"x":803.22,"y":29.609292550000035,"type":"corner"}}]}}},"erqlesk3yzf7":{"transform":{"keys":{"o":[{"t":2000,"v":{"x":-1173.2210390000005,"y":-29.615287999999964,"type":"corner"}},{"t":6500,"v":{"x":873.22,"y":-29.615287999999964,"type":"corner"}}]}}},"erqlesk3yzf8":{"transform":{"keys":{"o":[{"t":500,"v":{"x":0,"y":-180.02647058,"type":"corner"}},{"t":3800,"v":{"x":2270.00205078,"y":-179.99547058,"type":"corner"}}]}}},"erqlesk3yzf21":{"transform":{"keys":{"o":[{"t":3500,"v":{"x":0,"y":-59.99974243,"type":"corner"}},{"t":7800,"v":{"x":1700,"y":-59.99974243,"type":"corner"}}]}}},"erqlesk3yzf28":{"transform":{"keys":{"o":[{"t":4000,"v":{"x":0,"y":0,"type":"corner"}},{"t":7900,"v":{"x":1900,"y":0,"type":"corner"}}]}}},"erqlesk3yzf41":{"transform":{"keys":{"o":[{"t":0,"v":{"x":0,"y":0,"type":"corner"}},{"t":600,"v":{"x":0,"y":4,"type":"corner"}},{"t":900,"v":{"x":0,"y":-4,"type":"corner"}},{"t":1400,"v":{"x":0,"y":2,"type":"corner"}},{"t":2000,"v":{"x":0,"y":4,"type":"corner"}},{"t":2500,"v":{"x":0,"y":-4,"type":"corner"}},{"t":2900,"v":{"x":0,"y":4,"type":"corner"}},{"t":3300,"v":{"x":0,"y":-4,"type":"corner"}},{"t":3700,"v":{"x":0,"y":2,"type":"corner"}},{"t":4200,"v":{"x":0,"y":4,"type":"corner"}},{"t":4700,"v":{"x":0,"y":-4,"type":"corner"}},{"t":5200,"v":{"x":0,"y":4,"type":"corner"}},{"t":5400,"v":{"x":0,"y":-4,"type":"corner"}},{"t":5900,"v":{"x":0,"y":2,"type":"corner"}},{"t":6400,"v":{"x":0,"y":4,"type":"corner"}},{"t":6700,"v":{"x":0,"y":-4,"type":"corner"}},{"t":7000,"v":{"x":0,"y":4,"type":"corner"}},{"t":7300,"v":{"x":0,"y":-4,"type":"corner"}},{"t":7600,"v":{"x":0,"y":2,"type":"corner"}},{"t":8000,"v":{"x":0,"y":0,"type":"corner"}}]}}},"erqlesk3yzf46":{"transform":{"data":{"t":{"x":-194.3800000000001,"y":-31.53999999500092}},"keys":{"o":[{"t":0,"v":{"x":499.02750257000037,"y":414.63585239500054,"type":"corner"}},{"t":900,"v":{"x":499.02750257000037,"y":404.8258523950008,"type":"corner"}},{"t":1700,"v":{"x":500.0000000000004,"y":417.26585239500093,"type":"corner"}},{"t":2400,"v":{"x":500.0000000000004,"y":409.60585240000097,"type":"corner"}},{"t":2700,"v":{"x":500.0000000000004,"y":405.80091562000104,"type":"corner"}},{"t":3200,"v":{"x":500.0000000000004,"y":414.6608523950008,"type":"corner"}},{"t":3700,"v":{"x":499.02750257000037,"y":404.8258523950008,"type":"corner"}},{"t":4500,"v":{"x":500.0000000000004,"y":417.26585239500093,"type":"corner"}},{"t":5200,"v":{"x":500.0000000000004,"y":409.60585240000097,"type":"corner"}},{"t":5500,"v":{"x":500.0000000000004,"y":405.80091562000104,"type":"corner"}},{"t":6000,"v":{"x":500.0000000000004,"y":414.6608523950008,"type":"corner"}},{"t":6400,"v":{"x":499.02750257000037,"y":404.8258523950008,"type":"corner"}},{"t":7200,"v":{"x":500.0000000000004,"y":417.26585239500093,"type":"corner"}},{"t":8000,"v":{"x":499.02750257000037,"y":414.63585239500054,"type":"corner"}}]}}},"erqlesk3yzf50":{"transform":{"data":{"t":{"x":-1495.54,"y":-449.660115205}},"keys":{"o":[{"t":3000,"v":{"x":383.56,"y":333.80596760000054,"type":"corner"}},{"t":8000,"v":{"x":623.56,"y":333.80596760000054,"type":"corner"}}]}},"opacity":[{"t":0,"v":0},{"t":3000,"v":0},{"t":6000,"v":0.2},{"t":6300,"v":0.5},{"t":6600,"v":1},{"t":6800,"v":0.2}]},"erqlesk3yzf51":{"transform":{"data":{"t":{"x":-1495.54,"y":-449.660115205}},"keys":{"o":[{"t":0,"v":{"x":623.5575025700001,"y":333.80596760000054,"type":"corner"}},{"t":2000,"v":{"x":692.8075025700019,"y":333.80596760000054,"type":"corner"}}]}},"opacity":[{"t":0,"v":0.2},{"t":2000,"v":0}]},"erqlesk3yzf52":{"transform":{"data":{"t":{"x":-1467.135,"y":-449.71000000000004}},"keys":{"o":[{"t":0,"v":{"x":595.1525025700001,"y":333.85585239500057,"type":"corner"}},{"t":3000,"v":{"x":691.1774974300005,"y":333.45890212500046,"type":"corner"}}]}},"opacity":[{"t":0,"v":0.2},{"t":2900,"v":0}]},"erqlesk3yzf53":{"transform":{"data":{"t":{"x":-1467.135,"y":-449.71000000000004}},"keys":{"o":[{"t":3000,"v":{"x":355.15,"y":333.85585239500057,"type":"corner"}},{"t":8000,"v":{"x":595.15,"y":333.85585239500057,"type":"corner"}}]}},"opacity":[{"t":0,"v":0},{"t":3600,"v":0},{"t":6200,"v":0.2},{"t":6500,"v":0.5},{"t":6800,"v":1},{"t":7000,"v":0.2}]},"erqlesk3yzf64":{"transform":{"keys":{"o":[{"t":1200,"v":{"x":0,"y":0,"type":"corner"}},{"t":5200,"v":{"x":1800,"y":0,"type":"corner"}}]}}},"erqlesk3yzf71":{"transform":{"keys":{"o":[{"t":1500,"v":{"x":-0.0013134800000216273,"y":69.99938965000001,"type":"corner"}},{"t":4900,"v":{"x":1950,"y":69.99938965000001,"type":"corner"}}]}}},"erqlesk3yzf84":{"transform":{"keys":{"o":[{"t":0,"v":{"x":0,"y":0,"type":"corner"}},{"t":3700,"v":{"x":1800,"y":0,"type":"corner"}}]}}}}}],"options":{"start":"hover","hover":"restart"}})]]>
    </script>
</svg>
