<svg id="e11y4r30i7lro1" xmlns="http://www.w3.org/2000/svg" xmlns:xlink="http://www.w3.org/1999/xlink" viewBox="0 0 1000 800" shape-rendering="geometricPrecision" text-rendering="geometricPrecision"><style><![CDATA[#e11y4r30i7lro1{pointer-events: all}#e11y4r30i7lro1:hover #e11y4r30i7lro8_to {animation: e11y4r30i7lro8_to__to 7000ms linear infinite normal forwards}@keyframes e11y4r30i7lro8_to__to { 0% {transform: translate(600.003906px,90.000354px)} 32.857143% {transform: translate(600.003906px,90.000354px)} 100% {transform: translate(2450px,90.000354px)} }#e11y4r30i7lro1:hover #e11y4r30i7lro21_to {animation: e11y4r30i7lro21_to__to 7000ms linear infinite normal forwards}@keyframes e11y4r30i7lro21_to__to { 0% {transform: translate(827.040575px,113.276476px)} 17.142857% {transform: translate(827.040575px,113.276476px)} 81.428571% {transform: translate(2627.040000px,113.276476px)} 100% {transform: translate(2627.040000px,113.276476px)} }#e11y4r30i7lro1:hover #e11y4r30i7lro28_to {animation: e11y4r30i7lro28_to__to 7000ms linear infinite normal forwards}@keyframes e11y4r30i7lro28_to__to { 0% {transform: translate(0.000061px,36.212039px)} 62.857143% {transform: translate(1850px,36.212039px)} 100% {transform: translate(1850px,36.212039px)} }#e11y4r30i7lro1:hover #e11y4r30i7lro35_to {animation: e11y4r30i7lro35_to__to 7000ms linear infinite normal forwards}@keyframes e11y4r30i7lro35_to__to { 0% {transform: translate(0px,0px)} 4.285714% {transform: translate(0px,2px)} 7.142857% {transform: translate(0px,-2px)} 10% {transform: translate(0px,2px)} 12.857143% {transform: translate(0px,-2px)} 15.714286% {transform: translate(0px,2px)} 18.571429% {transform: translate(0px,-2px)} 21.428571% {transform: translate(0px,2px)} 24.285714% {transform: translate(0px,-2px)} 27.142857% {transform: translate(0px,2px)} 30% {transform: translate(0px,-2px)} 32.857143% {transform: translate(0px,2px)} 35.714286% {transform: translate(0px,-2px)} 38.571429% {transform: translate(0px,2px)} 41.428571% {transform: translate(0px,-2px)} 44.285714% {transform: translate(0px,2px)} 47.142857% {transform: translate(0px,-2px)} 50% {transform: translate(0px,2px)} 52.857143% {transform: translate(0px,-2px)} 55.714286% {transform: translate(0px,2px)} 58.571429% {transform: translate(0px,-2px)} 61.428571% {transform: translate(0px,2px)} 64.285714% {transform: translate(0px,-2px)} 67.142857% {transform: translate(0px,2px)} 70% {transform: translate(0px,-2px)} 72.857143% {transform: translate(0px,2px)} 75.714286% {transform: translate(0px,-2px)} 78.571429% {transform: translate(0px,2px)} 81.428571% {transform: translate(0px,-2px)} 84.285714% {transform: translate(0px,2px)} 87.142857% {transform: translate(0px,-2px)} 90% {transform: translate(0px,2px)} 92.857143% {transform: translate(0px,-2px)} 95.714286% {transform: translate(0px,2px)} 100% {transform: translate(0px,0px)} }#e11y4r30i7lro1:hover #e11y4r30i7lro37_to {animation: e11y4r30i7lro37_to__to 7000ms linear infinite normal forwards}@keyframes e11y4r30i7lro37_to__to { 0% {transform: translate(-300px,0px)} 35.714286% {transform: translate(-300px,0px)} 100% {transform: translate(0px,0px)} }#e11y4r30i7lro1:hover #e11y4r30i7lro38 {animation: e11y4r30i7lro38_c_o 7000ms linear infinite normal forwards}@keyframes e11y4r30i7lro38_c_o { 0% {opacity: 0.200000} 44.285714% {opacity: 0.200000} 48.571429% {opacity: 0} 80% {opacity: 0.200000} 84.285714% {opacity: 0.700000} 87.142857% {opacity: 0.200000} 100% {opacity: 0.200000} }#e11y4r30i7lro1:hover #e11y4r30i7lro39 {animation: e11y4r30i7lro39_c_o 7000ms linear infinite normal forwards}@keyframes e11y4r30i7lro39_c_o { 0% {opacity: 0.200000} 52.857143% {opacity: 0.200000} 58.571429% {opacity: 0} 85.714286% {opacity: 0.200000} 90% {opacity: 0.700000} 92.857143% {opacity: 0.200000} 100% {opacity: 0.200000} }#e11y4r30i7lro1:hover #e11y4r30i7lro40_to {animation: e11y4r30i7lro40_to__to 7000ms linear infinite normal forwards}@keyframes e11y4r30i7lro40_to__to { 0% {transform: translate(0px,0px)} 42.857143% {transform: translate(330px,0px)} 100% {transform: translate(330px,0px)} }#e11y4r30i7lro1:hover #e11y4r30i7lro41 {animation: e11y4r30i7lro41_c_o 7000ms linear infinite normal forwards}@keyframes e11y4r30i7lro41_c_o { 0% {opacity: 0.200000} 5.714286% {opacity: 0} 27.142857% {opacity: 0.200000} 30% {opacity: 0.700000} 35.714286% {opacity: 0} 100% {opacity: 0} }#e11y4r30i7lro1:hover #e11y4r30i7lro42 {animation: e11y4r30i7lro42_c_o 7000ms linear infinite normal forwards}@keyframes e11y4r30i7lro42_c_o { 0% {opacity: 0.200000} 2.857143% {opacity: 0.200000} 8.571429% {opacity: 0} 30% {opacity: 0.200000} 34.285714% {opacity: 0.700000} 40% {opacity: 0} 100% {opacity: 0} }#e11y4r30i7lro1:hover #e11y4r30i7lro43_to {animation: e11y4r30i7lro43_to__to 7000ms linear infinite normal forwards}@keyframes e11y4r30i7lro43_to__to { 0% {transform: translate(-384.496895px,0px)} 27.142857% {transform: translate(-384.496895px,0px)} 100% {transform: translate(0px,0px)} }#e11y4r30i7lro1:hover #e11y4r30i7lro44 {animation: e11y4r30i7lro44_c_o 7000ms linear infinite normal forwards}@keyframes e11y4r30i7lro44_c_o { 0% {opacity: 0} 28.571429% {opacity: 0} 52.857143% {opacity: 0.200000} 57.142857% {opacity: 0.700000} 62.857143% {opacity: 0.200000} 88.571429% {opacity: 0.200000} 91.428571% {opacity: 0.700000} 98.571429% {opacity: 0.200000} 100% {opacity: 0.200000} }#e11y4r30i7lro1:hover #e11y4r30i7lro45 {animation: e11y4r30i7lro45_c_o 7000ms linear infinite normal forwards}@keyframes e11y4r30i7lro45_c_o { 0% {opacity: 0} 28.571429% {opacity: 0} 50% {opacity: 0.200000} 52.857143% {opacity: 0.700000} 58.571429% {opacity: 0.200000} 82.857143% {opacity: 0.200000} 85.714286% {opacity: 0.700000} 92.857143% {opacity: 0.200000} 100% {opacity: 0.200000} }#e11y4r30i7lro1:hover #e11y4r30i7lro46_to {animation: e11y4r30i7lro46_to__to 7000ms linear infinite normal forwards}@keyframes e11y4r30i7lro46_to__to { 0% {transform: translate(0px,0px)} 14.285714% {transform: translate(115.500144px,0px)} 100% {transform: translate(115.500144px,0px)} }#e11y4r30i7lro1:hover #e11y4r30i7lro47 {animation: e11y4r30i7lro47_c_o 7000ms linear infinite normal forwards}@keyframes e11y4r30i7lro47_c_o { 0% {opacity: 0.200000} 2.857143% {opacity: 0.200000} 7.142857% {opacity: 0.700000} 12.857143% {opacity: 0} 100% {opacity: 0} }#e11y4r30i7lro1:hover #e11y4r30i7lro48 {animation: e11y4r30i7lro48_c_o 7000ms linear infinite normal forwards}@keyframes e11y4r30i7lro48_c_o { 0% {opacity: 0.200000} 2.857143% {opacity: 0.700000} 8.571429% {opacity: 0} 100% {opacity: 0} }#e11y4r30i7lro1:hover #e11y4r30i7lro55_to {animation: e11y4r30i7lro55_to__to 7000ms linear infinite normal forwards}@keyframes e11y4r30i7lro55_to__to { 0% {transform: translate(-708.010000px,139.529992px)} 15.714286% {transform: translate(-708.010000px,139.529992px)} 88.571429% {transform: translate(1452.610000px,150.881296px)} 100% {transform: translate(1452.610000px,150.881296px)} }#e11y4r30i7lro1:hover #e11y4r30i7lro56_to {animation: e11y4r30i7lro56_to__to 7000ms linear infinite normal forwards}@keyframes e11y4r30i7lro56_to__to { 0% {transform: translate(-796.855032px,-63.623640px)} 61.428571% {transform: translate(1396.860000px,-63.623640px)} 100% {transform: translate(1396.860000px,-63.623640px)} }#e11y4r30i7lro1:hover #e11y4r30i7lro57_to {animation: e11y4r30i7lro57_to__to 7000ms linear infinite normal forwards}@keyframes e11y4r30i7lro57_to__to { 0% {transform: translate(-1321.635644px,164.284802px)} 28.571429% {transform: translate(-1321.635644px,164.284802px)} 100% {transform: translate(1021.640000px,164.284802px)} }#e11y4r30i7lro1:hover #e11y4r30i7lro58_to {animation: e11y4r30i7lro58_to__to 7000ms linear infinite normal forwards}@keyframes e11y4r30i7lro58_to__to { 0% {transform: translate(-1258.803180px,-66.567499px)} 5.714286% {transform: translate(-1258.803180px,-66.567499px)} 75.714286% {transform: translate(958.800000px,-66.567499px)} 100% {transform: translate(958.800000px,-66.567499px)} }#e11y4r30i7lro1:hover #e11y4r30i7lro59_to {animation: e11y4r30i7lro59_to__to 7000ms linear infinite normal forwards}@keyframes e11y4r30i7lro59_to__to { 0% {transform: translate(821.180952px,378.719952px)} 14.285714% {transform: translate(821.180952px,378.719952px)} 95.714286% {transform: translate(2821.180000px,378.719952px)} 100% {transform: translate(2821.180000px,378.719952px)} }#e11y4r30i7lro1:hover #e11y4r30i7lro66_to {animation: e11y4r30i7lro66_to__to 7000ms linear infinite normal forwards}@keyframes e11y4r30i7lro66_to__to { 0% {transform: translate(201.432425px,50.709314px)} 22.857143% {transform: translate(201.432425px,50.709314px)} 100% {transform: translate(2101.430000px,50.709314px)} }#e11y4r30i7lro1:hover #e11y4r30i7lro73_to {animation: e11y4r30i7lro73_to__to 7000ms linear infinite normal forwards}@keyframes e11y4r30i7lro73_to__to { 0% {transform: translate(704.912114px,152.519927px)} 74.285714% {transform: translate(2604.910000px,152.519927px)} 100% {transform: translate(2604.910000px,152.519927px)} }]]></style><g id="e11y4r30i7lro2"><g id="e11y4r30i7lro3"><circle id="e11y4r30i7lro4" r="16.430000" transform="matrix(1 0 0 1 303.32703900999968 454.20109753499992)" fill="rgb(64,59,59)" stroke="none" stroke-width="1"/><circle id="e11y4r30i7lro5" r="16.430000" transform="matrix(1 0 0 1 343.15703900999961 454.20109753499992)" fill="rgb(64,59,59)" stroke="none" stroke-width="1"/><circle id="e11y4r30i7lro6" r="16.430000" transform="matrix(1 0 0 1 667.29703900999948 454.20109753499992)" fill="rgb(64,59,59)" stroke="none" stroke-width="1"/><circle id="e11y4r30i7lro7" r="16.430000" transform="matrix(1 0 0 1 707.18703900999981 454.20109753499992)" fill="rgb(64,59,59)" stroke="none" stroke-width="1"/><g id="e11y4r30i7lro8_to" transform="translate(600.003906,90.000354)"><g id="e11y4r30i7lro8" transform="translate(0,0)"><path id="e11y4r30i7lro9" d="M1570.540000,16.160000C1544.090000,15.890000,1526.380000,60.210000,1521.230000,87.880000C1519.110000,99.300000,1511.050000,142.600000,1533.890000,169.880000C1553.410000,193.160000,1587.380000,195.070000,1607.200000,172.440000C1629.780000,146.640000,1621.680000,102.990000,1619.200000,89.620000C1614.370000,63.620000,1597.720000,16.480000,1570.550000,16.190000" transform="matrix(1 0 0 1 -2587.74264099999982 55.74964626999997)" fill="rgb(231,58,90)" stroke="none" stroke-width="1"/><path id="e11y4r30i7lro10" d="M1569.270000,16C1569.270000,16,1492.630000,137.240000,1569.940000,188.470000C1569.940000,188.470000,1530.940000,188.470000,1519.940000,138.950000C1518.150000,132.450000,1514.620000,93.080000,1529.940000,56.950000C1540.870000,31.200000,1553.270000,17.680000,1569.260000,15.950000" transform="matrix(1 0 0 1 -2587.74264099999982 55.74964626999997)" opacity="0.49" fill="rgb(197,214,198)" stroke="none" stroke-width="1"/><path id="e11y4r30i7lro11" d="M1570.880000,238.580000C1570.258029,238.496827,1569.814958,237.934128,1569.880000,237.310000L1568.550000,57.590000C1568.472982,56.956454,1568.917896,56.378067,1569.550000,56.290000C1570.100000,56.290000,1570.550000,56.850000,1570.550000,57.560000L1571.890000,237.290000C1571.955771,237.918373,1571.514931,238.487056,1570.890000,238.580000Z" transform="matrix(1 0 0 1 -2587.74264099999982 55.74964626999997)" fill="rgb(97,140,119)" stroke="none" stroke-width="1"/><path id="e11y4r30i7lro12" d="M1557.320000,80.600000C1553.010000,80.600000,1548.630000,79.690000,1545.980000,76.650000C1543.980000,74.320000,1543.130000,71.040000,1543.560000,66.900000C1543.640000,66.200000,1544.140000,65.700000,1544.690000,65.800000C1545.296907,65.995747,1545.661885,66.614064,1545.540000,67.240000C1545.200000,70.530000,1545.780000,72.980000,1547.310000,74.740000C1553.020000,81.290000,1569.470000,76.110000,1569.640000,76.060000C1570.170000,75.890000,1570.710000,76.300000,1570.850000,76.990000C1571.011887,77.615065,1570.704992,78.266690,1570.120000,78.540000C1565.969245,79.815797,1561.661447,80.509083,1557.320000,80.600000Z" transform="matrix(1 0 0 1 -2587.74264099999982 55.74964626999997)" fill="rgb(97,140,119)" stroke="none" stroke-width="1"/><path id="e11y4r30i7lro13" d="M1551.770000,142C1544.620000,142,1537.360000,140.780000,1534.050000,136.450000C1532.335741,134.074609,1531.697211,131.088757,1532.290000,128.220000C1532.400000,127.530000,1532.930000,127.080000,1533.460000,127.220000C1534.059479,127.459860,1534.394783,128.100758,1534.250000,128.730000C1533.798857,130.794835,1534.245981,132.954113,1535.480000,134.670000C1542.180000,143.440000,1569.480000,137.510000,1569.710000,137.450000C1570.250000,137.320000,1570.770000,137.790000,1570.860000,138.450000C1570.999331,139.076652,1570.652929,139.709585,1570.050000,139.930000C1564.037791,141.208575,1557.915875,141.901811,1551.770000,142Z" transform="matrix(1 0 0 1 -2587.74264099999982 55.74964626999997)" fill="rgb(97,140,119)" stroke="none" stroke-width="1"/><path id="e11y4r30i7lro14" d="M1589.210000,105.440000C1583.069635,105.366013,1576.950948,104.696206,1570.940000,103.440000C1570.336125,103.219845,1569.986452,102.588727,1570.120000,101.960000C1570.210000,101.260000,1570.730000,100.790000,1571.280000,100.960000C1571.550000,101.020000,1598.810000,106.960000,1605.500000,98.180000C1606.732837,96.463594,1607.179852,94.304841,1606.730000,92.240000C1606.589626,91.611332,1606.923507,90.973154,1607.520000,90.730000C1608.060000,90.600000,1608.590000,91.050000,1608.690000,91.730000C1609.282789,94.598757,1608.644259,97.584609,1606.930000,99.960000C1603.620000,104.220000,1596.360000,105.440000,1589.210000,105.440000Z" transform="matrix(1 0 0 1 -2587.74264099999982 55.74964626999997)" fill="rgb(97,140,119)" stroke="none" stroke-width="1"/><path id="e11y4r30i7lro15" d="M1495.100000,49.310000C1474.100000,49.030000,1460.100000,94.130000,1455.960000,122.310000C1454.280000,133.920000,1447.890000,177.980000,1465.960000,205.710000C1481.450000,229.400000,1508.410000,231.340000,1524.140000,208.310000C1542.060000,182.060000,1535.630000,137.650000,1533.660000,124.040000C1529.820000,97.550000,1516.600000,49.620000,1495.050000,49.330000" transform="matrix(1 0 0 1 -2587.74264099999982 55.74964626999997)" fill="rgb(97,140,119)" stroke="none" stroke-width="1"/><path id="e11y4r30i7lro16" d="M1494,49.310000C1494,49.310000,1433.180000,172.670000,1494.530000,224.800000C1494.530000,224.800000,1463.530000,224.800000,1454.870000,174.410000C1453.450000,167.800000,1450.650000,127.740000,1462.800000,91.010000C1471.470000,64.800000,1481.310000,51.010000,1494,49.310000" transform="matrix(1 0 0 1 -2587.74264099999982 55.74964626999997)" opacity="0.49" fill="rgb(197,214,198)" stroke="none" stroke-width="1"/><path id="e11y4r30i7lro17" d="M1495.360000,275.620000C1494.930000,275.620000,1494.580000,275.050000,1494.570000,274.330000L1493.510000,91.460000C1493.510000,90.740000,1493.860000,90.150000,1494.300000,90.140000C1494.740000,90.130000,1495.100000,90.710000,1495.100000,91.430000L1496.160000,274.310000C1496.160000,275.030000,1495.810000,275.610000,1495.370000,275.620000Z" transform="matrix(1 0 0 1 -2587.74264099999982 55.74964626999997)" fill="rgb(232,58,90)" stroke="none" stroke-width="1"/><path id="e11y4r30i7lro18" d="M1484.610000,114.880000C1481.190000,114.880000,1477.710000,113.950000,1475.610000,110.880000C1473.990000,108.500000,1473.340000,105.160000,1473.690000,100.960000C1473.750000,100.240000,1474.150000,99.740000,1474.580000,99.840000C1475.010000,99.940000,1475.320000,100.590000,1475.260000,101.300000C1474.990000,104.650000,1475.440000,107.150000,1476.660000,108.940000C1481.200000,115.600000,1494.250000,110.330000,1494.380000,110.270000C1494.800000,110.100000,1495.230000,110.520000,1495.380000,111.270000C1495.534100,111.866038,1495.303133,112.495225,1494.800000,112.850000C1491.547258,114.114196,1488.098883,114.801164,1484.610000,114.880000Z" transform="matrix(1 0 0 1 -2587.74264099999982 55.74964626999997)" fill="rgb(232,58,90)" stroke="none" stroke-width="1"/><path id="e11y4r30i7lro19" d="M1480.200000,177.320000C1474.530000,177.320000,1468.770000,176.080000,1466.140000,171.680000C1464.758952,169.118523,1464.266575,166.171293,1464.740000,163.300000C1464.830000,162.600000,1465.250000,162.140000,1465.670000,162.300000C1466.090000,162.460000,1466.380000,163.130000,1466.300000,163.830000C1465.956046,165.885555,1466.307971,167.997108,1467.300000,169.830000C1472.620000,178.750000,1494.300000,172.720000,1494.470000,172.660000C1494.890000,172.530000,1495.310000,173.010000,1495.380000,173.720000C1495.450000,174.430000,1495.170000,175.100000,1494.740000,175.220000C1489.998838,176.518650,1485.114866,177.224038,1480.200000,177.320000Z" transform="matrix(1 0 0 1 -2587.74264099999982 55.74964626999997)" fill="rgb(232,58,90)" stroke="none" stroke-width="1"/><path id="e11y4r30i7lro20" d="M1509.910000,140.150000C1505.010268,140.054752,1500.140660,139.359574,1495.410000,138.080000C1494.980000,137.950000,1494.690000,137.280000,1494.760000,136.570000C1494.830000,135.860000,1495.250000,135.380000,1495.680000,135.510000C1495.900000,135.570000,1517.530000,141.600000,1522.840000,132.680000C1523.843215,130.832831,1524.195460,128.701743,1523.840000,126.630000C1523.750000,125.930000,1524.030000,125.240000,1524.460000,125.100000C1524.890000,124.960000,1525.310000,125.430000,1525.390000,126.100000C1525.871861,128.970184,1525.382722,131.919096,1524,134.480000C1521.350000,138.910000,1515.580000,140.150000,1509.910000,140.150000Z" transform="matrix(1 0 0 1 -2587.74264099999982 55.74964626999997)" fill="rgb(232,58,90)" stroke="none" stroke-width="1"/></g></g><g id="e11y4r30i7lro21_to" transform="translate(827.040575,113.276476)"><g id="e11y4r30i7lro21" transform="translate(0,0)"><path id="e11y4r30i7lro22" d="M1328.390000,43.390000C1301.940000,43.110000,1284.230000,87.440000,1279.080000,115.100000C1276.960000,126.520000,1268.900000,169.820000,1291.740000,197.100000C1311.260000,220.380000,1345.230000,222.290000,1365.050000,199.660000C1387.630000,173.860000,1379.530000,130.210000,1377.050000,116.840000C1372.220000,90.840000,1355.570000,43.700000,1328.400000,43.420000" transform="matrix(1 0 0 1 -2587.74264099999982 55.74964626999997)" fill="rgb(231,58,90)" stroke="none" stroke-width="1"/><path id="e11y4r30i7lro23" d="M1327.120000,43.260000C1327.120000,43.260000,1250.480000,164.500000,1327.790000,215.730000C1327.790000,215.730000,1288.790000,215.730000,1277.790000,166.210000C1276,159.710000,1272.470000,120.340000,1287.790000,84.210000C1298.720000,58.450000,1311.120000,44.930000,1327.110000,43.210000" transform="matrix(1 0 0 1 -2587.74264099999982 55.74964626999997)" opacity="0.49" fill="rgb(197,214,198)" stroke="none" stroke-width="1"/><path id="e11y4r30i7lro24" d="M1328.730000,265.800000C1328.108029,265.716827,1327.664958,265.154128,1327.730000,264.530000L1326.390000,84.810000C1326.323813,84.179469,1326.763587,83.607762,1327.390000,83.510000C1327.940000,83.510000,1328.390000,84.080000,1328.390000,84.780000L1329.730000,264.510000C1329.795771,265.138373,1329.354931,265.707056,1328.730000,265.800000Z" transform="matrix(1 0 0 1 -2587.74264099999982 55.74964626999997)" fill="rgb(97,140,119)" stroke="none" stroke-width="1"/><path id="e11y4r30i7lro25" d="M1315.170000,107.820000C1310.860000,107.820000,1306.480000,106.910000,1303.830000,103.880000C1301.830000,101.540000,1300.980000,98.260000,1301.410000,94.120000C1301.490000,93.420000,1301.990000,92.920000,1302.540000,93.020000C1303.146907,93.215747,1303.511885,93.834064,1303.390000,94.460000C1303.050000,97.750000,1303.630000,100.210000,1305.160000,101.970000C1310.870000,108.510000,1327.320000,103.330000,1327.480000,103.280000C1328.020000,103.110000,1328.560000,103.520000,1328.700000,104.210000C1328.866179,104.835461,1328.558030,105.489748,1327.970000,105.760000C1323.818981,107.034664,1319.511342,107.727925,1315.170000,107.820000Z" transform="matrix(1 0 0 1 -2587.74264099999982 55.74964626999997)" fill="rgb(97,140,119)" stroke="none" stroke-width="1"/><path id="e11y4r30i7lro26" d="M1309.620000,169.190000C1302.470000,169.190000,1295.210000,167.970000,1291.900000,163.640000C1290.187389,161.267686,1289.548882,158.285570,1290.140000,155.420000C1290.250000,154.720000,1290.780000,154.280000,1291.310000,154.420000C1291.909479,154.659860,1292.244783,155.300758,1292.100000,155.930000C1291.648857,157.994835,1292.095981,160.154113,1293.330000,161.870000C1300.030000,170.640000,1327.330000,164.710000,1327.560000,164.650000C1328.100000,164.520000,1328.620000,165,1328.710000,165.650000C1328.849331,166.276652,1328.502929,166.909585,1327.900000,167.130000C1321.888355,168.410716,1315.765904,169.100664,1309.620000,169.190000Z" transform="matrix(1 0 0 1 -2587.74264099999982 55.74964626999997)" fill="rgb(97,140,119)" stroke="none" stroke-width="1"/><path id="e11y4r30i7lro27" d="M1347.060000,132.660000C1340.919290,132.591730,1334.800048,131.921862,1328.790000,130.660000C1328.186125,130.439845,1327.836452,129.808727,1327.970000,129.180000C1328.060000,128.490000,1328.580000,128.010000,1329.130000,128.180000C1329.400000,128.240000,1356.660000,134.180000,1363.350000,125.400000C1364.584019,123.684113,1365.031143,121.524835,1364.580000,119.460000C1364.435217,118.830758,1364.770521,118.189860,1365.370000,117.950000C1365.910000,117.820000,1366.440000,118.270000,1366.540000,118.950000C1367.131118,121.815570,1366.492611,124.797686,1364.780000,127.170000C1361.470000,131.440000,1354.210000,132.660000,1347.060000,132.660000Z" transform="matrix(1 0 0 1 -2587.74264099999982 55.74964626999997)" fill="rgb(97,140,119)" stroke="none" stroke-width="1"/></g></g><g id="e11y4r30i7lro28_to" transform="translate(0.000061,36.212039)"><g id="e11y4r30i7lro28" transform="translate(0,0)"><path id="e11y4r30i7lro29" d="M1180.310000,102C1159.310000,101.720000,1145.310000,146.820000,1141.180000,175C1139.490000,186.610000,1133.100000,230.670000,1151.180000,258.400000C1166.670000,282.090000,1193.630000,284.030000,1209.360000,261C1227.280000,234.750000,1220.850000,190.340000,1218.880000,176.730000C1215.040000,150.240000,1201.830000,102.310000,1180.270000,102.020000" transform="matrix(1 0 0 1 -1652.90474859000051 1.04890245999985)" fill="rgb(97,140,119)" stroke="none" stroke-width="1"/><path id="e11y4r30i7lro30" d="M1179.250000,102C1179.250000,102,1118.430000,225.360000,1179.780000,277.490000C1179.780000,277.490000,1148.780000,277.490000,1140.120000,227.100000C1138.700000,220.490000,1135.900000,180.430000,1148.050000,143.700000C1156.720000,117.490000,1166.560000,103.700000,1179.250000,102" transform="matrix(1 0 0 1 -1652.90474859000051 1.04890245999985)" opacity="0.49" fill="rgb(197,214,198)" stroke="none" stroke-width="1"/><path id="e11y4r30i7lro31" d="M1180.580000,328.320000C1180.140000,328.320000,1179.790000,327.750000,1179.780000,327.030000L1178.720000,144.160000C1178.720000,143.440000,1179.070000,142.850000,1179.510000,142.840000C1179.950000,142.830000,1180.310000,143.410000,1180.310000,144.130000L1181.370000,327C1181.370000,327.720000,1181.020000,328.310000,1180.580000,328.310000Z" transform="matrix(1 0 0 1 -1652.90474859000051 1.04890245999985)" fill="rgb(232,58,90)" stroke="none" stroke-width="1"/><path id="e11y4r30i7lro32" d="M1169.820000,167.580000C1166.400000,167.580000,1162.920000,166.650000,1160.820000,163.580000C1159.200000,161.200000,1158.550000,157.860000,1158.900000,153.660000C1158.960000,152.940000,1159.360000,152.440000,1159.790000,152.540000C1160.220000,152.640000,1160.530000,153.290000,1160.470000,154C1160.200000,157.350000,1160.660000,159.850000,1161.870000,161.640000C1166.410000,168.300000,1179.460000,163.030000,1179.590000,162.970000C1180.020000,162.800000,1180.450000,163.220000,1180.590000,163.970000C1180.744100,164.566038,1180.513133,165.195225,1180.010000,165.550000C1176.757258,166.814196,1173.308883,167.501164,1169.820000,167.580000Z" transform="matrix(1 0 0 1 -1652.90474859000051 1.04890245999985)" fill="rgb(232,58,90)" stroke="none" stroke-width="1"/><path id="e11y4r30i7lro33" d="M1165.410000,230C1159.740000,230,1153.980000,228.760000,1151.350000,224.360000C1149.990489,221.798426,1149.515868,218.859291,1150,216C1150.090000,215.300000,1150.510000,214.840000,1150.930000,215C1151.350000,215.160000,1151.640000,215.830000,1151.560000,216.530000C1151.204540,218.601743,1151.556785,220.732831,1152.560000,222.580000C1157.870000,231.500000,1179.500000,225.470000,1179.720000,225.410000C1180.150000,225.280000,1180.560000,225.760000,1180.630000,226.470000C1180.700000,227.180000,1180.420000,227.850000,1179.990000,227.980000C1175.231123,229.248176,1170.334408,229.926596,1165.410000,230Z" transform="matrix(1 0 0 1 -1652.90474859000051 1.04890245999985)" fill="rgb(232,58,90)" stroke="none" stroke-width="1"/><path id="e11y4r30i7lro34" d="M1195.120000,192.850000C1190.220333,192.753951,1185.350822,192.058786,1180.620000,190.780000C1180.190000,190.650000,1179.900000,189.980000,1179.980000,189.270000C1180.060000,188.560000,1180.460000,188.080000,1180.890000,188.210000C1181.110000,188.270000,1202.740000,194.300000,1208.050000,185.380000C1209.042029,183.547108,1209.393954,181.435555,1209.050000,179.380000C1208.960000,178.680000,1209.240000,177.990000,1209.670000,177.850000C1210.100000,177.710000,1210.520000,178.180000,1210.610000,178.850000C1211.083425,181.721293,1210.591048,184.668523,1209.210000,187.230000C1206.560000,191.610000,1200.800000,192.850000,1195.120000,192.850000Z" transform="matrix(1 0 0 1 -1652.90474859000051 1.04890245999985)" fill="rgb(232,58,90)" stroke="none" stroke-width="1"/></g></g><g id="e11y4r30i7lro35_to" transform="translate(0,0)"><g id="e11y4r30i7lro35" transform="translate(0,0)"><rect id="e11y4r30i7lro36" width="413.290000" height="50.460000" rx="0" ry="0" transform="matrix(1 0 0 1 350.46703900999978 349.93609753499993)" fill="rgb(64,59,59)" stroke="none" stroke-width="1"/><g id="e11y4r30i7lro37_to" transform="translate(-300,0)"><g id="e11y4r30i7lro37" transform="translate(0,0)"><path id="e11y4r30i7lro38" style="isolation:isolate" d="M2109.790000,219.250000L2093,219.250000L2125.850000,252.100000L2141.070000,252.100000C2141.543547,252.107113,2142.015477,252.043065,2142.470000,251.910000Z" transform="matrix(1 0 0 1 -1634.82296099000041 139.35109753499989)" opacity="0.2" fill="rgb(255,255,255)" stroke="none" stroke-width="1"/><path id="e11y4r30i7lro39" style="isolation:isolate" d="M2079.940000,219.250000L2071.570000,219.250000L2104.360000,252L2112.730000,252Z" transform="matrix(1 0 0 1 -1634.82296099000041 139.35109753499989)" opacity="0.2" fill="rgb(255,255,255)" stroke="none" stroke-width="1"/></g></g><g id="e11y4r30i7lro40_to" transform="translate(0,0)"><g id="e11y4r30i7lro40" transform="translate(0,0)"><path id="e11y4r30i7lro41" style="isolation:isolate" d="M2109.790000,219.250000L2093,219.250000L2125.850000,252.100000L2141.070000,252.100000C2141.543547,252.107113,2142.015477,252.043065,2142.470000,251.910000Z" transform="matrix(1 0 0 1 -1634.82296099000041 139.35109753499989)" opacity="0.2" fill="rgb(255,255,255)" stroke="none" stroke-width="1"/><path id="e11y4r30i7lro42" style="isolation:isolate" d="M2079.940000,219.250000L2071.570000,219.250000L2104.360000,252L2112.730000,252Z" transform="matrix(1 0 0 1 -1634.82296099000041 139.35109753499989)" opacity="0.2" fill="rgb(255,255,255)" stroke="none" stroke-width="1"/></g></g><g id="e11y4r30i7lro43_to" transform="translate(-384.496895,0)"><g id="e11y4r30i7lro43" transform="translate(0,0)"><path id="e11y4r30i7lro44" style="isolation:isolate" d="M2291.510000,219.290000L2283.140000,219.290000L2315.930000,252.080000L2324.300000,252.080000Z" transform="matrix(1 0 0 1 -1634.82296099000041 139.35109753499989)" opacity="0" fill="rgb(255,255,255)" stroke="none" stroke-width="1"/><path id="e11y4r30i7lro45" style="isolation:isolate" d="M2321.300000,219.290000L2304.550000,219.290000L2337.410000,252.140000L2352.620000,252.140000C2353.084352,252.160394,2353.549205,252.113235,2354,252Z" transform="matrix(1 0 0 1 -1634.82296099000041 139.35109753499989)" opacity="0" fill="rgb(255,255,255)" stroke="none" stroke-width="1"/></g></g><g id="e11y4r30i7lro46_to" transform="translate(0,0)"><g id="e11y4r30i7lro46" transform="translate(0,0)"><path id="e11y4r30i7lro47" style="isolation:isolate" d="M2291.510000,219.290000L2283.140000,219.290000L2315.930000,252.080000L2324.300000,252.080000Z" transform="matrix(1 0 0 1 -1634.82296099000041 139.35109753499989)" opacity="0.2" fill="rgb(255,255,255)" stroke="none" stroke-width="1"/><path id="e11y4r30i7lro48" style="isolation:isolate" d="M2321.300000,219.290000L2304.550000,219.290000L2337.410000,252.140000L2352.620000,252.140000C2353.084352,252.160394,2353.549205,252.113235,2354,252Z" transform="matrix(1 0 0 1 -1634.82296099000041 139.35109753499989)" opacity="0.2" fill="rgb(255,255,255)" stroke="none" stroke-width="1"/></g></g><path id="e11y4r30i7lro49" d="M2259.550000,252.270000C2256.162873,252.270004,2253.415516,249.527122,2253.410000,246.140000L2253.410000,225.620000C2253.410000,222.228972,2256.158972,219.480000,2259.550000,219.480000L2398.640000,219.480000L2398.640000,195.260000C2398.547485,192.279529,2396.060720,189.935887,2393.080000,190.020000L1997.850000,190.020000C1990.457190,190.002352,1983.307443,192.659088,1977.720000,197.500000L1877.810000,285.070000C1863.170000,297.920000,1872.810000,321.070000,1892.900000,321.070000L2393.080000,321.070000C2396.027980,321.127853,2398.489360,318.834697,2398.640000,315.890000L2398.640000,252.270000ZM2147.180000,245.900000C2147.217703,247.515415,2146.602246,249.077754,2145.472916,250.233435C2144.343585,251.389117,2142.795855,252.040440,2141.180000,252.040000L1989.550000,252.040000C1988.508611,252.037357,1987.511074,251.620442,1986.777518,250.881258C1986.043961,250.142074,1985.634683,249.141379,1985.640000,248.100000C1985.623904,246.947357,1986.122488,245.847540,1987,245.100000L2003,231.420000C2012.232023,223.539588,2023.971996,219.210229,2036.110000,219.210000L2141.110000,219.210000C2142.735777,219.210000,2144.294967,219.855837,2145.444565,221.005435C2146.594163,222.155033,2147.240000,223.714223,2147.240000,225.340000Z" transform="matrix(1 0 0 1 -1634.82296099000041 139.35109753499989)" fill="rgb(232,232,232)" stroke="none" stroke-width="1"/><path id="e11y4r30i7lro50" d="M1892.710000,272C1901.710000,274.680000,1929.840000,262.410000,1954.450000,242.080000C1979.060000,221.750000,1991.910000,200.150000,1990.890000,190.750000C1986.023215,191.897607,1981.505300,194.202875,1977.720000,197.470000Z" transform="matrix(1 0 0 1 -1634.82296099000041 139.35109753499989)" fill="rgb(64,59,59)" stroke="none" stroke-width="1"/><path id="e11y4r30i7lro51" d="M1872.440000,308.140000L2398.580000,308.140000L2398.580000,291.590000L1872.760000,291.590000C1870.198189,296.784751,1870.080913,302.850102,1872.440000,308.140000Z" transform="matrix(1 0 0 1 -1634.82296099000041 139.35109753499989)" fill="rgb(97,140,119)" stroke="none" stroke-width="1"/><path id="e11y4r30i7lro52" d="M2398.580000,285.200000L1877.680000,285.200000C1872.839342,289.276511,1870.268759,295.442184,1870.780000,301.750000L2398.580000,301.750000Z" transform="matrix(1 0 0 1 -1634.82296099000041 139.35109753499989)" fill="rgb(229,59,91)" stroke="none" stroke-width="1"/><path id="e11y4r30i7lro53" d="M2218,321.060000L2218,221.420000C2217.983475,218.574114,2215.665912,216.278921,2212.820000,216.290000L2184.460000,216.290000C2181.614114,216.306525,2179.318921,218.624088,2179.330000,221.470000L2179.330000,321.060000Z" transform="matrix(1 0 0 1 -1634.82296099000041 139.35109753499989)" fill="rgb(64,59,59)" stroke="none" stroke-width="1"/><path id="e11y4r30i7lro54" style="isolation:isolate" d="M2184,246.080000L2184,225.520000C2184.011023,222.988920,2186.068902,220.944462,2188.600000,220.950000L2209.150000,220.950000C2210.367347,220.955293,2211.532731,221.443964,2212.389775,222.308509C2213.246819,223.173055,2213.725316,224.342653,2213.720000,225.560000L2213.720000,246.110000C2213.708977,248.641080,2211.651098,250.685538,2209.120000,250.680000L2188.600000,250.680000C2186.075216,250.642431,2184.037569,248.604784,2184,246.080000Z" transform="matrix(1 0 0 1 -1634.82296099000041 139.35109753499989)" opacity="0.2" fill="rgb(255,255,255)" stroke="none" stroke-width="1"/></g></g><g id="e11y4r30i7lro55_to" transform="translate(-708.010000,139.529992)"><path id="e11y4r30i7lro55" d="M253,180.830000C267,136.830000,223,147.830000,223,147.830000C215,56.830000,115,142.830000,115,142.830000C87,111.830000,39,167.830000,39,167.830000C6,163.830000,0,180.830000,0,180.830000Z" transform="translate(0,0)" fill="rgb(94,148,153)" stroke="none" stroke-width="1"/></g><g id="e11y4r30i7lro56_to" transform="translate(-796.855032,-63.623640)"><path id="e11y4r30i7lro56" d="M253,180.830000C267,136.830000,223,147.830000,223,147.830000C215,56.830000,115,142.830000,115,142.830000C87,111.830000,39,167.830000,39,167.830000C6,163.830000,0,180.830000,0,180.830000Z" transform="translate(0,0)" fill="rgb(94,148,153)" stroke="none" stroke-width="1"/></g><g id="e11y4r30i7lro57_to" transform="translate(-1321.635644,164.284802)"><path id="e11y4r30i7lro57" d="M707.910000,48.130000C708.910000,25.130000,683.910000,34.130000,683.910000,34.130000C676.910000,-40.870000,620.910000,31.130000,620.910000,31.130000C614.910000,-22.870000,569.910000,46.130000,569.910000,46.130000L707.910000,48.130000" transform="translate(0,0)" fill="rgb(94,148,153)" stroke="none" stroke-width="1"/></g><g id="e11y4r30i7lro58_to" transform="translate(-1258.803180,-66.567499)"><path id="e11y4r30i7lro58" d="M839.590000,238.210000C831.590000,219.210000,804.590000,214.210000,804.590000,214.210000C785.590000,209.210000,758.590000,229.210000,758.590000,229.210000C758.590000,214.210000,747.590000,209.210000,747.590000,209.210000C736.590000,201.210000,712.590000,218.210000,712.590000,218.210000C709.590000,166.210000,679.590000,169.210000,679.590000,169.210000C648.590000,170.210000,619.590000,220.210000,619.590000,220.210000C617.059953,215.886302,613.653722,212.139448,609.590000,209.210000C605.526278,206.280552,599.590000,200.210000,576.590000,223.210000C553.590000,246.210000,542.590000,242.210000,542.590000,242.210000Z" transform="translate(0,0)" fill="rgb(94,148,153)" stroke="none" stroke-width="1"/></g><g id="e11y4r30i7lro59_to" transform="translate(821.180952,378.719952)"><g id="e11y4r30i7lro59" transform="translate(0,0)"><path id="e11y4r30i7lro60" d="M1328.390000,43.390000C1301.940000,43.110000,1284.230000,87.440000,1279.080000,115.100000C1276.960000,126.520000,1268.900000,169.820000,1291.740000,197.100000C1311.260000,220.380000,1345.230000,222.290000,1365.050000,199.660000C1387.630000,173.860000,1379.530000,130.210000,1377.050000,116.840000C1372.220000,90.840000,1355.570000,43.700000,1328.400000,43.420000" transform="matrix(1 0 0 1 -2587.74264099999982 55.74964626999997)" fill="rgb(231,58,90)" stroke="none" stroke-width="1"/><path id="e11y4r30i7lro61" d="M1327.120000,43.260000C1327.120000,43.260000,1250.480000,164.500000,1327.790000,215.730000C1327.790000,215.730000,1288.790000,215.730000,1277.790000,166.210000C1276,159.710000,1272.470000,120.340000,1287.790000,84.210000C1298.720000,58.450000,1311.120000,44.930000,1327.110000,43.210000" transform="matrix(1 0 0 1 -2587.74264099999982 55.74964626999997)" opacity="0.49" fill="rgb(197,214,198)" stroke="none" stroke-width="1"/><path id="e11y4r30i7lro62" d="M1328.730000,265.800000C1328.108029,265.716827,1327.664958,265.154128,1327.730000,264.530000L1326.390000,84.810000C1326.323813,84.179469,1326.763587,83.607762,1327.390000,83.510000C1327.940000,83.510000,1328.390000,84.080000,1328.390000,84.780000L1329.730000,264.510000C1329.795771,265.138373,1329.354931,265.707056,1328.730000,265.800000Z" transform="matrix(1 0 0 1 -2587.74264099999982 55.74964626999997)" fill="rgb(97,140,119)" stroke="none" stroke-width="1"/><path id="e11y4r30i7lro63" d="M1315.170000,107.820000C1310.860000,107.820000,1306.480000,106.910000,1303.830000,103.880000C1301.830000,101.540000,1300.980000,98.260000,1301.410000,94.120000C1301.490000,93.420000,1301.990000,92.920000,1302.540000,93.020000C1303.146907,93.215747,1303.511885,93.834064,1303.390000,94.460000C1303.050000,97.750000,1303.630000,100.210000,1305.160000,101.970000C1310.870000,108.510000,1327.320000,103.330000,1327.480000,103.280000C1328.020000,103.110000,1328.560000,103.520000,1328.700000,104.210000C1328.866179,104.835461,1328.558030,105.489748,1327.970000,105.760000C1323.818981,107.034664,1319.511342,107.727925,1315.170000,107.820000Z" transform="matrix(1 0 0 1 -2587.74264099999982 55.74964626999997)" fill="rgb(97,140,119)" stroke="none" stroke-width="1"/><path id="e11y4r30i7lro64" d="M1309.620000,169.190000C1302.470000,169.190000,1295.210000,167.970000,1291.900000,163.640000C1290.187389,161.267686,1289.548882,158.285570,1290.140000,155.420000C1290.250000,154.720000,1290.780000,154.280000,1291.310000,154.420000C1291.909479,154.659860,1292.244783,155.300758,1292.100000,155.930000C1291.648857,157.994835,1292.095981,160.154113,1293.330000,161.870000C1300.030000,170.640000,1327.330000,164.710000,1327.560000,164.650000C1328.100000,164.520000,1328.620000,165,1328.710000,165.650000C1328.849331,166.276652,1328.502929,166.909585,1327.900000,167.130000C1321.888355,168.410716,1315.765904,169.100664,1309.620000,169.190000Z" transform="matrix(1 0 0 1 -2587.74264099999982 55.74964626999997)" fill="rgb(97,140,119)" stroke="none" stroke-width="1"/><path id="e11y4r30i7lro65" d="M1347.060000,132.660000C1340.919290,132.591730,1334.800048,131.921862,1328.790000,130.660000C1328.186125,130.439845,1327.836452,129.808727,1327.970000,129.180000C1328.060000,128.490000,1328.580000,128.010000,1329.130000,128.180000C1329.400000,128.240000,1356.660000,134.180000,1363.350000,125.400000C1364.584019,123.684113,1365.031143,121.524835,1364.580000,119.460000C1364.435217,118.830758,1364.770521,118.189860,1365.370000,117.950000C1365.910000,117.820000,1366.440000,118.270000,1366.540000,118.950000C1367.131118,121.815570,1366.492611,124.797686,1364.780000,127.170000C1361.470000,131.440000,1354.210000,132.660000,1347.060000,132.660000Z" transform="matrix(1 0 0 1 -2587.74264099999982 55.74964626999997)" fill="rgb(97,140,119)" stroke="none" stroke-width="1"/></g></g><g id="e11y4r30i7lro66_to" transform="translate(201.432425,50.709314)"><g id="e11y4r30i7lro66" transform="translate(0,0)"><path id="e11y4r30i7lro67" d="M1685.800000,222.200000C1646.110000,221.870000,1619.530000,273.790000,1611.800000,306.200000C1608.620000,319.560000,1596.530000,370.280000,1630.800000,402.200000C1660.090000,429.470000,1711.070000,431.700000,1740.800000,405.200000C1774.690000,374.980000,1762.530000,323.860000,1758.800000,308.200000C1751.550000,277.700000,1726.560000,222.530000,1685.800000,222.200000" transform="matrix(1 0 0 1 -2331.37410199999977 147.14189838999988)" fill="rgb(97,140,119)" stroke="none" stroke-width="1"/><path id="e11y4r30i7lro68" d="M1683.800000,222.200000C1683.800000,222.200000,1568.800000,364.200000,1684.800000,424.200000C1684.800000,424.200000,1626.200000,424.200000,1609.800000,366.200000C1607.130000,358.590000,1601.800000,312.480000,1624.800000,270.200000C1641.200000,240.030000,1659.800000,224.200000,1683.800000,222.200000" transform="matrix(1 0 0 1 -2331.37410199999977 147.14189838999988)" opacity="0.49" fill="rgb(197,214,198)" stroke="none" stroke-width="1"/><path id="e11y4r30i7lro69" d="M1686.300000,482.700000C1685.477696,482.694626,1684.810874,482.032250,1684.800000,481.210000L1682.800000,270.710000C1682.794649,270.311374,1682.949265,269.927228,1683.229276,269.643458C1683.509288,269.359688,1683.891338,269.199964,1684.290000,269.200000C1684.687692,269.191937,1685.071889,269.344298,1685.355966,269.622731C1685.640042,269.901163,1685.800082,270.282226,1685.800000,270.680000L1687.800000,481.180000C1687.805340,481.577835,1687.652403,481.961494,1687.374842,482.246557C1687.097280,482.531620,1686.717836,482.694731,1686.320000,482.700000Z" transform="matrix(1 0 0 1 -2331.37410199999977 147.14189838999988)" fill="rgb(232,58,90)" stroke="none" stroke-width="1"/><path id="e11y4r30i7lro70" d="M1666,297.670000C1659.530000,297.670000,1653,296.600000,1649,293.040000C1645.940000,290.310000,1644.720000,286.470000,1645.380000,281.620000C1645.451453,281.084102,1645.803377,280.627031,1646.303205,280.420962C1646.803033,280.214893,1647.374830,280.291132,1647.803205,280.620962C1648.231580,280.950791,1648.451453,281.484102,1648.380000,282.020000C1647.860000,285.870000,1648.730000,288.750000,1651.030000,290.810000C1659.600000,298.470000,1684.280000,292.410000,1684.530000,292.340000C1685.336336,292.138416,1686.153416,292.628664,1686.355000,293.435000C1686.556584,294.241336,1686.066336,295.058416,1685.260000,295.260000C1678.946030,296.757393,1672.488257,297.565453,1666,297.670000Z" transform="matrix(1 0 0 1 -2331.37410199999977 147.14189838999988)" fill="rgb(232,58,90)" stroke="none" stroke-width="1"/><path id="e11y4r30i7lro71" d="M1657.630000,369.550000C1646.910000,369.550000,1636.010000,368.120000,1631.040000,363.050000C1628.543304,360.514509,1627.543522,356.863788,1628.400000,353.410000C1628.565880,352.601965,1629.349507,352.076579,1630.160000,352.230000C1630.550968,352.304854,1630.895727,352.533039,1631.117402,352.863674C1631.339077,353.194308,1631.419235,353.599897,1631.340000,353.990000C1630.672475,356.486304,1631.376306,359.149447,1633.190000,360.990000C1643.190000,371.260000,1684.130000,364.310000,1684.550000,364.240000C1685.364211,364.100980,1686.137598,364.646374,1686.280000,365.460000C1686.419352,366.276433,1685.875044,367.052741,1685.060000,367.200000C1675.989257,368.675922,1666.819608,369.461510,1657.630000,369.550000Z" transform="matrix(1 0 0 1 -2331.37410199999977 147.14189838999988)" fill="rgb(232,58,90)" stroke="none" stroke-width="1"/><path id="e11y4r30i7lro72" d="M1713.810000,326.760000C1704.622435,326.663546,1695.455703,325.864550,1686.390000,324.370000C1685.576374,324.227598,1685.030980,323.454211,1685.170000,322.640000C1685.233362,322.246664,1685.452631,321.895485,1685.778221,321.665879C1686.103811,321.436272,1686.508221,321.347631,1686.900000,321.420000C1687.310000,321.490000,1728.210000,328.420000,1738.260000,318.160000C1740.075624,316.320536,1740.776407,313.654512,1740.100000,311.160000C1739.942599,310.331573,1740.486573,309.532401,1741.315000,309.375000C1742.143427,309.217599,1742.942599,309.761573,1743.100000,310.590000C1743.958268,314.042506,1742.953808,317.692676,1740.450000,320.220000C1735.440000,325.330000,1724.540000,326.760000,1713.810000,326.760000Z" transform="matrix(1 0 0 1 -2331.37410199999977 147.14189838999988)" fill="rgb(232,58,90)" stroke="none" stroke-width="1"/></g></g><g id="e11y4r30i7lro73_to" transform="translate(704.912114,152.519927)"><g id="e11y4r30i7lro73" transform="translate(0,0)"><path id="e11y4r30i7lro74" d="M1439.480000,278.690000C1406.980000,278.430000,1385.220000,320.930000,1378.890000,347.470000C1376.290000,358.410000,1366.390000,399.930000,1394.450000,426.070000C1418.450000,448.390000,1460.170000,450.220000,1484.510000,428.520000C1512.260000,403.780000,1502.300000,361.920000,1499.250000,349.100000C1493.310000,324.100000,1472.850000,278.960000,1439.480000,278.690000" transform="matrix(1 0 0 1 -2587.74264099999982 55.74964626999997)" fill="rgb(231,58,90)" stroke="none" stroke-width="1"/><path id="e11y4r30i7lro75" d="M1437.920000,278.570000C1437.920000,278.570000,1343.760000,394.840000,1438.740000,443.960000C1438.740000,443.960000,1390.740000,443.960000,1377.330000,396.470000C1375.140000,390.240000,1370.800000,352.470000,1389.610000,317.870000C1403.030000,293.180000,1418.270000,280.210000,1437.920000,278.570000" transform="matrix(1 0 0 1 -2587.74264099999982 55.74964626999997)" opacity="0.49" fill="rgb(197,214,198)" stroke="none" stroke-width="1"/><path id="e11y4r30i7lro76" d="M1439.890000,492C1439.218424,492.000089,1438.670920,491.461487,1438.660000,490.790000L1437,318.410000C1436.999912,317.732902,1437.542990,317.180921,1438.220000,317.170000C1438.547015,317.164638,1438.862490,317.290803,1439.095628,317.520181C1439.328767,317.749559,1439.460044,318.062941,1439.460000,318.390000L1441.100000,490.730000C1441.102663,491.056219,1440.975621,491.370135,1440.746824,491.602682C1440.518028,491.835230,1440.206220,491.967359,1439.880000,491.970000Z" transform="matrix(1 0 0 1 -2587.74264099999982 55.74964626999997)" fill="rgb(97,140,119)" stroke="none" stroke-width="1"/><path id="e11y4r30i7lro77" d="M1423.240000,340.480000C1417.940000,340.480000,1412.550000,339.610000,1409.300000,336.700000C1406.800000,334.460000,1405.800000,331.310000,1406.300000,327.340000C1406.391127,326.666213,1407.011213,326.193873,1407.685000,326.285000C1408.358787,326.376127,1408.831127,326.996213,1408.740000,327.670000C1408.310000,330.830000,1409.020000,333.180000,1410.910000,334.870000C1417.910000,341.140000,1438.130000,336.180000,1438.330000,336.130000C1438.966860,336.014202,1439.584489,336.411818,1439.742723,337.039482C1439.900958,337.667145,1439.545643,338.310041,1438.930000,338.510000C1433.786762,339.732859,1428.525904,340.393400,1423.240000,340.480000Z" transform="matrix(1 0 0 1 -2587.74264099999982 55.74964626999997)" fill="rgb(97,140,119)" stroke="none" stroke-width="1"/><path id="e11y4r30i7lro78" d="M1416.420000,399.330000C1407.640000,399.330000,1398.710000,398.160000,1394.650000,394.010000C1392.602726,391.936943,1391.780790,388.948427,1392.480000,386.120000C1392.606610,385.449509,1393.247518,385.004435,1393.920000,385.120000C1394.244805,385.175926,1394.533577,385.359865,1394.721571,385.630576C1394.909564,385.901287,1394.981050,386.236119,1394.920000,386.560000C1394.390581,388.593329,1394.963354,390.755453,1396.430000,392.260000C1404.660000,400.670000,1438.150000,394.980000,1438.430000,394.930000C1438.874059,394.827146,1439.338588,394.978297,1439.637094,395.322769C1439.935600,395.667242,1440.019132,396.148548,1439.854156,396.573460C1439.689179,396.998372,1439.302748,397.297210,1438.850000,397.350000C1431.433877,398.574014,1423.935866,399.235898,1416.420000,399.330000Z" transform="matrix(1 0 0 1 -2587.74264099999982 55.74964626999997)" fill="rgb(97,140,119)" stroke="none" stroke-width="1"/><path id="e11y4r30i7lro79" d="M1462.410000,364.300000C1454.888212,364.216825,1447.383481,363.564966,1439.960000,362.350000C1439.292346,362.233058,1438.845132,361.598014,1438.960000,360.930000C1439.013669,360.608066,1439.194095,360.321059,1439.460942,360.133138C1439.727790,359.945217,1440.058808,359.872053,1440.380000,359.930000C1440.720000,359.990000,1474.200000,365.670000,1482.380000,357.260000C1483.846646,355.755453,1484.419419,353.593329,1483.890000,351.560000C1483.775175,351.117247,1483.915517,350.647344,1484.254345,350.340080C1484.593172,350.032816,1485.074516,349.938944,1485.503969,350.096377C1485.933422,350.253811,1486.240046,350.636546,1486.300000,351.090000C1486.999210,353.918427,1486.177274,356.906943,1484.130000,358.980000C1480.120000,363.130000,1471.190000,364.300000,1462.410000,364.300000Z" transform="matrix(1 0 0 1 -2587.74264099999982 55.74964626999997)" fill="rgb(97,140,119)" stroke="none" stroke-width="1"/></g></g></g></g></svg>